<svg width="2000" height="600" viewBox="0 0 2000 600" fill="none" xmlns="http://www.w3.org/2000/svg">
<mask id="mask0_3_19" style="mask-type:alpha" maskUnits="userSpaceOnUse" x="0" y="0" width="2000" height="600">
<rect width="2000" height="600" fill="black"/>
</mask>
<g mask="url(#mask0_3_19)">
<rect width="2000" height="600" fill="black"/>
<path d="M766.927 388.687V210.562H817.209V344.9H886.347V388.687H766.927Z" fill="white"/>
<path d="M894.902 388.687V210.562H945.2V344.9H1014.36V388.687H894.902Z" fill="white"/>
<path d="M1374 346.517L1415.15 325.346C1427.15 348.331 1452.7 352.912 1469.1 343.735C1485.51 334.558 1467.08 325.346 1449.92 319.746C1432.75 314.146 1388.38 308.582 1382.42 271.044C1376.45 233.506 1409.95 218.296 1415.15 217.104C1420.36 215.912 1419.17 209.914 1459.49 210.709C1491.75 211.345 1512.9 237.083 1519.44 249.873L1480.27 271.044C1479.47 268.78 1474.93 262.417 1463.11 255.075C1448.33 245.899 1428.74 252.257 1430.33 261.831C1431.92 271.405 1439.11 274.621 1483.09 287.808C1518.27 298.357 1525.43 326.815 1524.61 339.725C1525.14 355.043 1512.86 386.555 1459.49 390.052C1406.13 393.549 1380.26 362.486 1374 346.517Z" fill="white"/>
<path d="M1533.22 390.324V210.637H1657.88V253.077H1582.97V279.765H1652.13V320.637H1582.97V346.84H1662.09V390.324H1533.22Z" fill="white"/>
<path fill-rule="evenodd" clip-rule="evenodd" d="M1373.99 388.651H1319.95L1310.61 360.298H1245.3L1236.07 388.651H1180.46L1245.55 209H1308.05L1373.99 388.651ZM1257.42 323.044H1298.33L1277.75 260.58L1257.42 323.044Z" fill="white"/>
<path fill-rule="evenodd" clip-rule="evenodd" d="M758.37 390.284H704.335L694.992 361.934H629.679L620.453 390.284H564.843L629.926 210.634H692.427L758.37 390.284ZM641.802 324.68H682.715L662.129 262.214L641.802 324.68Z" fill="white"/>
<path fill-rule="evenodd" clip-rule="evenodd" d="M1022.95 388.129V210.041V209.148C1032.75 209.036 1059.89 208.88 1090.07 209.148C1127.79 209.483 1138.58 213.835 1152.38 225.815C1163.42 235.398 1165.74 254.51 1165.51 262.868C1165.35 263.707 1165.19 264.509 1165.04 265.28C1163.1 275.367 1162.14 280.325 1147.99 294.341C1173.59 307.474 1172.06 335.301 1171.72 339.84C1171.39 344.379 1167.37 370.16 1139.92 380.911C1117.95 389.512 1052.79 389.307 1022.95 388.129ZM1102.46 248.136H1073.44V275.889H1102.46L1102.5 275.889C1110.16 275.889 1116.37 269.676 1116.37 262.012C1116.37 254.349 1110.16 248.136 1102.5 248.136L1102.46 248.136V248.136ZM1122.24 331.247C1122.24 339.958 1115.18 347.021 1106.47 347.021L1106.43 347.021H1073.44V315.473L1106.43 315.473L1106.47 315.473C1115.18 315.473 1122.24 322.535 1122.24 331.247Z" fill="white"/>
<path d="M1022.95 388.129H1022.91V388.173L1022.95 388.174L1022.95 388.129ZM1022.95 209.148L1022.95 209.102L1022.91 209.102V209.148H1022.95ZM1090.07 209.148L1090.07 209.102L1090.07 209.148ZM1152.38 225.815L1152.35 225.849L1152.35 225.849L1152.38 225.815ZM1165.51 262.868L1165.56 262.877L1165.56 262.869L1165.51 262.868ZM1165.04 265.28L1165.09 265.289L1165.09 265.289L1165.04 265.28ZM1147.99 294.341L1147.96 294.309L1147.91 294.353L1147.97 294.382L1147.99 294.341ZM1171.72 339.84L1171.68 339.836L1171.68 339.836L1171.72 339.84ZM1139.92 380.911L1139.9 380.869L1139.9 380.869L1139.92 380.911ZM1073.44 248.136V248.09H1073.4V248.136H1073.44ZM1102.46 248.136H1102.51V248.09H1102.46V248.136ZM1073.44 275.889H1073.4V275.935H1073.44V275.889ZM1102.46 275.889L1102.46 275.843H1102.46V275.889ZM1102.5 275.889L1102.5 275.935H1102.5V275.889ZM1102.5 248.136V248.09L1102.5 248.09L1102.5 248.136ZM1102.46 248.136H1102.41V248.182L1102.46 248.182L1102.46 248.136ZM1106.47 347.021V346.975L1106.47 346.975L1106.47 347.021ZM1106.43 347.021V347.066L1106.43 347.066L1106.43 347.021ZM1073.44 347.021H1073.4V347.066H1073.44V347.021ZM1073.44 315.473L1073.44 315.427L1073.4 315.427V315.473H1073.44ZM1106.43 315.473L1106.43 315.519L1106.43 315.519L1106.43 315.473ZM1106.47 315.473V315.427L1106.47 315.427L1106.47 315.473ZM1022.91 210.041V388.129H1023V210.041H1022.91ZM1022.91 209.148V210.041H1023V209.148H1022.91ZM1090.07 209.102C1059.89 208.834 1032.75 208.99 1022.95 209.102L1022.95 209.194C1032.75 209.082 1059.89 208.926 1090.07 209.194L1090.07 209.102ZM1152.41 225.78C1145.51 219.788 1139.35 215.7 1130.21 213.07C1121.06 210.441 1108.93 209.269 1090.07 209.102L1090.07 209.194C1108.93 209.361 1121.05 210.533 1130.18 213.159C1139.31 215.784 1145.45 219.862 1152.35 225.849L1152.41 225.78ZM1165.56 262.869C1165.67 258.686 1165.15 251.814 1163.21 244.789C1161.28 237.764 1157.94 230.58 1152.41 225.78L1152.35 225.849C1157.86 230.632 1161.2 237.796 1163.13 244.813C1165.06 251.829 1165.58 258.692 1165.47 262.867L1165.56 262.869ZM1165.09 265.289C1165.24 264.517 1165.39 263.715 1165.56 262.877L1165.47 262.859C1165.3 263.698 1165.15 264.5 1165 265.272L1165.09 265.289ZM1148.02 294.374C1155.1 287.365 1158.88 282.617 1161.14 278.359C1163.39 274.099 1164.12 270.332 1165.09 265.289L1165 265.272C1164.03 270.316 1163.3 274.07 1161.05 278.316C1158.81 282.562 1155.03 287.301 1147.96 294.309L1148.02 294.374ZM1171.77 339.843C1172.11 335.305 1173.63 307.447 1148.01 294.3L1147.97 294.382C1173.54 307.5 1172.01 335.298 1171.68 339.836L1171.77 339.843ZM1139.93 380.954C1167.41 370.193 1171.44 344.388 1171.77 339.843L1171.68 339.836C1171.34 344.369 1167.33 370.127 1139.9 380.869L1139.93 380.954ZM1022.95 388.174C1037.87 388.764 1061.62 389.11 1084.39 388.233C1095.77 387.795 1106.91 387.051 1116.58 385.879C1126.24 384.707 1134.44 383.107 1139.93 380.954L1139.9 380.869C1134.41 383.017 1126.23 384.616 1116.57 385.788C1106.9 386.959 1095.77 387.703 1084.39 388.141C1061.62 389.018 1037.87 388.672 1022.95 388.083L1022.95 388.174ZM1073.44 248.182H1102.46V248.09H1073.44V248.182ZM1073.49 275.889V248.136H1073.4V275.889H1073.49ZM1102.46 275.843H1073.44V275.935H1102.46V275.843ZM1102.5 275.843L1102.46 275.843L1102.46 275.935L1102.5 275.935L1102.5 275.843ZM1116.33 262.012C1116.33 269.651 1110.13 275.843 1102.5 275.843V275.935C1110.19 275.935 1116.42 269.702 1116.42 262.012H1116.33ZM1102.5 248.182C1110.13 248.182 1116.33 254.374 1116.33 262.012H1116.42C1116.42 254.323 1110.19 248.09 1102.5 248.09V248.182ZM1102.46 248.182L1102.5 248.182L1102.5 248.09L1102.46 248.09L1102.46 248.182ZM1102.41 248.136V248.136H1102.51V248.136H1102.41ZM1106.47 347.066C1115.21 347.066 1122.29 339.984 1122.29 331.247H1122.2C1122.2 339.933 1115.16 346.975 1106.47 346.975V347.066ZM1106.43 347.066L1106.47 347.066L1106.47 346.975L1106.43 346.975L1106.43 347.066ZM1073.44 347.066H1106.43V346.975H1073.44V347.066ZM1073.4 315.473V347.021H1073.49V315.473H1073.4ZM1106.43 315.427L1073.44 315.427L1073.44 315.519L1106.43 315.519L1106.43 315.427ZM1106.47 315.427L1106.43 315.427L1106.43 315.519L1106.47 315.519L1106.47 315.427ZM1122.29 331.247C1122.29 322.51 1115.21 315.427 1106.47 315.427V315.519C1115.16 315.519 1122.2 322.56 1122.2 331.247H1122.29Z" fill="white"/>
<rect x="338.004" y="210.636" width="84.6915" height="84.6916" fill="#FD6005"/>
<ellipse cx="473.459" cy="252.982" rx="42.3458" ry="42.3458" fill="#FA3A4A"/>
<path fill-rule="evenodd" clip-rule="evenodd" d="M422.675 348.318C422.675 348.201 422.676 348.085 422.676 347.968C422.676 347.852 422.675 347.735 422.675 347.619V305.631H380.456C380.416 305.631 380.377 305.63 380.338 305.63C356.955 305.63 338 324.586 338 347.968C338 371.351 356.955 390.306 380.337 390.306V390.307H422.675V348.318Z" fill="#4A53FA"/>
<path d="M473.459 305.632L515.805 390.324H431.114L473.459 305.632Z" fill="#0BA749"/>
<path d="M1737.42 109.519C1735.77 108.154 1734.91 106.836 1734.46 104.939C1733.89 102.557 1734.34 99.8164 1735.79 96.995C1736.32 95.9262 1752.07 70.18 1755.94 64.0479L1756.61 62.9743L1752.07 31.7618L1752.22 29.3915C1752.39 26.6337 1752.67 25.2062 1753.4 23.3472C1754.87 19.5853 1757.87 17.1876 1761.87 16.6047C1763.36 16.4011 1765.74 16.4794 1767.51 16.8141C1768.25 16.9598 1776.19 18.7884 1785.16 20.8695L1801.48 24.6799L1815.3 17.2067C1822.89 13.11 1829.64 9.49787 1830.31 9.19405C1832.53 8.19361 1835.61 7.59474 1837.58 7.81403C1839.69 8.04796 1842.07 9.14436 1843.48 10.5451C1845.46 12.5083 1846.85 15.5754 1847.34 19.0598C1847.43 19.6697 1847.95 28.023 1848.49 37.6182L1849.47 55.0785L1860.25 65.9268C1866.18 71.8921 1871.34 77.1691 1871.72 77.6497C1875.52 82.451 1876.43 86.8636 1874.53 91.147C1873.48 93.5085 1870.57 96.1796 1867.2 97.9064C1866.53 98.2419 1858.85 101.614 1850.12 105.382L1834.25 112.243L1827.06 126.512C1819.44 141.634 1819.37 141.789 1817.55 143.856C1815.28 146.431 1812.89 147.988 1810.4 148.52C1809.04 148.802 1806.83 148.658 1805.44 148.18C1803.45 147.527 1801.12 145.95 1799.38 144.109C1798.77 143.462 1790.47 133.468 1780 120.768C1778.44 118.868 1777.03 117.231 1776.86 117.132C1776.69 117.032 1769.83 116.025 1761.61 114.906C1753.39 113.786 1745.87 112.707 1744.9 112.49C1741.77 111.833 1738.82 110.652 1737.42 109.519Z" fill="url(#paint0_radial_3_19)"/>
<path d="M1735.93 340.86C1734.93 339.621 1734.5 338.534 1734.46 337.087C1734.4 335.269 1735.14 333.343 1736.61 331.506C1737.16 330.809 1752.45 314.43 1756.18 310.546L1756.83 309.865L1758.18 286.483L1758.65 284.782C1759.18 282.801 1759.6 281.805 1760.41 280.562C1762.03 278.044 1764.58 276.748 1767.57 276.919C1768.69 276.994 1770.4 277.406 1771.64 277.914C1772.16 278.129 1777.66 280.644 1783.88 283.496L1795.18 288.701L1806.34 285.325C1812.48 283.478 1817.93 281.857 1818.46 281.736C1820.22 281.339 1822.55 281.363 1823.95 281.816C1825.45 282.301 1827.02 283.454 1827.83 284.682C1828.98 286.405 1829.54 288.844 1829.38 291.452C1829.35 291.909 1828.48 298.063 1827.45 305.123L1825.55 317.97L1831.78 327.468C1835.2 332.691 1838.17 337.3 1838.37 337.706C1840.42 341.764 1840.42 345.11 1838.4 347.942C1837.28 349.503 1834.78 351.013 1832.06 351.766C1831.53 351.911 1825.44 353.218 1818.52 354.657L1805.96 357.281L1798.6 366.588C1790.8 376.452 1790.73 376.553 1789.1 377.787C1787.06 379.321 1785.09 380.096 1783.2 380.113C1782.17 380.115 1780.58 379.68 1779.64 379.125C1778.29 378.354 1776.83 376.859 1775.84 375.261C1775.49 374.699 1770.94 366.191 1765.23 355.392C1764.38 353.778 1763.59 352.377 1763.48 352.279C1763.37 352.181 1758.53 350.426 1752.72 348.386C1746.91 346.345 1741.6 344.439 1740.93 344.137C1738.75 343.192 1736.78 341.892 1735.93 340.86Z" fill="url(#paint1_radial_3_19)"/>
<path d="M1567.05 556.394C1566.77 555.345 1566.81 554.547 1567.18 553.633C1567.64 552.481 1568.64 551.482 1570.06 550.743C1570.6 550.459 1584.67 544.461 1588.07 543.067L1588.67 542.821L1595.97 528.598L1596.73 527.665C1597.61 526.576 1598.15 526.07 1599 525.517C1600.71 524.395 1602.65 524.289 1604.47 525.222C1605.15 525.578 1606.11 526.31 1606.74 526.97C1607 527.246 1609.74 530.336 1612.84 533.835L1618.45 540.206L1626.36 541.185C1630.7 541.726 1634.55 542.222 1634.91 542.293C1636.12 542.531 1637.57 543.19 1638.32 543.861C1639.12 544.578 1639.78 545.731 1639.95 546.722C1640.19 548.115 1639.86 549.79 1639.04 551.375C1638.9 551.653 1636.66 555.254 1634.06 559.375L1629.33 566.872L1630.59 574.52C1631.28 578.727 1631.86 582.424 1631.87 582.733C1632.03 585.833 1631.11 587.922 1629.06 589.132C1627.94 589.798 1625.95 590.047 1624.05 589.768C1623.68 589.71 1619.51 588.843 1614.8 587.831L1606.23 585.995L1599.06 589.772C1591.47 593.775 1591.4 593.818 1590.04 594.137C1588.34 594.532 1586.9 594.472 1585.71 593.96C1585.07 593.677 1584.2 592.967 1583.77 592.359C1583.14 591.507 1582.64 590.169 1582.46 588.898C1582.4 588.451 1581.91 581.882 1581.33 573.562C1581.24 572.319 1581.14 571.228 1581.1 571.136C1581.06 571.044 1578.52 568.612 1575.46 565.732C1572.39 562.853 1569.61 560.196 1569.27 559.82C1568.17 558.629 1567.3 557.272 1567.05 556.394Z" fill="url(#paint2_radial_3_19)"/>
<path fill-rule="evenodd" clip-rule="evenodd" d="M1783.63 609.421C1794.26 603.633 1796.54 599.062 1800.05 591.875C1805.45 580.805 1802.22 561.956 1788.1 555.068C1779.02 550.64 1770.96 550.989 1766.37 551.803C1765.58 551.943 1764.89 552.096 1764.32 552.242C1761.79 552.662 1762.8 553.148 1761.61 550.955C1761.37 550.409 1761.06 549.762 1760.68 549.04C1758.5 544.919 1753.81 538.343 1744.72 533.909C1730.6 527.02 1713.75 536.073 1708.35 547.143C1702.95 558.213 1702.88 571.693 1708.36 584.415C1713.84 597.137 1717.79 605.069 1722.55 612.577C1723.29 613.748 1723.94 614.79 1724.51 615.714C1727.6 620.718 1732.2 621.988 1735.93 621.502C1737.24 621.331 1738.56 621.148 1739.74 620.965C1744.28 620.26 1749.51 619.416 1749.51 619.416C1749.51 619.416 1773.01 615.21 1783.63 609.421Z" fill="url(#paint3_radial_3_19)"/>
<path fill-rule="evenodd" clip-rule="evenodd" d="M1999.79 557.167C2012.24 550.385 2014.92 545.029 2019.03 536.609C2025.36 523.638 2021.57 501.553 2005.02 493.482C1994.39 488.294 1984.95 488.703 1979.57 489.657C1978.64 489.821 1977.83 490.001 1977.16 490.172C1974.2 490.663 1975.38 491.233 1973.99 488.664C1973.7 488.023 1973.35 487.266 1972.9 486.42C1970.34 481.591 1964.85 473.887 1954.2 468.691C1937.66 460.62 1917.92 471.227 1911.59 484.197C1905.27 497.167 1905.17 512.961 1911.6 527.867C1918.02 542.773 1922.64 552.067 1928.23 560.864C1929.1 562.236 1929.86 563.457 1930.53 564.54C1934.14 570.403 1939.53 571.89 1943.9 571.322C1945.44 571.121 1946.99 570.906 1948.37 570.692C1953.68 569.867 1959.81 568.877 1959.81 568.877C1959.81 568.877 1987.35 563.949 1999.79 557.167Z" fill="url(#paint4_radial_3_19)"/>
<path fill-rule="evenodd" clip-rule="evenodd" d="M1724.56 -62.6841C1727.24 -74.4818 1725.32 -79.221 1722.25 -86.6018C1717.51 -97.9713 1701.23 -108.003 1686.72 -101.961C1677.4 -98.0763 1672.34 -91.8015 1669.91 -87.8149C1669.49 -87.1289 1669.15 -86.5107 1668.88 -85.9841C1667.53 -83.809 1668.56 -84.2484 1666.13 -84.8014C1665.56 -84.9832 1664.87 -85.1812 1664.08 -85.3714C1659.54 -86.4578 1651.51 -87.2898 1642.18 -83.3998C1627.67 -77.3574 1623.33 -58.732 1628.07 -47.3624C1632.81 -35.9929 1642.87 -27.0248 1656.04 -22.7299C1669.21 -18.4351 1677.77 -16.1509 1686.55 -14.7626C1687.92 -14.5461 1689.13 -14.3457 1690.2 -14.162C1696 -13.1677 1699.99 -15.7844 1702.09 -18.9042C1702.83 -20.0012 1703.57 -21.1138 1704.21 -22.12C1706.68 -25.9875 1709.5 -30.4702 1709.5 -30.4702C1709.5 -30.4702 1721.88 -50.8865 1724.56 -62.6841Z" fill="url(#paint5_radial_3_19)"/>
<path d="M1916.81 212.224C1915.16 210.859 1914.3 209.541 1913.85 207.644C1913.28 205.262 1913.73 202.521 1915.18 199.7C1915.71 198.631 1931.46 172.885 1935.33 166.753L1936 165.679L1931.46 134.467L1931.61 132.096C1931.78 129.338 1932.06 127.911 1932.79 126.052C1934.26 122.29 1937.27 119.892 1941.26 119.31C1942.75 119.106 1945.13 119.184 1946.9 119.519C1947.64 119.665 1955.58 121.493 1964.55 123.574L1980.87 127.385L1994.69 119.912C2002.28 115.815 2009.03 112.203 2009.7 111.899C2011.92 110.898 2015 110.3 2016.97 110.519C2019.08 110.753 2021.46 111.849 2022.87 113.25C2024.85 115.213 2026.24 118.28 2026.73 121.765C2026.82 122.374 2027.34 130.728 2027.88 140.323L2028.86 157.783L2039.64 168.632C2045.57 174.597 2050.73 179.874 2051.11 180.355C2054.91 185.156 2055.82 189.568 2053.92 193.852C2052.87 196.213 2049.96 198.884 2046.59 200.611C2045.92 200.947 2038.24 204.319 2029.51 208.087L2013.64 214.948L2006.45 229.217C1998.83 244.339 1998.76 244.494 1996.94 246.561C1994.67 249.136 1992.28 250.693 1989.79 251.225C1988.43 251.507 1986.22 251.362 1984.83 250.885C1982.84 250.232 1980.51 248.655 1978.77 246.814C1978.16 246.167 1969.86 236.173 1959.39 223.472C1957.83 221.573 1956.42 219.936 1956.25 219.836C1956.08 219.737 1949.22 218.73 1941 217.61C1932.78 216.491 1925.26 215.412 1924.29 215.195C1921.16 214.538 1918.21 213.357 1916.81 212.224Z" fill="url(#paint6_radial_3_19)"/>
<path d="M171.508 595.661C169.855 594.297 168.993 592.979 168.548 591.082C167.973 588.7 168.425 585.959 169.874 583.138C170.409 582.069 186.158 556.323 190.027 550.191L190.696 549.117L186.153 517.905L186.309 515.534C186.475 512.776 186.759 511.349 187.488 509.49C188.955 505.728 191.962 503.33 195.952 502.748C197.446 502.544 199.826 502.622 201.599 502.957C202.335 503.103 210.275 504.931 219.249 507.012L235.565 510.823L249.383 503.349C256.976 499.253 263.731 495.641 264.398 495.337C266.614 494.336 269.696 493.737 271.667 493.957C273.777 494.191 276.159 495.287 277.562 496.688C279.542 498.651 280.934 501.718 281.429 505.203C281.519 505.812 282.039 514.166 282.578 523.761L283.558 541.221L294.336 552.07C300.264 558.035 305.427 563.312 305.805 563.793C309.604 568.594 310.513 573.006 308.614 577.29C307.562 579.651 304.66 582.322 301.287 584.049C300.618 584.385 292.936 587.757 284.206 591.525L268.332 598.386L261.143 612.655C253.526 627.777 253.453 627.931 251.637 629.999C249.364 632.574 246.974 634.131 244.487 634.663C243.128 634.945 240.918 634.8 239.522 634.323C237.54 633.67 235.206 632.093 233.466 630.252C232.857 629.605 224.552 619.61 214.089 606.91C212.532 605.01 211.117 603.374 210.945 603.274C210.773 603.175 203.915 602.168 195.697 601.048C187.479 599.929 179.957 598.85 178.985 598.633C175.858 597.976 172.902 596.794 171.508 595.661Z" fill="url(#paint7_radial_3_19)"/>
<path d="M-23.6339 410.266C-24.6365 409.438 -25.1589 408.64 -25.4287 407.489C-25.7771 406.045 -25.5031 404.383 -24.6248 402.672C-24.3003 402.024 -14.7509 386.414 -12.4056 382.696L-11.9999 382.045L-14.7544 363.12L-14.6598 361.682C-14.5588 360.01 -14.3869 359.145 -13.9448 358.018C-13.0551 355.737 -11.2322 354.283 -8.81257 353.929C-7.90672 353.806 -6.46369 353.853 -5.38865 354.056C-4.94287 354.145 -0.128534 355.253 5.31274 356.515L15.2057 358.826L23.5842 354.294C28.1877 351.81 32.2837 349.62 32.6881 349.436C34.0319 348.829 35.9007 348.466 37.0957 348.599C38.3749 348.741 39.8192 349.406 40.6701 350.255C41.8706 351.446 42.7144 353.305 43.0147 355.418C43.0695 355.788 43.3841 360.853 43.7112 366.67L44.3052 377.257L50.8403 383.835C54.435 387.452 57.5653 390.651 57.7944 390.943C60.0977 393.854 60.6493 396.529 59.4976 399.127C58.8597 400.558 57.1 402.178 55.0549 403.225C54.6493 403.429 49.9915 405.473 44.6983 407.758L35.0737 411.918L30.7144 420.57C26.0963 429.738 26.0521 429.832 24.9507 431.086C23.5724 432.647 22.1235 433.591 20.6157 433.914C19.7918 434.085 18.4514 433.997 17.6052 433.707C16.403 433.312 14.988 432.355 13.9334 431.239C13.5638 430.847 8.52819 424.787 2.18435 417.087C1.23991 415.935 0.382227 414.942 0.277907 414.882C0.173587 414.822 -3.98454 414.211 -8.9675 413.532C-13.9505 412.853 -18.5108 412.199 -19.1005 412.068C-20.9966 411.669 -22.7886 410.953 -23.6339 410.266Z" fill="url(#paint8_radial_3_19)"/>
<path d="M-52.7769 169.232C-53.4641 167.728 -53.6177 166.524 -53.2869 165.058C-52.8827 163.211 -51.6454 161.462 -49.6893 159.993C-48.9577 159.432 -29.3529 146.878 -24.6024 143.928L-23.7764 143.409L-16.4073 120.223L-15.5001 118.631C-14.4549 116.774 -13.7771 115.879 -12.6446 114.835C-10.3586 112.72 -7.46455 112.07 -4.49951 113.01C-3.39439 113.373 -1.76962 114.229 -0.652371 115.059C-0.191383 115.408 4.70091 119.353 10.2254 123.822L20.2608 131.965L32.3667 131.438C39.0149 131.155 44.9192 130.926 45.4844 130.94C47.3592 130.993 49.6994 131.616 50.9927 132.433C52.3776 133.306 53.6606 134.87 54.1621 136.315C54.874 138.344 54.8057 140.941 53.9748 143.525C53.8319 143.979 51.3763 149.949 48.5162 156.788L43.3106 169.232L47.1315 180.391C49.2339 186.528 51.0369 191.929 51.1371 192.39C52.1543 197.001 51.2981 200.369 48.5364 202.701C47.0106 203.985 44.0967 204.86 41.1746 204.921C40.5974 204.928 34.1311 204.678 26.8044 204.35L13.4792 203.759L3.68148 211.235C-6.69966 219.159 -6.80241 219.242 -8.75962 220.064C-11.2047 221.085 -13.3872 221.359 -15.292 220.89C-16.3296 220.627 -17.8146 219.782 -18.6218 218.98C-19.7773 217.859 -20.8649 215.978 -21.4512 214.115C-21.6559 213.461 -24.0489 203.727 -27.0268 191.39C-27.4671 189.546 -27.8967 187.934 -27.9826 187.807C-28.0685 187.68 -32.4869 184.67 -37.8111 181.123C-43.1352 177.576 -47.9898 174.293 -48.5914 173.814C-50.5394 172.304 -52.1916 170.488 -52.7769 169.232Z" fill="url(#paint9_radial_3_19)"/>
<path d="M119.109 -42.3195C118.422 -43.8237 118.268 -45.0282 118.599 -46.4943C119.003 -48.3407 120.241 -50.0899 122.197 -51.559C122.928 -52.1201 142.533 -64.6736 147.284 -67.6241L148.11 -68.1434L155.479 -91.3292L156.386 -92.9211C157.431 -94.7782 158.109 -95.673 159.241 -96.7169C161.527 -98.8323 164.421 -99.4823 167.386 -98.5416C168.492 -98.1793 170.116 -97.3228 171.234 -96.4929C171.695 -96.1441 176.587 -92.1991 182.111 -87.7303L192.147 -79.5871L204.253 -80.114C210.901 -80.3971 216.805 -80.626 217.37 -80.612C219.245 -80.5591 221.585 -79.9356 222.879 -79.1192C224.264 -78.2457 225.547 -76.6822 226.048 -75.2374C226.76 -73.208 226.692 -70.611 225.861 -68.0266C225.718 -67.5731 223.262 -61.6028 220.402 -54.7641L215.197 -42.3203L219.017 -31.161C221.12 -25.0241 222.923 -19.6228 223.023 -19.162C224.04 -14.5506 223.184 -11.1825 220.422 -8.85107C218.896 -7.56736 215.983 -6.69245 213.061 -6.63134C212.483 -6.62403 206.017 -6.87376 198.69 -7.20216L185.365 -7.79285L175.567 -0.316638C165.186 7.60727 165.084 7.69003 163.126 8.5123C160.681 9.53254 158.499 9.80682 156.594 9.33807C155.556 9.07548 154.071 8.23011 153.264 7.4283C152.109 6.30717 151.021 4.42635 150.435 2.56307C150.23 1.90863 147.837 -7.82477 144.859 -20.1624C144.419 -22.0055 143.989 -23.6179 143.903 -23.7448C143.817 -23.8718 139.399 -26.8819 134.075 -30.4289C128.751 -33.976 123.896 -37.2592 123.295 -37.7376C121.347 -39.2477 119.694 -41.0636 119.109 -42.3195Z" fill="url(#paint10_radial_3_19)"/>
<path d="M101.172 273.192C100.791 272.171 100.747 271.373 101.033 270.425C101.385 269.23 102.28 268.139 103.635 267.266C104.142 266.931 117.613 259.603 120.873 257.887L121.44 257.585L127.371 242.696L128.042 241.692C128.816 240.521 129.303 239.965 130.097 239.332C131.698 238.05 133.63 237.758 135.534 238.516C136.243 238.806 137.271 239.445 137.966 240.043C138.253 240.293 141.282 243.115 144.702 246.311L150.914 252.133L158.893 252.355C163.275 252.481 167.166 252.608 167.536 252.644C168.766 252.767 170.274 253.286 171.086 253.884C171.955 254.523 172.724 255.61 172.986 256.583C173.358 257.95 173.192 259.653 172.524 261.312C172.409 261.604 170.515 265.411 168.315 269.771L164.31 277.703L166.297 285.215C167.39 289.346 168.321 292.98 168.365 293.288C168.817 296.365 168.096 298.538 166.172 299.941C165.109 300.713 163.154 301.151 161.231 301.054C160.851 301.031 156.614 300.564 151.815 300.004L143.087 298.99L136.298 303.442C129.104 308.162 129.033 308.211 127.708 308.66C126.054 309.215 124.607 309.293 123.377 308.896C122.708 308.674 121.772 308.049 121.279 307.484C120.572 306.693 119.946 305.406 119.648 304.155C119.544 303.715 118.429 297.207 117.052 288.96C116.849 287.728 116.642 286.649 116.592 286.561C116.541 286.474 113.779 284.288 110.447 281.708C107.116 279.127 104.08 276.742 103.707 276.399C102.498 275.315 101.497 274.045 101.172 273.192Z" fill="url(#paint11_radial_3_19)"/>
<path d="M1502.16 -20.0477C1501.78 -21.0683 1501.74 -21.867 1502.03 -22.8149C1502.38 -24.0091 1503.27 -25.1004 1504.63 -25.9739C1505.13 -26.3083 1518.61 -33.6365 1521.87 -35.3521L1522.43 -35.6546L1528.36 -50.5437L1529.03 -51.5471C1529.81 -52.7184 1530.3 -53.2745 1531.09 -53.9073C1532.69 -55.1899 1534.62 -55.4812 1536.53 -54.7238C1537.24 -54.4338 1538.26 -53.7948 1538.96 -53.197C1539.24 -52.9461 1542.27 -50.1242 1545.69 -46.9284L1551.91 -41.1064L1559.89 -40.8842C1564.27 -40.758 1568.16 -40.6313 1568.53 -40.5955C1569.76 -40.4727 1571.27 -39.9532 1572.08 -39.356C1572.95 -38.717 1573.72 -37.6294 1573.98 -36.6564C1574.35 -35.2895 1574.18 -33.5863 1573.52 -31.9271C1573.4 -31.6358 1571.51 -27.8281 1569.31 -23.4688L1565.3 -15.5365L1567.29 -8.02447C1568.38 -3.89322 1569.31 -0.259468 1569.36 0.0480564C1569.81 3.12593 1569.09 5.29884 1567.16 6.70113C1566.1 7.47299 1564.15 7.91107 1562.22 7.81403C1561.84 7.79173 1557.61 7.32401 1552.81 6.76421L1544.08 5.7504L1537.29 10.2029C1530.1 14.9222 1530.03 14.9717 1528.7 15.4201C1527.05 15.9757 1525.6 16.0535 1524.37 15.656C1523.7 15.4348 1522.76 14.8095 1522.27 14.2448C1521.56 13.4538 1520.94 12.1669 1520.64 10.915C1520.54 10.4754 1519.42 3.96733 1518.04 -4.27945C1517.84 -5.5112 1517.63 -6.59086 1517.58 -6.67829C1517.53 -6.76571 1514.77 -8.9511 1511.44 -11.5318C1508.11 -14.1125 1505.07 -16.4978 1504.7 -16.8404C1503.49 -17.9241 1502.49 -19.1949 1502.16 -20.0477Z" fill="url(#paint12_radial_3_19)"/>
<path fill-rule="evenodd" clip-rule="evenodd" d="M142.103 502.784C142.605 490.452 139.797 486.07 135.335 479.262C128.46 468.774 110.225 461.831 96.7659 470.653C88.1136 476.324 84.1888 483.578 82.4889 488.036C82.1965 488.803 81.9699 489.487 81.7964 490.066C80.8359 492.504 81.7955 491.867 79.2442 491.777C78.639 491.704 77.9114 491.636 77.0775 491.597C72.3149 491.375 64.0867 492.074 55.4217 497.753C41.9622 506.576 41.0547 526.067 47.9291 536.554C54.8035 547.042 66.5881 554.107 80.6283 555.896C94.6685 557.685 103.698 558.34 112.787 558.055C114.204 558.01 115.46 557.98 116.57 557.959C122.579 557.85 126.112 554.465 127.645 550.938C128.184 549.698 128.717 548.443 129.176 547.312C130.939 542.966 132.946 537.936 132.946 537.936C132.946 537.936 141.601 515.116 142.103 502.784Z" fill="url(#paint13_radial_3_19)"/>
<path fill-rule="evenodd" clip-rule="evenodd" d="M305.924 101.655C316.599 91.3788 317.823 85.238 319.638 75.614C322.434 60.7893 312.511 39.5704 293.601 36.0043C281.445 33.7119 272.043 36.7315 266.878 39.1808C265.989 39.6022 265.225 40.0068 264.595 40.3645C261.743 41.6787 263.099 41.9253 260.978 39.7215C260.518 39.1533 259.948 38.4885 259.263 37.7598C255.349 33.5974 247.688 27.3461 235.515 25.0503C216.605 21.4843 199.635 37.6316 196.839 52.4563C194.044 67.2811 198.316 83.2296 208.911 96.4827C219.507 109.736 226.732 117.83 234.79 125.157C236.047 126.299 237.153 127.319 238.125 128.227C243.386 133.14 249.238 133.149 253.487 131.368C254.981 130.742 256.481 130.097 257.815 129.499C262.943 127.199 268.848 124.509 268.848 124.509C268.848 124.509 295.249 111.932 305.924 101.655Z" fill="url(#paint14_radial_3_19)"/>
<path fill-rule="evenodd" clip-rule="evenodd" d="M40.1889 20.0095C47.9027 10.6898 48.3304 5.5955 48.9166 -2.37884C49.8196 -14.6626 39.8156 -30.9624 24.147 -32.1143C14.0746 -32.8547 6.72539 -29.5394 2.76065 -27.0769C2.07847 -26.6532 1.49649 -26.2547 1.01807 -25.9065C-1.17439 -24.5777 -0.0520251 -24.5025 -1.97575 -26.095C-2.40082 -26.5137 -2.92464 -27.0004 -3.54757 -27.5286C-7.10535 -30.5449 -13.8958 -34.9108 -23.983 -35.6523C-39.6515 -36.8041 -51.9315 -22.1424 -52.8345 -9.85865C-53.7375 2.42509 -48.8031 14.9697 -38.9876 24.7455C-29.172 34.5214 -22.5649 40.4219 -15.3533 45.6242C-14.2288 46.4354 -13.2379 47.1609 -12.3658 47.8078C-7.6451 51.309 -2.89728 50.7775 0.385467 48.9415C1.53977 48.2959 2.6979 47.6347 3.72499 47.0266C7.67303 44.6891 12.2156 41.9628 12.2156 41.9628C12.2156 41.9628 32.4751 29.3292 40.1889 20.0095Z" fill="url(#paint15_radial_3_19)"/>
<path fill-rule="evenodd" clip-rule="evenodd" d="M566.713 -12.3587C577.336 -18.1472 579.625 -22.7184 583.131 -29.9047C588.531 -40.9746 585.296 -59.824 571.176 -66.7123C562.099 -71.1404 554.044 -70.7916 549.448 -69.9775C548.658 -69.8374 547.969 -69.6836 547.396 -69.538C544.867 -69.1185 545.881 -68.6318 544.686 -70.8248C544.447 -71.3714 544.141 -72.0179 543.759 -72.7396C541.576 -76.8615 536.892 -83.437 527.802 -87.8716C513.682 -94.7599 496.835 -85.7072 491.435 -74.6373C486.034 -63.5674 485.957 -50.0874 491.44 -37.3655C496.923 -24.6435 500.867 -16.7113 505.631 -9.20288C506.373 -8.03204 507.024 -6.99039 507.593 -6.06593C510.676 -1.06199 515.282 0.207745 519.012 -0.277843C520.323 -0.448588 521.644 -0.632333 522.824 -0.815519C527.357 -1.51968 532.587 -2.36399 532.587 -2.36399C532.587 -2.36399 556.09 -6.57026 566.713 -12.3587Z" fill="url(#paint16_radial_3_19)"/>
<path d="M1809.27 410.447C1805.18 426.53 1816.77 435.434 1823.07 437.876C1830.91 439.239 1834.49 432.594 1834.66 426.972C1834.83 421.349 1831.76 411.128 1829.72 404.313C1827.67 397.498 1814.38 390.343 1809.27 410.447Z" fill="url(#paint17_radial_3_19)"/>
<path d="M1811.15 497.164C1804.06 493.348 1807.97 478.31 1810.81 471.268C1811.15 460.024 1817.96 457.979 1823.58 458.149C1829.21 458.32 1830.06 467.349 1831.08 470.757C1832.1 474.164 1828.35 486.431 1825.97 490.86C1823.58 495.29 1820.01 501.934 1811.15 497.164Z" fill="url(#paint18_radial_3_19)"/>
<path d="M1791.05 529.194C1795 517.609 1802.69 516.416 1806.04 517.268C1813.87 518.631 1812.51 526.468 1812.17 537.712C1811.83 548.956 1799.39 550.831 1797.18 549.638C1794.96 548.446 1786.11 543.676 1791.05 529.194Z" fill="url(#paint19_radial_3_19)"/>
<path d="M1653.22 99.2084C1661.96 113.313 1676.41 111.15 1682.54 108.306C1688.96 103.608 1686.66 96.4216 1682.73 92.3976C1678.8 88.3736 1669.31 83.4882 1662.99 80.2314C1656.66 76.9746 1642.29 81.5779 1653.22 99.2084Z" fill="url(#paint20_radial_3_19)"/>
<path d="M1716.96 158.034C1709.29 160.489 1701.18 147.241 1698.08 140.31C1690.22 132.262 1693.47 125.936 1697.5 122.006C1701.52 118.076 1708.61 123.729 1711.78 125.357C1714.94 126.985 1721.17 138.196 1722.71 142.987C1724.24 147.779 1726.54 154.966 1716.96 158.034Z" fill="url(#paint21_radial_3_19)"/>
<path d="M1726.07 194.736C1720.47 183.851 1724.95 177.486 1727.89 175.665C1734.31 170.968 1739.01 177.387 1746.87 185.435C1754.73 193.483 1747.44 203.739 1745.05 204.506C1742.65 205.273 1733.07 208.342 1726.07 194.736Z" fill="url(#paint22_radial_3_19)"/>
<path d="M149.869 264.279C158.97 250.402 150.913 238.212 145.747 233.852C138.78 230.012 133.235 235.131 131.245 240.392C129.254 245.653 128.827 256.316 128.542 263.425C128.258 270.534 138.494 281.625 149.869 264.279Z" fill="url(#paint23_radial_3_19)"/>
<path d="M176.318 181.672C181.778 187.587 173.19 200.535 168.213 206.269C164.232 216.791 157.123 216.506 151.862 214.515C146.601 212.525 148.734 203.709 148.876 200.155C149.019 196.6 156.555 186.221 160.251 182.809C163.948 179.397 169.494 174.278 176.318 181.672Z" fill="url(#paint24_radial_3_19)"/>
<path d="M205.751 157.928C198.243 167.596 190.584 166.222 187.693 164.326C180.726 160.487 184.566 153.52 188.547 142.999C192.528 132.477 204.898 134.752 206.604 136.601C208.31 138.449 215.135 145.843 205.751 157.928Z" fill="url(#paint25_radial_3_19)"/>
<path d="M232.403 547.281C225.537 532.174 210.928 532.469 204.482 534.505C197.513 538.342 198.877 545.764 202.259 550.258C205.642 554.752 214.427 560.812 220.283 564.851C226.14 568.891 240.985 566.166 232.403 547.281Z" fill="url(#paint26_radial_3_19)"/>
<path d="M164.295 468.789C172.212 467.336 178.566 481.514 180.754 488.785C187.519 497.773 183.479 503.63 178.985 507.012C174.491 510.395 168.18 503.881 165.252 501.861C162.323 499.841 157.578 487.925 156.67 482.977C155.761 478.028 154.399 470.606 164.295 468.789Z" fill="url(#paint27_radial_3_19)"/>
<path d="M160.918 431.094C165.078 442.607 159.823 448.345 156.675 449.776C149.707 453.612 145.87 446.644 139.105 437.656C132.34 428.668 140.874 419.429 143.348 418.975C145.822 418.521 155.719 416.704 160.918 431.094Z" fill="url(#paint28_radial_3_19)"/>
<path d="M1910.96 -18.434C1919.71 -4.32966 1934.16 -6.49243 1940.29 -9.33685C1946.71 -14.0342 1944.41 -21.2208 1940.48 -25.2448C1936.55 -29.2688 1927.06 -34.1542 1920.73 -37.411C1914.41 -40.6678 1900.03 -36.0645 1910.96 -18.434Z" fill="url(#paint29_radial_3_19)"/>
<path d="M1974.7 40.3919C1967.04 42.847 1958.92 29.5986 1955.82 22.6675C1947.96 14.6194 1951.22 8.29379 1955.24 4.36376C1959.27 0.433729 1966.36 6.08616 1969.52 7.71457C1972.68 9.34297 1978.92 20.5538 1980.45 25.345C1981.99 30.1363 1984.29 37.3231 1974.7 40.3919Z" fill="url(#paint30_radial_3_19)"/>
<path d="M1983.82 77.0934C1978.22 66.2082 1982.69 59.844 1985.63 58.0225C1992.05 53.3252 1996.75 59.7448 2004.61 67.7929C2012.47 75.8409 2005.19 86.0966 2002.79 86.8638C2000.4 87.631 1990.82 90.6999 1983.82 77.0934Z" fill="url(#paint31_radial_3_19)"/>
<path d="M50.7376 591.372C57.4008 600.066 58.104 610.715 52.3083 615.157C46.5125 619.599 36.4125 616.153 29.7493 607.459C23.0861 598.765 22.3828 588.116 28.1786 583.674C33.9744 579.232 44.0744 582.679 50.7376 591.372Z" fill="url(#paint32_radial_3_19)"/>
<path d="M128.857 62.4746C127.855 73.3821 121.148 81.683 113.876 81.0151C106.604 80.3472 101.522 70.9634 102.524 60.0558C103.525 49.1483 110.232 40.8474 117.504 41.5154C124.776 42.1833 129.859 51.567 128.857 62.4746Z" fill="url(#paint33_radial_3_19)"/>
<path d="M391.745 5.86135C383.809 13.4107 372.941 14.8697 367.472 9.12009C362.003 3.37046 364.003 -7.41053 371.939 -14.9599C379.875 -22.5093 390.743 -23.9683 396.212 -18.2187C401.681 -12.469 399.681 -1.68803 391.745 5.86135Z" fill="url(#paint34_radial_3_19)"/>
<path d="M359.9 535.75C351.195 529.102 348.042 518.6 352.859 512.293C357.675 505.986 368.637 506.263 377.342 512.911C386.047 519.56 389.199 530.062 384.383 536.368C379.567 542.675 368.605 542.398 359.9 535.75Z" fill="url(#paint35_radial_3_19)"/>
<path fill-rule="evenodd" clip-rule="evenodd" d="M1960.79 339.158C1968.51 329.838 1968.94 324.744 1969.52 316.769C1970.42 304.486 1960.42 288.186 1944.75 287.034C1934.68 286.293 1927.33 289.609 1923.37 292.071C1922.68 292.495 1922.1 292.893 1921.62 293.242C1919.43 294.57 1920.55 294.646 1918.63 293.053C1918.2 292.634 1917.68 292.148 1917.06 291.62C1913.5 288.603 1906.71 284.237 1896.62 283.496C1880.95 282.344 1868.67 297.006 1867.77 309.289C1866.87 321.573 1871.8 334.118 1881.62 343.894C1891.43 353.669 1898.04 359.57 1905.25 364.772C1906.38 365.584 1907.37 366.309 1908.24 366.956C1912.96 370.457 1917.71 369.926 1920.99 368.09C1922.15 367.444 1923.3 366.783 1924.33 366.175C1928.28 363.837 1932.82 361.111 1932.82 361.111C1932.82 361.111 1953.08 348.477 1960.79 339.158Z" fill="url(#paint36_radial_3_19)"/>
<path d="M1845.44 203.811C1836.74 197.163 1833.59 186.661 1838.4 180.355C1843.22 174.048 1854.18 174.325 1862.88 180.973C1871.59 187.621 1874.74 198.123 1869.93 204.43C1865.11 210.737 1854.15 210.46 1845.44 203.811Z" fill="url(#paint37_radial_3_19)"/>
<path fill-rule="evenodd" clip-rule="evenodd" d="M258.275 378.826C265.989 369.506 266.416 364.412 267.003 356.438C267.906 344.154 257.902 327.854 242.233 326.702C232.161 325.962 224.812 329.277 220.847 331.74C220.165 332.163 219.583 332.562 219.104 332.91C216.912 334.239 218.034 334.314 216.11 332.721C215.685 332.303 215.161 331.816 214.539 331.288C210.981 328.272 204.19 323.906 194.103 323.164C178.435 322.012 166.155 336.674 165.252 348.958C164.349 361.242 169.283 373.786 179.099 383.562C188.914 393.338 195.521 399.238 202.733 404.441C203.857 405.252 204.848 405.977 205.72 406.624C210.441 410.125 215.189 409.594 218.472 407.758C219.626 407.112 220.784 406.451 221.811 405.843C225.759 403.506 230.302 400.779 230.302 400.779C230.302 400.779 250.561 388.146 258.275 378.826Z" fill="url(#paint38_radial_3_19)"/>
</g>
<defs>
<radialGradient id="paint0_radial_3_19" cx="0" cy="0" r="1" gradientUnits="userSpaceOnUse" gradientTransform="translate(1045.11 315.143) rotate(90) scale(330.55 836.416)">
<stop/>
<stop offset="1" stop-color="#0F0F0F"/>
</radialGradient>
<radialGradient id="paint1_radial_3_19" cx="0" cy="0" r="1" gradientUnits="userSpaceOnUse" gradientTransform="translate(1045.11 315.143) rotate(90) scale(330.55 836.416)">
<stop/>
<stop offset="1" stop-color="#0F0F0F"/>
</radialGradient>
<radialGradient id="paint2_radial_3_19" cx="0" cy="0" r="1" gradientUnits="userSpaceOnUse" gradientTransform="translate(1045.11 315.143) rotate(90) scale(330.55 836.416)">
<stop/>
<stop offset="1" stop-color="#0F0F0F"/>
</radialGradient>
<radialGradient id="paint3_radial_3_19" cx="0" cy="0" r="1" gradientUnits="userSpaceOnUse" gradientTransform="translate(1045.11 315.143) rotate(90) scale(330.55 836.416)">
<stop/>
<stop offset="1" stop-color="#0F0F0F"/>
</radialGradient>
<radialGradient id="paint4_radial_3_19" cx="0" cy="0" r="1" gradientUnits="userSpaceOnUse" gradientTransform="translate(1045.11 315.143) rotate(90) scale(330.55 836.416)">
<stop/>
<stop offset="1" stop-color="#0F0F0F"/>
</radialGradient>
<radialGradient id="paint5_radial_3_19" cx="0" cy="0" r="1" gradientUnits="userSpaceOnUse" gradientTransform="translate(1045.11 315.143) rotate(90) scale(330.55 836.416)">
<stop/>
<stop offset="1" stop-color="#0F0F0F"/>
</radialGradient>
<radialGradient id="paint6_radial_3_19" cx="0" cy="0" r="1" gradientUnits="userSpaceOnUse" gradientTransform="translate(1045.11 315.143) rotate(90) scale(330.55 836.416)">
<stop/>
<stop offset="1" stop-color="#0F0F0F"/>
</radialGradient>
<radialGradient id="paint7_radial_3_19" cx="0" cy="0" r="1" gradientUnits="userSpaceOnUse" gradientTransform="translate(1045.11 315.143) rotate(90) scale(330.55 836.416)">
<stop/>
<stop offset="1" stop-color="#0F0F0F"/>
</radialGradient>
<radialGradient id="paint8_radial_3_19" cx="0" cy="0" r="1" gradientUnits="userSpaceOnUse" gradientTransform="translate(1045.11 315.143) rotate(90) scale(330.55 836.416)">
<stop/>
<stop offset="1" stop-color="#0F0F0F"/>
</radialGradient>
<radialGradient id="paint9_radial_3_19" cx="0" cy="0" r="1" gradientUnits="userSpaceOnUse" gradientTransform="translate(1045.11 315.143) rotate(90) scale(330.55 836.416)">
<stop/>
<stop offset="1" stop-color="#0F0F0F"/>
</radialGradient>
<radialGradient id="paint10_radial_3_19" cx="0" cy="0" r="1" gradientUnits="userSpaceOnUse" gradientTransform="translate(1045.11 315.143) rotate(90) scale(330.55 836.416)">
<stop/>
<stop offset="1" stop-color="#0F0F0F"/>
</radialGradient>
<radialGradient id="paint11_radial_3_19" cx="0" cy="0" r="1" gradientUnits="userSpaceOnUse" gradientTransform="translate(1045.11 315.143) rotate(90) scale(330.55 836.416)">
<stop/>
<stop offset="1" stop-color="#0F0F0F"/>
</radialGradient>
<radialGradient id="paint12_radial_3_19" cx="0" cy="0" r="1" gradientUnits="userSpaceOnUse" gradientTransform="translate(1045.11 315.143) rotate(90) scale(330.55 836.416)">
<stop/>
<stop offset="1" stop-color="#0F0F0F"/>
</radialGradient>
<radialGradient id="paint13_radial_3_19" cx="0" cy="0" r="1" gradientUnits="userSpaceOnUse" gradientTransform="translate(1045.11 315.143) rotate(90) scale(330.55 836.416)">
<stop/>
<stop offset="1" stop-color="#0F0F0F"/>
</radialGradient>
<radialGradient id="paint14_radial_3_19" cx="0" cy="0" r="1" gradientUnits="userSpaceOnUse" gradientTransform="translate(1045.11 315.143) rotate(90) scale(330.55 836.416)">
<stop/>
<stop offset="1" stop-color="#0F0F0F"/>
</radialGradient>
<radialGradient id="paint15_radial_3_19" cx="0" cy="0" r="1" gradientUnits="userSpaceOnUse" gradientTransform="translate(1045.11 315.143) rotate(90) scale(330.55 836.416)">
<stop/>
<stop offset="1" stop-color="#0F0F0F"/>
</radialGradient>
<radialGradient id="paint16_radial_3_19" cx="0" cy="0" r="1" gradientUnits="userSpaceOnUse" gradientTransform="translate(1045.11 315.143) rotate(90) scale(330.55 836.416)">
<stop/>
<stop offset="1" stop-color="#0F0F0F"/>
</radialGradient>
<radialGradient id="paint17_radial_3_19" cx="0" cy="0" r="1" gradientUnits="userSpaceOnUse" gradientTransform="translate(1045.11 315.143) rotate(90) scale(330.55 836.416)">
<stop/>
<stop offset="1" stop-color="#0F0F0F"/>
</radialGradient>
<radialGradient id="paint18_radial_3_19" cx="0" cy="0" r="1" gradientUnits="userSpaceOnUse" gradientTransform="translate(1045.11 315.143) rotate(90) scale(330.55 836.416)">
<stop/>
<stop offset="1" stop-color="#0F0F0F"/>
</radialGradient>
<radialGradient id="paint19_radial_3_19" cx="0" cy="0" r="1" gradientUnits="userSpaceOnUse" gradientTransform="translate(1045.11 315.143) rotate(90) scale(330.55 836.416)">
<stop/>
<stop offset="1" stop-color="#0F0F0F"/>
</radialGradient>
<radialGradient id="paint20_radial_3_19" cx="0" cy="0" r="1" gradientUnits="userSpaceOnUse" gradientTransform="translate(1045.11 315.143) rotate(90) scale(330.55 836.416)">
<stop/>
<stop offset="1" stop-color="#0F0F0F"/>
</radialGradient>
<radialGradient id="paint21_radial_3_19" cx="0" cy="0" r="1" gradientUnits="userSpaceOnUse" gradientTransform="translate(1045.11 315.143) rotate(90) scale(330.55 836.416)">
<stop/>
<stop offset="1" stop-color="#0F0F0F"/>
</radialGradient>
<radialGradient id="paint22_radial_3_19" cx="0" cy="0" r="1" gradientUnits="userSpaceOnUse" gradientTransform="translate(1045.11 315.143) rotate(90) scale(330.55 836.416)">
<stop/>
<stop offset="1" stop-color="#0F0F0F"/>
</radialGradient>
<radialGradient id="paint23_radial_3_19" cx="0" cy="0" r="1" gradientUnits="userSpaceOnUse" gradientTransform="translate(1045.11 315.143) rotate(90) scale(330.55 836.416)">
<stop/>
<stop offset="1" stop-color="#0F0F0F"/>
</radialGradient>
<radialGradient id="paint24_radial_3_19" cx="0" cy="0" r="1" gradientUnits="userSpaceOnUse" gradientTransform="translate(1045.11 315.143) rotate(90) scale(330.55 836.416)">
<stop/>
<stop offset="1" stop-color="#0F0F0F"/>
</radialGradient>
<radialGradient id="paint25_radial_3_19" cx="0" cy="0" r="1" gradientUnits="userSpaceOnUse" gradientTransform="translate(1045.11 315.143) rotate(90) scale(330.55 836.416)">
<stop/>
<stop offset="1" stop-color="#0F0F0F"/>
</radialGradient>
<radialGradient id="paint26_radial_3_19" cx="0" cy="0" r="1" gradientUnits="userSpaceOnUse" gradientTransform="translate(1045.11 315.143) rotate(90) scale(330.55 836.416)">
<stop/>
<stop offset="1" stop-color="#0F0F0F"/>
</radialGradient>
<radialGradient id="paint27_radial_3_19" cx="0" cy="0" r="1" gradientUnits="userSpaceOnUse" gradientTransform="translate(1045.11 315.143) rotate(90) scale(330.55 836.416)">
<stop/>
<stop offset="1" stop-color="#0F0F0F"/>
</radialGradient>
<radialGradient id="paint28_radial_3_19" cx="0" cy="0" r="1" gradientUnits="userSpaceOnUse" gradientTransform="translate(1045.11 315.143) rotate(90) scale(330.55 836.416)">
<stop/>
<stop offset="1" stop-color="#0F0F0F"/>
</radialGradient>
<radialGradient id="paint29_radial_3_19" cx="0" cy="0" r="1" gradientUnits="userSpaceOnUse" gradientTransform="translate(1045.11 315.143) rotate(90) scale(330.55 836.416)">
<stop/>
<stop offset="1" stop-color="#0F0F0F"/>
</radialGradient>
<radialGradient id="paint30_radial_3_19" cx="0" cy="0" r="1" gradientUnits="userSpaceOnUse" gradientTransform="translate(1045.11 315.143) rotate(90) scale(330.55 836.416)">
<stop/>
<stop offset="1" stop-color="#0F0F0F"/>
</radialGradient>
<radialGradient id="paint31_radial_3_19" cx="0" cy="0" r="1" gradientUnits="userSpaceOnUse" gradientTransform="translate(1045.11 315.143) rotate(90) scale(330.55 836.416)">
<stop/>
<stop offset="1" stop-color="#0F0F0F"/>
</radialGradient>
<radialGradient id="paint32_radial_3_19" cx="0" cy="0" r="1" gradientUnits="userSpaceOnUse" gradientTransform="translate(1045.11 315.143) rotate(90) scale(330.55 836.416)">
<stop/>
<stop offset="1" stop-color="#0F0F0F"/>
</radialGradient>
<radialGradient id="paint33_radial_3_19" cx="0" cy="0" r="1" gradientUnits="userSpaceOnUse" gradientTransform="translate(1045.11 315.143) rotate(90) scale(330.55 836.416)">
<stop/>
<stop offset="1" stop-color="#0F0F0F"/>
</radialGradient>
<radialGradient id="paint34_radial_3_19" cx="0" cy="0" r="1" gradientUnits="userSpaceOnUse" gradientTransform="translate(1045.11 315.143) rotate(90) scale(330.55 836.416)">
<stop/>
<stop offset="1" stop-color="#0F0F0F"/>
</radialGradient>
<radialGradient id="paint35_radial_3_19" cx="0" cy="0" r="1" gradientUnits="userSpaceOnUse" gradientTransform="translate(1045.11 315.143) rotate(90) scale(330.55 836.416)">
<stop/>
<stop offset="1" stop-color="#0F0F0F"/>
</radialGradient>
<radialGradient id="paint36_radial_3_19" cx="0" cy="0" r="1" gradientUnits="userSpaceOnUse" gradientTransform="translate(1045.11 315.143) rotate(90) scale(330.55 836.416)">
<stop/>
<stop offset="1" stop-color="#0F0F0F"/>
</radialGradient>
<radialGradient id="paint37_radial_3_19" cx="0" cy="0" r="1" gradientUnits="userSpaceOnUse" gradientTransform="translate(1045.11 315.143) rotate(90) scale(330.55 836.416)">
<stop/>
<stop offset="1" stop-color="#0F0F0F"/>
</radialGradient>
<radialGradient id="paint38_radial_3_19" cx="0" cy="0" r="1" gradientUnits="userSpaceOnUse" gradientTransform="translate(1045.11 315.143) rotate(90) scale(330.55 836.416)">
<stop/>
<stop offset="1" stop-color="#0F0F0F"/>
</radialGradient>
</defs>
</svg>
