<svg width="3380" height="1106" viewBox="0 0 3380 1106" fill="none" xmlns="http://www.w3.org/2000/svg">
<mask id="mask0_39_775" style="mask-type:alpha" maskUnits="userSpaceOnUse" x="0" y="0" width="3380" height="1106">
<rect y="0.366699" width="3380" height="1105" fill="black"/>
</mask>
<g mask="url(#mask0_39_775)">
<rect y="0.366699" width="3380" height="1105" fill="black"/>
<path d="M2936.1 276.641C2933.31 274.335 2931.85 272.109 2931.1 268.904C2930.13 264.879 2930.89 260.248 2933.34 255.481C2934.25 253.675 2960.86 210.176 2967.4 199.815L2968.53 198.001L2960.85 145.266L2961.12 141.261C2961.4 136.602 2961.88 134.19 2963.11 131.049C2965.59 124.693 2970.67 120.642 2977.41 119.657C2979.94 119.313 2983.96 119.446 2986.96 120.011C2988.2 120.257 3001.62 123.347 3016.78 126.863L3044.36 133.301L3067.71 120.674C3080.54 113.753 3091.96 107.65 3093.09 107.137C3096.83 105.446 3102.04 104.435 3105.37 104.805C3108.94 105.2 3112.96 107.053 3115.33 109.419C3118.68 112.736 3121.03 117.918 3121.87 123.805C3122.02 124.836 3122.9 138.949 3123.81 155.161L3125.47 184.661L3143.68 202.99C3153.7 213.068 3162.43 221.984 3163.06 222.796C3169.48 230.908 3171.02 238.364 3167.81 245.601C3166.03 249.591 3161.13 254.104 3155.43 257.021C3154.3 257.588 3141.32 263.286 3126.56 269.652L3099.74 281.244L3087.59 305.352C3074.71 330.901 3074.59 331.163 3071.52 334.656C3067.68 339.007 3063.64 341.637 3059.44 342.536C3057.14 343.012 3053.41 342.768 3051.05 341.961C3047.7 340.858 3043.75 338.194 3040.81 335.084C3039.78 333.99 3025.75 317.104 3008.06 295.646C3005.43 292.437 3003.04 289.671 3002.75 289.503C3002.46 289.335 2990.87 287.634 2976.98 285.742C2963.09 283.85 2950.38 282.028 2948.74 281.662C2943.45 280.551 2938.46 278.555 2936.1 276.641Z" fill="url(#paint0_radial_39_775)"/>
<path d="M2933.58 667.505C2931.9 665.411 2931.17 663.575 2931.1 661.131C2930.99 658.059 2932.24 654.804 2934.73 651.702C2935.66 650.523 2961.51 622.849 2967.81 616.288L2968.9 615.137L2971.18 575.632L2971.97 572.759C2972.87 569.411 2973.58 567.728 2974.95 565.628C2977.7 561.374 2982 559.185 2987.05 559.474C2988.94 559.6 2991.84 560.296 2993.94 561.154C2994.81 561.518 3004.11 565.766 3014.61 570.585L3033.71 579.379L3052.58 573.676C3062.95 570.554 3072.16 567.817 3073.06 567.611C3076.04 566.94 3079.98 566.981 3082.34 567.747C3084.88 568.566 3087.53 570.514 3088.9 572.589C3090.84 575.5 3091.78 579.62 3091.51 584.027C3091.47 584.8 3090 595.197 3088.24 607.125L3085.05 628.83L3095.56 644.878C3101.35 653.703 3106.37 661.489 3106.71 662.175C3110.17 669.033 3110.17 674.685 3106.76 679.471C3104.87 682.108 3100.63 684.66 3096.05 685.932C3095.14 686.176 3084.85 688.385 3073.17 690.816L3051.93 695.248L3039.49 710.974C3026.32 727.639 3026.19 727.811 3023.43 729.894C3019.99 732.486 3016.66 733.797 3013.47 733.825C3011.73 733.829 3009.05 733.094 3007.45 732.155C3005.18 730.854 3002.71 728.327 3001.03 725.627C3000.45 724.678 2992.76 710.302 2983.1 692.058C2981.66 689.331 2980.33 686.963 2980.15 686.797C2979.96 686.632 2971.78 683.667 2961.96 680.22C2952.14 676.773 2943.17 673.553 2942.03 673.041C2938.35 671.445 2935.01 669.248 2933.58 667.505Z" fill="url(#paint1_radial_39_775)"/>
<path d="M2648.18 1031.66C2647.71 1029.89 2647.76 1028.54 2648.39 1027C2649.18 1025.05 2650.85 1023.36 2653.27 1022.11C2654.17 1021.63 2677.96 1011.5 2683.7 1009.15L2684.7 1008.73L2697.05 984.699L2698.34 983.123C2699.82 981.282 2700.73 980.427 2702.16 979.493C2705.06 977.598 2708.35 977.419 2711.42 978.995C2712.56 979.596 2714.19 980.833 2715.26 981.947C2715.7 982.414 2720.33 987.635 2725.56 993.546L2735.05 1004.31L2748.4 1005.97C2755.74 1006.88 2762.24 1007.72 2762.86 1007.84C2764.9 1008.24 2767.35 1009.35 2768.62 1010.49C2769.97 1011.7 2771.09 1013.65 2771.37 1015.32C2771.78 1017.67 2771.23 1020.5 2769.84 1023.18C2769.6 1023.65 2765.81 1029.74 2761.42 1036.7L2753.42 1049.36L2755.55 1062.29C2756.72 1069.39 2757.7 1075.64 2757.73 1076.16C2757.99 1081.4 2756.43 1084.93 2752.98 1086.97C2751.07 1088.1 2747.72 1088.52 2744.51 1088.05C2743.87 1087.95 2736.84 1086.49 2728.87 1084.78L2714.39 1081.67L2702.28 1088.06C2689.45 1094.82 2689.32 1094.89 2687.03 1095.43C2684.16 1096.1 2681.72 1096 2679.72 1095.13C2678.63 1094.65 2677.16 1093.45 2676.42 1092.43C2675.37 1090.99 2674.52 1088.73 2674.22 1086.58C2674.12 1085.82 2673.29 1074.73 2672.3 1060.67C2672.16 1058.57 2671.99 1056.72 2671.92 1056.57C2671.85 1056.41 2667.56 1052.3 2662.38 1047.44C2657.21 1042.57 2652.49 1038.09 2651.92 1037.45C2650.07 1035.44 2648.59 1033.15 2648.18 1031.66Z" fill="url(#paint2_radial_39_775)"/>
<path fill-rule="evenodd" clip-rule="evenodd" d="M3014.2 1121.25C3032.15 1111.47 3036.02 1103.75 3041.95 1091.61C3051.07 1072.91 3045.61 1041.06 3021.74 1029.42C3006.4 1021.94 2992.79 1022.53 2985.02 1023.9C2983.69 1024.14 2982.52 1024.4 2981.55 1024.65C2977.28 1025.36 2978.99 1026.18 2976.97 1022.47C2976.57 1021.55 2976.05 1020.46 2975.41 1019.24C2971.72 1012.27 2963.8 1001.16 2948.44 993.671C2924.58 982.033 2896.11 997.328 2886.98 1016.03C2877.85 1034.73 2877.72 1057.51 2886.99 1079C2896.26 1100.5 2902.92 1113.9 2910.97 1126.59C2912.23 1128.56 2913.33 1130.32 2914.29 1131.89C2919.5 1140.34 2927.28 1142.49 2933.58 1141.67C2935.8 1141.38 2938.03 1141.07 2940.03 1140.76C2947.69 1139.57 2956.53 1138.14 2956.53 1138.14C2956.53 1138.14 2996.25 1131.03 3014.2 1121.25Z" fill="url(#paint3_radial_39_775)"/>
<path fill-rule="evenodd" clip-rule="evenodd" d="M3379.51 1032.97C3400.55 1021.51 3405.08 1012.46 3412.02 998.233C3422.71 976.319 3416.31 939.005 3388.35 925.369C3370.38 916.603 3354.43 917.294 3345.33 918.905C3343.76 919.182 3342.4 919.487 3341.26 919.775C3336.25 920.606 3338.26 921.569 3335.9 917.228C3335.42 916.146 3334.82 914.866 3334.06 913.437C3329.74 905.278 3320.46 892.261 3302.46 883.482C3274.5 869.846 3241.15 887.767 3230.45 909.681C3219.76 931.595 3219.61 958.28 3230.46 983.464C3241.32 1008.65 3249.13 1024.35 3258.56 1039.21C3260.03 1041.53 3261.32 1043.59 3262.45 1045.42C3268.55 1055.33 3277.67 1057.84 3285.06 1056.88C3287.65 1056.54 3290.27 1056.18 3292.61 1055.82C3301.58 1054.42 3311.94 1052.75 3311.94 1052.75C3311.94 1052.75 3358.48 1044.43 3379.51 1032.97Z" fill="url(#paint4_radial_39_775)"/>
<path fill-rule="evenodd" clip-rule="evenodd" d="M2914.37 -14.3056C2918.89 -34.2384 2915.65 -42.2456 2910.46 -54.7159C2902.45 -73.9253 2874.93 -90.8746 2850.42 -80.6656C2834.67 -74.1027 2826.11 -63.5011 2822.01 -56.7654C2821.31 -55.6065 2820.73 -54.562 2820.28 -53.6722C2817.98 -49.9973 2819.73 -50.7396 2815.62 -51.674C2814.66 -51.9812 2813.5 -52.3157 2812.15 -52.6371C2804.49 -54.4725 2790.92 -55.8783 2775.14 -49.3059C2750.63 -39.0968 2743.29 -7.62816 2751.3 11.5813C2759.3 30.7907 2776.31 45.9429 2798.57 53.1993C2820.83 60.4556 2835.29 64.3149 2850.13 66.6606C2852.45 67.0263 2854.5 67.3649 2856.31 67.6752C2866.1 69.3551 2872.85 64.9341 2876.4 59.663C2877.65 57.8096 2878.89 55.9298 2879.98 54.2299C2884.15 47.6954 2888.92 40.1216 2888.92 40.1216C2888.92 40.1216 2909.84 5.62721 2914.37 -14.3056Z" fill="url(#paint5_radial_39_775)"/>
<path d="M3239.27 450.166C3236.48 447.861 3235.02 445.634 3234.27 442.429C3233.3 438.404 3234.06 433.774 3236.51 429.007C3237.41 427.201 3264.03 383.701 3270.57 373.341L3271.7 371.527L3264.02 318.792L3264.29 314.787C3264.57 310.127 3265.05 307.716 3266.28 304.575C3268.76 298.219 3273.84 294.168 3280.58 293.183C3283.11 292.839 3287.13 292.971 3290.13 293.537C3291.37 293.783 3304.79 296.872 3319.95 300.388L3347.53 306.826L3370.88 294.2C3383.71 287.278 3395.13 281.176 3396.26 280.662C3400 278.972 3405.21 277.96 3408.54 278.331C3412.11 278.726 3416.13 280.578 3418.5 282.945C3421.85 286.262 3424.2 291.444 3425.04 297.331C3425.19 298.361 3426.07 312.475 3426.98 328.686L3428.64 358.187L3446.85 376.515C3456.87 386.594 3465.6 395.51 3466.23 396.322C3472.65 404.434 3474.19 411.889 3470.98 419.126C3469.2 423.116 3464.3 427.629 3458.6 430.547C3457.47 431.114 3444.48 436.811 3429.73 443.178L3402.91 454.769L3390.75 478.878C3377.88 504.427 3377.76 504.688 3374.69 508.182C3370.85 512.533 3366.81 515.162 3362.61 516.062C3360.31 516.538 3356.57 516.294 3354.22 515.487C3350.87 514.384 3346.92 511.719 3343.98 508.609C3342.95 507.516 3328.92 490.63 3311.23 469.172C3308.6 465.962 3306.21 463.197 3305.92 463.029C3305.63 462.861 3294.04 461.16 3280.15 459.268C3266.26 457.376 3253.55 455.554 3251.91 455.187C3246.62 454.077 3241.63 452.081 3239.27 450.166Z" fill="url(#paint6_radial_39_775)"/>
<path d="M289.709 1098.01C286.915 1095.7 285.459 1093.47 284.707 1090.27C283.736 1086.24 284.499 1081.61 286.948 1076.85C287.852 1075.04 314.469 1031.54 321.006 1021.18L322.136 1019.37L314.459 966.632L314.722 962.627C315.004 957.967 315.483 955.556 316.715 952.415C319.195 946.059 324.276 942.008 331.02 941.023C333.545 940.679 337.567 940.811 340.564 941.377C341.806 941.623 355.225 944.712 370.391 948.228L397.965 954.666L421.318 942.04C434.149 935.118 445.566 929.015 446.693 928.502C450.439 926.812 455.648 925.8 458.978 926.17C462.544 926.566 466.569 928.418 468.941 930.785C472.287 934.102 474.639 939.284 475.476 945.171C475.629 946.201 476.506 960.315 477.417 976.526L479.073 1006.03L497.288 1024.36C507.307 1034.43 516.032 1043.35 516.671 1044.16C523.091 1052.27 524.628 1059.73 521.418 1066.97C519.64 1070.96 514.736 1075.47 509.035 1078.39C507.905 1078.95 494.922 1084.65 480.169 1091.02L453.342 1102.61L441.192 1126.72C428.32 1152.27 428.197 1152.53 425.127 1156.02C421.286 1160.37 417.247 1163 413.044 1163.9C410.748 1164.38 407.012 1164.13 404.653 1163.33C401.303 1162.22 397.358 1159.56 394.419 1156.45C393.389 1155.36 379.353 1138.47 361.671 1117.01C359.039 1113.8 356.648 1111.04 356.358 1110.87C356.067 1110.7 344.477 1109 330.588 1107.11C316.7 1105.22 303.989 1103.39 302.345 1103.03C297.06 1101.92 292.065 1099.92 289.709 1098.01Z" fill="url(#paint7_radial_39_775)"/>
<path d="M-40.0806 784.77C-41.775 783.372 -42.6578 782.022 -43.1137 780.079C-43.7025 777.639 -43.2396 774.831 -41.7551 771.941C-41.2067 770.846 -25.0683 744.47 -21.1047 738.188L-20.4192 737.089L-25.0742 705.114L-24.9144 702.685C-24.7436 699.86 -24.4532 698.398 -23.706 696.493C-22.2024 692.64 -19.1217 690.183 -15.0325 689.586C-13.5016 689.378 -11.0629 689.458 -9.2461 689.801C-8.49273 689.95 -0.356505 691.823 8.83925 693.955L25.5583 697.859L39.7181 690.203C47.4979 686.006 54.4202 682.306 55.1037 681.994C57.3746 680.97 60.533 680.356 62.5524 680.581C64.7143 680.82 67.1551 681.944 68.5932 683.379C70.622 685.39 72.048 688.532 72.5555 692.101C72.6481 692.726 73.1799 701.283 73.7326 711.113L74.7365 729L85.7808 740.113C91.8559 746.224 97.146 751.63 97.5333 752.123C101.426 757.041 102.358 761.562 100.412 765.95C99.3337 768.369 96.3598 771.105 92.9035 772.874C92.2181 773.218 84.3463 776.673 75.4008 780.533L59.1352 787.561L51.768 802.179C43.9635 817.67 43.8888 817.828 42.0274 819.947C39.6981 822.585 37.2494 824.179 34.7012 824.725C33.3088 825.013 31.0436 824.865 29.6136 824.376C27.5819 823.707 25.1904 822.092 23.4081 820.206C22.7836 819.543 14.2734 809.304 3.55227 796.294C1.95616 794.348 0.506682 792.671 0.330381 792.569C0.15408 792.467 -6.87315 791.436 -15.2944 790.289C-23.7156 789.141 -31.4226 788.037 -32.4192 787.814C-35.6235 787.141 -38.652 785.931 -40.0806 784.77Z" fill="url(#paint8_radial_39_775)"/>
<path d="M-89.3323 377.531C-90.4936 374.989 -90.7532 372.954 -90.1942 370.477C-89.511 367.357 -87.42 364.402 -84.1142 361.92C-82.8779 360.972 -49.7457 339.762 -41.7173 334.777L-40.3214 333.9L-27.8676 294.726L-26.3344 292.036C-24.568 288.899 -23.4226 287.387 -21.5087 285.623C-17.6453 282.049 -12.7544 280.951 -7.74345 282.54C-5.8758 283.152 -3.12994 284.599 -1.24179 286.001C-0.462718 286.591 7.80525 293.256 17.1417 300.806L34.1015 314.565L54.5604 313.675C65.796 313.196 75.7742 312.809 76.7293 312.833C79.8977 312.923 83.8527 313.976 86.0384 315.355C88.3789 316.831 90.5472 319.473 91.3947 321.914C92.5977 325.343 92.4823 329.73 91.0781 334.097C90.8366 334.863 86.6867 344.95 81.8531 356.505L73.0556 377.529L79.513 396.383C83.0661 406.752 86.1131 415.878 86.2825 416.656C88.0014 424.448 86.5544 430.138 81.8873 434.077C79.3086 436.246 74.3842 437.724 69.4458 437.828C68.4704 437.84 57.5422 437.418 45.1602 436.863L22.6405 435.865L6.08242 448.497C-11.4617 461.885 -11.6354 462.024 -14.943 463.414C-19.0752 465.137 -22.7636 465.601 -25.9827 464.809C-27.7363 464.365 -30.2459 462.937 -31.61 461.582C-33.563 459.688 -35.401 456.51 -36.3917 453.362C-36.7377 452.256 -40.7819 435.811 -45.8146 414.966C-46.5587 411.852 -47.2848 409.128 -47.4299 408.913C-47.5751 408.699 -55.0422 403.613 -64.04 397.62C-73.0378 391.627 -81.2421 386.08 -82.2587 385.272C-85.5508 382.721 -88.3431 379.652 -89.3323 377.531Z" fill="url(#paint9_radial_39_775)"/>
<path d="M201.155 20.1016C199.994 17.5602 199.734 15.5252 200.293 13.048C200.976 9.92851 203.067 6.97308 206.373 4.49095C207.609 3.54286 240.742 -17.6669 248.77 -22.6519L250.166 -23.5293L262.62 -62.703L264.153 -65.3926C265.919 -68.5303 267.065 -70.0421 268.979 -71.8059C272.842 -75.3799 277.733 -76.4782 282.744 -74.8888C284.611 -74.2767 287.357 -72.8296 289.245 -71.4274C290.025 -70.838 298.292 -64.1727 307.629 -56.6226L324.589 -42.8641L345.048 -43.7544C356.283 -44.2326 366.261 -44.6194 367.217 -44.5957C370.385 -44.5063 374.34 -43.453 376.526 -42.0736C378.866 -40.5978 381.034 -37.9561 381.882 -35.515C383.085 -32.0862 382.97 -27.6985 381.565 -23.332C381.324 -22.5658 377.174 -12.4787 372.34 -0.924192L363.543 20.1003L370 38.9544C373.553 49.3232 376.6 58.4489 376.77 59.2275C378.489 67.0188 377.042 72.7093 372.375 76.6484C369.796 78.8173 364.871 80.2955 359.933 80.3987C358.958 80.4111 348.029 79.9892 335.647 79.4343L313.128 78.4363L296.57 91.0678C279.026 104.456 278.852 104.595 275.544 105.985C271.412 107.709 267.724 108.172 264.505 107.38C262.751 106.936 260.241 105.508 258.877 104.153C256.924 102.259 255.086 99.0813 254.095 95.9332C253.749 94.8275 249.705 78.3824 244.673 57.5372C243.929 54.4232 243.202 51.6989 243.057 51.4845C242.912 51.2701 235.445 46.1843 226.447 40.1914C217.449 34.1985 209.245 28.6512 208.228 27.8429C204.936 25.2916 202.144 22.2236 201.155 20.1016Z" fill="url(#paint10_radial_39_775)"/>
<path d="M170.841 553.176C170.197 551.451 170.122 550.102 170.606 548.5C171.202 546.483 172.714 544.639 175.003 543.163C175.86 542.598 198.627 530.217 204.136 527.318L205.095 526.807L215.118 501.651L216.252 499.956C217.56 497.977 218.383 497.037 219.724 495.968C222.43 493.801 225.696 493.309 228.914 494.588C230.112 495.078 231.848 496.158 233.023 497.168C233.507 497.592 238.627 502.36 244.408 507.759L254.905 517.596L268.391 517.971C275.796 518.184 282.371 518.399 282.997 518.459C285.075 518.667 287.624 519.544 288.995 520.553C290.464 521.633 291.765 523.471 292.207 525.114C292.836 527.424 292.555 530.302 291.427 533.105C291.232 533.597 288.031 540.03 284.313 547.396L277.545 560.798L280.902 573.49C282.75 580.47 284.323 586.609 284.398 587.129C285.162 592.329 283.944 596 280.692 598.369C278.896 599.673 275.59 600.414 272.341 600.25C271.699 600.212 264.538 599.422 256.428 598.476L241.678 596.763L230.204 604.286C218.047 612.259 217.927 612.343 215.688 613.101C212.892 614.039 210.446 614.171 208.368 613.499C207.237 613.125 205.655 612.069 204.822 611.115C203.628 609.778 202.569 607.604 202.066 605.489C201.891 604.746 200.006 593.75 197.678 579.817C197.335 577.736 196.986 575.912 196.901 575.764C196.815 575.616 192.148 571.924 186.517 567.564C180.886 563.204 175.756 559.173 175.126 558.595C173.082 556.764 171.391 554.617 170.841 553.176Z" fill="url(#paint11_radial_39_775)"/>
<path d="M2538.52 57.7311C2537.87 56.0066 2537.8 54.6573 2538.28 53.0558C2538.88 51.0381 2540.39 49.1942 2542.68 47.7184C2543.54 47.1535 2566.3 34.7721 2571.81 31.8733L2572.77 31.3623L2582.8 6.20637L2583.93 4.511C2585.24 2.53215 2586.06 1.59252 2587.4 0.5234C2590.11 -1.64367 2593.37 -2.13576 2596.59 -0.85617C2597.79 -0.366271 2599.53 0.713498 2600.7 1.72346C2601.18 2.14732 2606.3 6.91514 2612.08 12.3145L2622.58 22.1512L2636.07 22.5266C2643.47 22.7398 2650.05 22.954 2650.67 23.0144C2652.75 23.2219 2655.3 24.0997 2656.67 25.1087C2658.14 26.1882 2659.44 28.0259 2659.88 29.6697C2660.51 31.9791 2660.23 34.8568 2659.1 37.6601C2658.91 38.1522 2655.71 44.5856 2651.99 51.951L2645.22 65.353L2648.58 78.045C2650.43 85.0249 2652 91.1644 2652.08 91.684C2652.84 96.8842 2651.62 100.555 2648.37 102.925C2646.57 104.229 2643.27 104.969 2640.02 104.805C2639.38 104.767 2632.22 103.977 2624.11 103.031L2609.35 101.318L2597.88 108.841C2585.72 116.815 2585.6 116.898 2583.37 117.656C2580.57 118.595 2578.12 118.726 2576.05 118.055C2574.91 117.681 2573.33 116.624 2572.5 115.67C2571.31 114.334 2570.25 112.159 2569.74 110.044C2569.57 109.302 2567.68 98.3058 2565.36 84.3724C2565.01 82.2913 2564.66 80.4671 2564.58 80.3194C2564.49 80.1717 2559.83 76.4794 2554.19 72.1191C2548.56 67.7589 2543.43 63.7287 2542.8 63.1499C2540.76 61.3189 2539.07 59.1718 2538.52 57.7311Z" fill="url(#paint12_radial_39_775)"/>
<path fill-rule="evenodd" clip-rule="evenodd" d="M240.015 941.085C240.863 920.25 236.118 912.845 228.576 901.342C216.958 883.623 186.142 871.891 163.395 886.797C148.773 896.38 142.14 908.635 139.267 916.166C138.773 917.462 138.39 918.618 138.097 919.597C136.473 923.717 138.095 922.639 133.783 922.488C132.761 922.364 131.531 922.25 130.122 922.184C122.073 921.808 108.167 922.989 93.5233 932.585C70.7768 947.491 69.2431 980.422 80.8609 998.141C92.4787 1015.86 112.395 1027.8 136.123 1030.82C159.851 1033.84 175.111 1034.95 190.471 1034.47C192.866 1034.39 194.988 1034.34 196.864 1034.31C207.019 1034.12 212.99 1028.4 215.581 1022.44C216.492 1020.35 217.392 1018.23 218.168 1016.32C221.148 1008.97 224.539 1000.48 224.539 1000.48C224.539 1000.48 239.166 961.921 240.015 941.085Z" fill="url(#paint13_radial_39_775)"/>
<path fill-rule="evenodd" clip-rule="evenodd" d="M516.873 263.355C534.913 245.992 536.982 235.617 540.05 219.357C544.774 194.31 528.004 158.459 496.046 152.434C475.502 148.561 459.613 153.663 450.884 157.801C449.382 158.513 448.092 159.197 447.026 159.801C442.207 162.021 444.498 162.438 440.913 158.715C440.136 157.754 439.173 156.631 438.015 155.4C431.401 148.367 418.454 137.806 397.88 133.927C365.923 127.902 337.244 155.183 332.519 180.231C327.794 205.278 335.015 232.224 352.921 254.616C370.827 277.008 383.039 290.682 396.657 303.062C398.78 304.993 400.649 306.716 402.292 308.249C411.183 316.55 421.073 316.566 428.253 313.556C430.778 312.498 433.314 311.409 435.569 310.398C444.234 306.513 454.214 301.968 454.214 301.968C454.214 301.968 498.832 280.718 516.873 263.355Z" fill="url(#paint14_radial_39_775)"/>
<path fill-rule="evenodd" clip-rule="evenodd" d="M67.78 125.41C80.8162 109.664 81.539 101.057 82.5297 87.5836C84.0558 66.8295 67.149 39.29 40.6692 37.3439C23.6467 36.0929 11.2266 41.6942 4.52623 45.8549C3.37333 46.5708 2.38978 47.244 1.58125 47.8324C-2.124 50.0773 -0.227204 50.2043 -3.4783 47.5138C-4.19667 46.8064 -5.08193 45.984 -6.13467 45.0917C-12.1473 39.9955 -23.6232 32.619 -40.6705 31.3661C-67.1504 29.4201 -87.9035 54.1919 -89.4296 74.946C-90.9556 95.7001 -82.6165 116.895 -66.0282 133.412C-49.44 149.929 -38.274 159.898 -26.0864 168.687C-24.1859 170.058 -22.5113 171.284 -21.0374 172.377C-13.0595 178.292 -5.03569 177.394 0.512157 174.292C2.46293 173.201 4.42017 172.084 6.15594 171.057C12.8281 167.107 20.505 162.501 20.505 162.501C20.505 162.501 54.7437 141.156 67.78 125.41Z" fill="url(#paint15_radial_39_775)"/>
<path fill-rule="evenodd" clip-rule="evenodd" d="M957.606 70.722C975.559 60.9421 979.428 53.2188 985.352 41.0771C994.479 22.3739 989.011 -9.47319 965.148 -21.1114C949.808 -28.593 936.195 -28.0036 928.428 -26.6282C927.092 -26.3915 925.929 -26.1316 924.959 -25.8855C920.685 -25.1768 922.399 -24.3546 920.38 -28.0598C919.976 -28.9833 919.459 -30.0755 918.813 -31.2949C915.124 -38.259 907.209 -49.3687 891.846 -56.8612C867.983 -68.4994 839.512 -53.2043 830.385 -34.5011C821.259 -15.7979 821.129 6.97723 830.395 28.4717C839.661 49.9662 846.325 63.3682 854.376 76.054C855.632 78.0322 856.731 79.7921 857.694 81.354C862.904 89.8085 870.687 91.9538 876.991 91.1333C879.207 90.8449 881.439 90.5344 883.433 90.2249C891.095 89.0352 899.934 87.6087 899.934 87.6087C899.934 87.6087 939.653 80.5019 957.606 70.722Z" fill="url(#paint16_radial_39_775)"/>
<path d="M3057.53 785.076C3050.62 812.249 3070.2 827.293 3080.85 831.418C3094.1 833.721 3100.14 822.494 3100.43 812.995C3100.72 803.496 3095.54 786.226 3092.08 774.712C3088.63 763.198 3066.17 751.109 3057.53 785.076Z" fill="url(#paint17_radial_39_775)"/>
<path d="M3060.7 931.59C3048.72 925.142 3055.33 899.735 3060.12 887.837C3060.7 868.839 3072.22 865.384 3081.72 865.672C3091.22 865.96 3092.66 881.215 3094.39 886.972C3096.11 892.729 3089.78 913.454 3085.75 920.939C3081.72 928.423 3075.67 939.649 3060.7 931.59Z" fill="url(#paint18_radial_39_775)"/>
<path d="M3026.73 985.706C3033.41 966.132 3046.4 964.117 3052.06 965.556C3065.31 967.858 3063.01 981.099 3062.43 1000.1C3061.86 1019.1 3040.84 1022.26 3037.09 1020.25C3033.35 1018.23 3018.38 1010.17 3026.73 985.706Z" fill="url(#paint19_radial_39_775)"/>
<path d="M2793.8 259.221C2808.58 283.051 2833 279.397 2843.36 274.591C2854.21 266.655 2850.32 254.513 2843.68 247.714C2837.04 240.915 2821 232.661 2810.31 227.158C2799.62 221.656 2775.33 229.433 2793.8 259.221Z" fill="url(#paint20_radial_39_775)"/>
<path d="M2901.52 358.611C2888.57 362.759 2874.85 340.375 2869.61 328.664C2856.33 315.067 2861.83 304.379 2868.63 297.739C2875.43 291.099 2887.42 300.649 2892.76 303.4C2898.11 306.152 2908.64 325.093 2911.23 333.188C2913.83 341.283 2917.72 353.426 2901.52 358.611Z" fill="url(#paint21_radial_39_775)"/>
<path d="M2916.92 420.62C2907.46 402.229 2915.03 391.476 2919.99 388.398C2930.84 380.462 2938.78 391.308 2952.06 404.906C2965.35 418.504 2953.04 435.831 2948.99 437.127C2944.94 438.424 2928.75 443.609 2916.92 420.62Z" fill="url(#paint22_radial_39_775)"/>
<path d="M253.14 538.117C268.519 514.671 254.904 494.075 246.173 486.708C234.399 480.221 225.028 488.87 221.664 497.758C218.3 506.647 217.578 524.663 217.097 536.674C216.616 548.685 233.916 567.424 253.14 538.117Z" fill="url(#paint23_radial_39_775)"/>
<path d="M297.838 398.547C307.065 408.541 292.551 430.417 284.141 440.106C277.412 457.883 265.398 457.402 256.507 454.038C247.617 450.675 251.221 435.781 251.462 429.775C251.702 423.77 264.438 406.234 270.686 400.468C276.933 394.703 286.305 386.055 297.838 398.547Z" fill="url(#paint24_radial_39_775)"/>
<path d="M347.579 358.431C334.892 374.766 321.948 372.444 317.062 369.241C305.288 362.754 311.777 350.983 318.505 333.207C325.234 315.43 346.139 319.274 349.022 322.398C351.905 325.521 363.439 338.013 347.579 358.431Z" fill="url(#paint25_radial_39_775)"/>
<path d="M392.621 1016.27C381.018 990.74 356.329 991.239 345.435 994.679C333.658 1001.16 335.963 1013.7 341.679 1021.29C347.396 1028.89 362.242 1039.13 372.139 1045.95C382.037 1052.78 407.125 1048.17 392.621 1016.27Z" fill="url(#paint26_radial_39_775)"/>
<path d="M277.519 883.648C290.899 881.192 301.638 905.148 305.334 917.432C316.767 932.618 309.94 942.513 302.345 948.228C294.75 953.943 284.085 942.938 279.136 939.525C274.187 936.112 266.168 915.979 264.632 907.619C263.097 899.258 260.794 886.718 277.519 883.648Z" fill="url(#paint27_radial_39_775)"/>
<path d="M271.812 819.961C278.842 839.411 269.961 849.107 264.642 851.524C252.866 858.006 246.382 846.233 234.949 831.048C223.516 815.862 237.938 800.252 242.119 799.484C246.3 798.717 263.025 795.647 271.812 819.961Z" fill="url(#paint28_radial_39_775)"/>
<path d="M3229.39 60.4574C3244.16 84.2876 3268.59 80.6334 3278.95 75.8276C3289.8 67.8911 3285.91 55.7491 3279.27 48.9503C3272.63 42.1515 3256.59 33.8974 3245.9 28.3948C3235.21 22.8922 3210.92 30.6697 3229.39 60.4574Z" fill="url(#paint29_radial_39_775)"/>
<path d="M3337.11 159.847C3324.16 163.995 3310.44 141.611 3305.2 129.901C3291.92 116.303 3297.42 105.616 3304.22 98.9756C3311.02 92.3356 3323.01 101.886 3328.35 104.637C3333.7 107.388 3344.23 126.33 3346.82 134.425C3349.42 142.52 3353.31 154.662 3337.11 159.847Z" fill="url(#paint30_radial_39_775)"/>
<path d="M3352.51 221.856C3343.05 203.465 3350.62 192.712 3355.58 189.635C3366.43 181.699 3374.37 192.545 3387.65 206.143C3400.94 219.74 3388.63 237.068 3384.58 238.364C3380.53 239.66 3364.34 244.845 3352.51 221.856Z" fill="url(#paint31_radial_39_775)"/>
<path d="M85.6073 1090.76C96.8682 1105.45 98.0566 1123.44 88.2617 1130.94C78.4668 1138.45 61.3978 1132.63 50.137 1117.94C38.8761 1103.25 37.6877 1085.26 47.4826 1077.75C57.2774 1070.25 74.3465 1076.07 85.6073 1090.76Z" fill="url(#paint32_radial_39_775)"/>
<path d="M217.628 197.157C215.935 215.586 204.6 229.611 192.311 228.482C180.022 227.354 171.432 211.499 173.125 193.07C174.819 174.642 186.154 160.617 198.443 161.745C210.732 162.874 219.322 178.728 217.628 197.157Z" fill="url(#paint33_radial_39_775)"/>
<path d="M661.91 101.506C648.497 114.261 630.132 116.726 620.888 107.012C611.645 97.2973 615.025 79.0823 628.437 66.3271C641.85 53.572 660.216 51.107 669.459 60.8213C678.702 70.5357 675.322 88.7507 661.91 101.506Z" fill="url(#paint34_radial_39_775)"/>
<path d="M608.092 996.782C593.38 985.55 588.052 967.806 596.192 957.15C604.332 946.495 622.857 946.963 637.568 958.195C652.28 969.428 657.608 987.172 649.468 997.827C641.328 1008.48 622.803 1008.01 608.092 996.782Z" fill="url(#paint35_radial_39_775)"/>
<path fill-rule="evenodd" clip-rule="evenodd" d="M3313.6 664.629C3326.64 648.882 3327.36 640.275 3328.35 626.802C3329.88 606.048 3312.97 578.509 3286.49 576.563C3269.47 575.312 3257.05 580.913 3250.35 585.073C3249.2 585.789 3248.21 586.463 3247.4 587.051C3243.7 589.296 3245.6 589.423 3242.34 586.732C3241.63 586.025 3240.74 585.203 3239.69 584.31C3233.68 579.214 3222.2 571.838 3205.15 570.585C3178.67 568.639 3157.92 593.411 3156.39 614.165C3154.87 634.919 3163.21 656.113 3179.79 672.63C3196.38 689.147 3207.55 699.117 3219.74 707.906C3221.64 709.277 3223.31 710.502 3224.79 711.595C3232.76 717.511 3240.79 716.613 3246.34 713.511C3248.29 712.42 3250.24 711.303 3251.98 710.275C3258.65 706.326 3266.33 701.72 3266.33 701.72C3266.33 701.72 3300.57 680.375 3313.6 664.629Z" fill="url(#paint36_radial_39_775)"/>
<path d="M3118.66 435.954C3103.95 424.721 3098.62 406.977 3106.76 396.322C3114.9 385.667 3133.42 386.134 3148.14 397.367C3162.85 408.6 3168.18 426.343 3160.04 436.999C3151.9 447.654 3133.37 447.186 3118.66 435.954Z" fill="url(#paint37_radial_39_775)"/>
<path fill-rule="evenodd" clip-rule="evenodd" d="M436.345 731.651C449.382 715.904 450.105 707.297 451.095 693.824C452.621 673.07 435.715 645.531 409.235 643.585C392.212 642.334 379.792 647.935 373.092 652.095C371.939 652.811 370.955 653.485 370.147 654.073C366.442 656.318 368.338 656.445 365.087 653.754C364.369 653.047 363.484 652.225 362.431 651.332C356.418 646.236 344.942 638.86 327.895 637.607C301.415 635.661 280.662 660.433 279.136 681.187C277.61 701.941 285.949 723.135 302.537 739.652C319.126 756.169 330.292 766.139 342.479 774.928C344.38 776.299 346.054 777.524 347.528 778.617C355.506 784.533 363.53 783.635 369.078 780.533C371.028 779.442 372.986 778.325 374.722 777.297C381.394 773.348 389.071 768.742 389.071 768.742C389.071 768.742 423.309 747.397 436.345 731.651Z" fill="url(#paint38_radial_39_775)"/>
</g>
<path d="M1178.16 682.003C1175.66 682.003 1173.53 681.127 1171.78 679.376C1170.03 677.624 1169.15 675.497 1169.15 672.994V495.816C1169.15 493.314 1170.03 491.187 1171.78 489.435C1173.53 487.683 1175.66 486.807 1178.16 486.807H1209.31C1212.07 486.807 1214.19 487.683 1215.7 489.435C1217.45 491.187 1218.32 493.314 1218.32 495.816V672.994C1218.32 675.497 1217.45 677.624 1215.7 679.376C1214.19 681.127 1212.07 682.003 1209.31 682.003H1178.16ZM1176.66 454.525C1173.9 454.525 1171.65 453.774 1169.9 452.273C1168.4 450.521 1167.65 448.269 1167.65 445.516V418.489C1167.65 415.986 1168.4 413.859 1169.9 412.107C1171.65 410.355 1173.9 409.48 1176.66 409.48H1210.82C1213.57 409.48 1215.82 410.355 1217.57 412.107C1219.32 413.859 1220.2 415.986 1220.2 418.489V445.516C1220.2 448.269 1219.32 450.521 1217.57 452.273C1215.82 453.774 1213.57 454.525 1210.82 454.525H1176.66ZM1277.13 682.003C1274.63 682.003 1272.51 681.127 1270.75 679.376C1269 677.624 1268.13 675.497 1268.13 672.994V495.816C1268.13 493.314 1269 491.187 1270.75 489.435C1272.51 487.683 1274.63 486.807 1277.13 486.807H1306.41C1308.92 486.807 1311.04 487.683 1312.8 489.435C1314.55 491.187 1315.42 493.314 1315.42 495.816V508.579C1320.68 501.572 1327.69 495.691 1336.44 490.936C1345.45 485.931 1356.09 483.304 1368.35 483.053C1396.88 482.553 1416.77 493.689 1428.04 516.462C1433.79 506.452 1442.05 498.444 1452.81 492.438C1463.82 486.182 1475.96 483.053 1489.22 483.053C1502.24 483.053 1514 486.056 1524.51 492.062C1535.27 498.069 1543.65 507.203 1549.66 519.465C1555.91 531.477 1559.04 546.742 1559.04 565.261V672.994C1559.04 675.497 1558.17 677.624 1556.42 679.376C1554.66 681.127 1552.54 682.003 1550.03 682.003H1519.25C1516.75 682.003 1514.62 681.127 1512.87 679.376C1511.12 677.624 1510.24 675.497 1510.24 672.994V568.264C1510.24 557.003 1508.62 548.119 1505.36 541.612C1502.11 534.855 1497.73 530.101 1492.23 527.348C1486.72 524.595 1480.59 523.219 1473.83 523.219C1468.33 523.219 1462.82 524.595 1457.32 527.348C1451.81 530.101 1447.31 534.855 1443.8 541.612C1440.3 548.119 1438.55 557.003 1438.55 568.264V672.994C1438.55 675.497 1437.67 677.624 1435.92 679.376C1434.17 681.127 1432.04 682.003 1429.54 682.003H1398.76C1396 682.003 1393.75 681.127 1392 679.376C1390.5 677.624 1389.75 675.497 1389.75 672.994V568.264C1389.75 557.003 1388 548.119 1384.49 541.612C1380.99 534.855 1376.48 530.101 1370.98 527.348C1365.47 524.595 1359.59 523.219 1353.34 523.219C1347.58 523.219 1341.95 524.72 1336.44 527.723C1330.94 530.476 1326.43 535.106 1322.93 541.612C1319.43 548.119 1317.68 557.003 1317.68 568.264V672.994C1317.68 675.497 1316.8 677.624 1315.05 679.376C1313.3 681.127 1311.17 682.003 1308.67 682.003H1277.13ZM1616.23 753.325C1613.73 753.325 1611.6 752.449 1609.85 750.697C1608.1 748.945 1607.22 746.818 1607.22 744.316V495.816C1607.22 493.314 1608.1 491.187 1609.85 489.435C1611.6 487.683 1613.73 486.807 1616.23 486.807H1645.88C1648.64 486.807 1650.76 487.683 1652.27 489.435C1654.02 491.187 1654.89 493.314 1654.89 495.816V510.831C1660.9 502.823 1668.78 496.192 1678.54 490.936C1688.3 485.681 1700.44 483.053 1714.95 483.053C1728.22 483.053 1739.73 485.181 1749.49 489.435C1759.25 493.689 1767.38 499.82 1773.89 507.828C1780.39 515.586 1785.4 524.845 1788.9 535.606C1792.41 546.367 1794.41 558.254 1794.91 571.267C1795.16 575.521 1795.28 579.901 1795.28 584.405C1795.28 588.91 1795.16 593.414 1794.91 597.919C1794.66 610.431 1792.78 622.068 1789.28 632.829C1785.77 643.339 1780.64 652.599 1773.89 660.607C1767.38 668.364 1759.25 674.496 1749.49 679C1739.73 683.505 1728.22 685.757 1714.95 685.757C1701.44 685.757 1689.93 683.38 1680.42 678.625C1670.91 673.62 1663.15 667.113 1657.15 659.105V744.316C1657.15 746.818 1656.27 748.945 1654.52 750.697C1653.02 752.449 1650.89 753.325 1648.14 753.325H1616.23ZM1701.06 645.592C1711.82 645.592 1720.21 643.339 1726.21 638.835C1732.22 634.08 1736.47 627.949 1738.98 620.441C1741.73 612.934 1743.36 604.676 1743.86 595.667C1744.36 588.159 1744.36 580.651 1743.86 573.144C1743.36 564.135 1741.73 555.877 1738.98 548.369C1736.47 540.861 1732.22 534.855 1726.21 530.351C1720.21 525.596 1711.82 523.219 1701.06 523.219C1690.8 523.219 1682.42 525.596 1675.91 530.351C1669.66 535.106 1665.03 541.237 1662.02 548.744C1659.27 556.002 1657.65 563.509 1657.15 571.267C1656.89 575.772 1656.77 580.526 1656.77 585.531C1656.77 590.536 1656.89 595.416 1657.15 600.171C1657.4 607.679 1659.15 614.936 1662.4 621.943C1665.65 628.7 1670.41 634.33 1676.66 638.835C1682.92 643.339 1691.05 645.592 1701.06 645.592ZM1846.81 682.003C1844.3 682.003 1842.18 681.127 1840.43 679.376C1838.67 677.624 1837.8 675.497 1837.8 672.994V424.495C1837.8 421.992 1838.67 419.865 1840.43 418.113C1842.18 416.362 1844.3 415.486 1846.81 415.486H1877.96C1880.47 415.486 1882.59 416.362 1884.34 418.113C1886.1 419.865 1886.97 421.992 1886.97 424.495V672.994C1886.97 675.497 1886.1 677.624 1884.34 679.376C1882.59 681.127 1880.47 682.003 1877.96 682.003H1846.81ZM1972.05 753.325C1970.05 753.325 1968.3 752.574 1966.8 751.073C1965.29 749.571 1964.54 747.819 1964.54 745.817C1964.54 744.816 1964.54 743.815 1964.54 742.814C1964.79 742.063 1965.29 741.062 1966.04 739.811L1995.32 670.366L1923.25 500.321C1922.25 497.818 1921.75 496.067 1921.75 495.066C1922 492.813 1922.88 490.936 1924.38 489.435C1925.88 487.683 1927.76 486.807 1930.01 486.807H1960.41C1963.42 486.807 1965.67 487.558 1967.17 489.059C1968.67 490.561 1969.8 492.188 1970.55 493.939L2020.47 616.688L2071.9 493.939C2072.65 491.937 2073.78 490.311 2075.28 489.059C2076.78 487.558 2079.03 486.807 2082.04 486.807H2112.07C2114.07 486.807 2115.82 487.558 2117.32 489.059C2119.07 490.561 2119.95 492.313 2119.95 494.315C2119.95 495.816 2119.45 497.818 2118.45 500.321L2012.22 746.193C2011.22 748.195 2009.96 749.821 2008.46 751.073C2006.96 752.574 2004.71 753.325 2001.71 753.325H1972.05ZM2139.28 682.003C2136.77 682.003 2134.65 681.127 2132.89 679.376C2131.14 677.624 2130.27 675.497 2130.27 672.994V635.832C2130.27 633.079 2131.14 630.827 2132.89 629.075C2134.65 627.323 2136.77 626.447 2139.28 626.447H2176.81C2179.32 626.447 2181.44 627.323 2183.19 629.075C2184.95 630.827 2185.82 633.079 2185.82 635.832V672.994C2185.82 675.497 2184.95 677.624 2183.19 679.376C2181.44 681.127 2179.32 682.003 2176.81 682.003H2139.28ZM2289.64 685.757C2276.63 685.757 2264.87 683.254 2254.36 678.249C2243.85 672.994 2235.46 666.112 2229.21 657.604C2223.2 648.845 2220.2 639.085 2220.2 628.324C2220.2 610.807 2227.21 596.918 2241.22 586.657C2255.48 576.147 2274.25 569.14 2297.53 565.636L2348.95 558.129V550.246C2348.95 539.735 2346.33 531.602 2341.07 525.846C2335.81 520.091 2326.81 517.213 2314.04 517.213C2305.03 517.213 2297.65 519.09 2291.9 522.843C2286.39 526.347 2282.26 531.102 2279.51 537.108C2277.51 540.361 2274.63 541.988 2270.87 541.988H2241.22C2238.47 541.988 2236.34 541.237 2234.84 539.735C2233.59 538.234 2232.96 536.232 2232.96 533.729C2233.21 529.725 2234.84 524.845 2237.84 519.09C2240.84 513.334 2245.6 507.828 2252.11 502.573C2258.61 497.068 2267 492.438 2277.26 488.684C2287.52 484.93 2299.9 483.053 2314.42 483.053C2330.18 483.053 2343.45 485.055 2354.21 489.059C2365.22 492.813 2373.98 497.943 2380.48 504.45C2386.99 510.956 2391.75 518.589 2394.75 527.348C2397.75 536.107 2399.25 545.366 2399.25 555.126V672.994C2399.25 675.497 2398.38 677.624 2396.63 679.376C2394.87 681.127 2392.75 682.003 2390.24 682.003H2359.84C2357.09 682.003 2354.83 681.127 2353.08 679.376C2351.58 677.624 2350.83 675.497 2350.83 672.994V658.354C2347.58 663.109 2343.2 667.614 2337.69 671.868C2332.19 675.872 2325.43 679.25 2317.42 682.003C2309.66 684.506 2300.4 685.757 2289.64 685.757ZM2302.41 650.096C2311.16 650.096 2319.05 648.219 2326.05 644.465C2333.31 640.712 2338.94 634.956 2342.95 627.198C2347.2 619.19 2349.33 609.18 2349.33 597.168V589.285L2311.79 595.291C2297.03 597.543 2286.01 601.172 2278.76 606.177C2271.5 611.182 2267.87 617.313 2267.87 624.571C2267.87 630.076 2269.5 634.831 2272.75 638.835C2276.25 642.589 2280.63 645.466 2285.89 647.469C2291.14 649.22 2296.65 650.096 2302.41 650.096ZM2456.79 753.325C2454.29 753.325 2452.16 752.449 2450.41 750.697C2448.66 748.945 2447.79 746.818 2447.79 744.316V495.816C2447.79 493.314 2448.66 491.187 2450.41 489.435C2452.16 487.683 2454.29 486.807 2456.79 486.807H2486.45C2489.2 486.807 2491.33 487.683 2492.83 489.435C2494.58 491.187 2495.46 493.314 2495.46 495.816V510.831C2501.46 502.823 2509.35 496.192 2519.11 490.936C2528.87 485.681 2541 483.053 2555.52 483.053C2568.78 483.053 2580.29 485.181 2590.05 489.435C2599.81 493.689 2607.95 499.82 2614.45 507.828C2620.96 515.586 2625.96 524.845 2629.47 535.606C2632.97 546.367 2634.97 558.254 2635.47 571.267C2635.72 575.521 2635.85 579.901 2635.85 584.405C2635.85 588.91 2635.72 593.414 2635.47 597.919C2635.22 610.431 2633.35 622.068 2629.84 632.829C2626.34 643.339 2621.21 652.599 2614.45 660.607C2607.95 668.364 2599.81 674.496 2590.05 679C2580.29 683.505 2568.78 685.757 2555.52 685.757C2542 685.757 2530.49 683.38 2520.98 678.625C2511.47 673.62 2503.72 667.113 2497.71 659.105V744.316C2497.71 746.818 2496.83 748.945 2495.08 750.697C2493.58 752.449 2491.45 753.325 2488.7 753.325H2456.79ZM2541.63 645.592C2552.39 645.592 2560.77 643.339 2566.78 638.835C2572.79 634.08 2577.04 627.949 2579.54 620.441C2582.3 612.934 2583.92 604.676 2584.42 595.667C2584.92 588.159 2584.92 580.651 2584.42 573.144C2583.92 564.135 2582.3 555.877 2579.54 548.369C2577.04 540.861 2572.79 534.855 2566.78 530.351C2560.77 525.596 2552.39 523.219 2541.63 523.219C2531.37 523.219 2522.99 525.596 2516.48 530.351C2510.22 535.106 2505.59 541.237 2502.59 548.744C2499.84 556.002 2498.21 563.509 2497.71 571.267C2497.46 575.772 2497.34 580.526 2497.34 585.531C2497.34 590.536 2497.46 595.416 2497.71 600.171C2497.96 607.679 2499.71 614.936 2502.97 621.943C2506.22 628.7 2510.97 634.33 2517.23 638.835C2523.49 643.339 2531.62 645.592 2541.63 645.592ZM2687.37 753.325C2684.87 753.325 2682.74 752.449 2680.99 750.697C2679.24 748.945 2678.36 746.818 2678.36 744.316V495.816C2678.36 493.314 2679.24 491.187 2680.99 489.435C2682.74 487.683 2684.87 486.807 2687.37 486.807H2717.03C2719.78 486.807 2721.91 487.683 2723.41 489.435C2725.16 491.187 2726.04 493.314 2726.04 495.816V510.831C2732.04 502.823 2739.93 496.192 2749.69 490.936C2759.44 485.681 2771.58 483.053 2786.1 483.053C2799.36 483.053 2810.87 485.181 2820.63 489.435C2830.39 493.689 2838.52 499.82 2845.03 507.828C2851.54 515.586 2856.54 524.845 2860.05 535.606C2863.55 546.367 2865.55 558.254 2866.05 571.267C2866.3 575.521 2866.43 579.901 2866.43 584.405C2866.43 588.91 2866.3 593.414 2866.05 597.919C2865.8 610.431 2863.92 622.068 2860.42 632.829C2856.92 643.339 2851.79 652.599 2845.03 660.607C2838.52 668.364 2830.39 674.496 2820.63 679C2810.87 683.505 2799.36 685.757 2786.1 685.757C2772.58 685.757 2761.07 683.38 2751.56 678.625C2742.05 673.62 2734.29 667.113 2728.29 659.105V744.316C2728.29 746.818 2727.41 748.945 2725.66 750.697C2724.16 752.449 2722.03 753.325 2719.28 753.325H2687.37ZM2772.21 645.592C2782.97 645.592 2791.35 643.339 2797.36 638.835C2803.36 634.08 2807.62 627.949 2810.12 620.441C2812.87 612.934 2814.5 604.676 2815 595.667C2815.5 588.159 2815.5 580.651 2815 573.144C2814.5 564.135 2812.87 555.877 2810.12 548.369C2807.62 540.861 2803.36 534.855 2797.36 530.351C2791.35 525.596 2782.97 523.219 2772.21 523.219C2761.95 523.219 2753.56 525.596 2747.06 530.351C2740.8 535.106 2736.17 541.237 2733.17 548.744C2730.42 556.002 2728.79 563.509 2728.29 571.267C2728.04 575.772 2727.91 580.526 2727.91 585.531C2727.91 590.536 2728.04 595.416 2728.29 600.171C2728.54 607.679 2730.29 614.936 2733.54 621.943C2736.8 628.7 2741.55 634.33 2747.81 638.835C2754.06 643.339 2762.2 645.592 2772.21 645.592Z" fill="white"/>
<rect x="488.715" y="290.973" width="524.905" height="524.766" rx="123.728" fill="url(#paint39_linear_39_775)" stroke="#BABABA" stroke-width="2.49955"/>
<mask id="path-6-inside-1_39_775" fill="white">
<path fill-rule="evenodd" clip-rule="evenodd" d="M797.41 559.603C775.322 559.603 757.417 577.508 757.417 599.596V647.064C757.417 695.368 796.585 734.525 844.901 734.525C893.217 734.525 932.385 695.368 932.385 647.064C932.385 598.761 893.217 559.603 844.901 559.603H797.41Z"/>
</mask>
<path fill-rule="evenodd" clip-rule="evenodd" d="M797.41 559.603C775.322 559.603 757.417 577.508 757.417 599.596V647.064C757.417 695.368 796.585 734.525 844.901 734.525C893.217 734.525 932.385 695.368 932.385 647.064C932.385 598.761 893.217 559.603 844.901 559.603H797.41Z" fill="url(#paint40_linear_39_775)"/>
<path d="M759.917 599.596C759.917 578.889 776.703 562.103 797.41 562.103V557.103C773.942 557.103 754.917 576.128 754.917 599.596H759.917ZM759.917 647.064V599.596H754.917V647.064H759.917ZM844.901 732.026C797.965 732.026 759.917 693.987 759.917 647.064H754.917C754.917 696.749 795.205 737.025 844.901 737.025V732.026ZM929.886 647.064C929.886 693.987 891.837 732.026 844.901 732.026V737.025C894.597 737.025 934.885 696.749 934.885 647.064H929.886ZM844.901 562.103C891.837 562.103 929.886 600.142 929.886 647.064H934.885C934.885 597.38 894.597 557.103 844.901 557.103V562.103ZM797.41 562.103H844.901V557.103H797.41V562.103Z" fill="#2D37FA" mask="url(#path-6-inside-1_39_775)"/>
<mask id="path-8-inside-2_39_775" fill="white">
<path fill-rule="evenodd" clip-rule="evenodd" d="M744.917 599.596C744.917 577.508 727.012 559.603 704.924 559.603L657.433 559.603C609.117 559.603 569.949 598.761 569.949 647.064C569.949 695.368 609.117 734.525 657.433 734.525C705.749 734.525 744.917 695.368 744.917 647.064L744.917 599.596Z"/>
</mask>
<path fill-rule="evenodd" clip-rule="evenodd" d="M744.917 599.596C744.917 577.508 727.012 559.603 704.924 559.603L657.433 559.603C609.117 559.603 569.949 598.761 569.949 647.064C569.949 695.368 609.117 734.525 657.433 734.525C705.749 734.525 744.917 695.368 744.917 647.064L744.917 599.596Z" fill="url(#paint41_linear_39_775)"/>
<path d="M704.924 559.603L704.924 562.103L704.924 559.603ZM744.917 599.596L747.417 599.596L744.917 599.596ZM657.433 559.603L657.433 557.103L657.433 559.603ZM744.917 647.064L742.418 647.064L744.917 647.064ZM704.924 562.103C725.631 562.103 742.418 578.889 742.418 599.596L747.417 599.596C747.417 576.128 728.392 557.103 704.924 557.103L704.924 562.103ZM657.433 562.103L704.924 562.103L704.924 557.103L657.433 557.103L657.433 562.103ZM572.448 647.064C572.448 600.142 610.497 562.103 657.433 562.103L657.433 557.103C607.737 557.103 567.449 597.38 567.449 647.064L572.448 647.064ZM657.433 732.026C610.497 732.026 572.448 693.987 572.448 647.064L567.449 647.064C567.449 696.749 607.737 737.025 657.433 737.025L657.433 732.026ZM742.418 647.064C742.418 693.987 704.369 732.026 657.433 732.026L657.433 737.025C707.129 737.025 747.417 696.749 747.417 647.064L742.418 647.064ZM742.418 599.596L742.418 647.064L747.417 647.064L747.417 599.596L742.418 599.596Z" fill="#F82031" mask="url(#path-8-inside-2_39_775)"/>
<mask id="path-10-inside-3_39_775" fill="white">
<path fill-rule="evenodd" clip-rule="evenodd" d="M704.924 547.109C727.012 547.109 744.917 529.204 744.917 507.116L744.917 459.648C744.917 411.344 705.749 372.187 657.433 372.187C609.117 372.186 569.949 411.344 569.949 459.648C569.949 507.951 609.117 547.109 657.433 547.109L704.924 547.109Z"/>
</mask>
<path fill-rule="evenodd" clip-rule="evenodd" d="M704.924 547.109C727.012 547.109 744.917 529.204 744.917 507.116L744.917 459.648C744.917 411.344 705.749 372.187 657.433 372.187C609.117 372.186 569.949 411.344 569.949 459.648C569.949 507.951 609.117 547.109 657.433 547.109L704.924 547.109Z" fill="url(#paint42_linear_39_775)"/>
<path d="M744.917 507.116L747.417 507.116L744.917 507.116ZM704.924 547.109L704.924 544.609L704.924 547.109ZM744.917 459.648L742.418 459.648L744.917 459.648ZM657.433 547.109L657.433 549.608L657.433 547.109ZM742.418 507.116C742.418 527.823 725.631 544.609 704.924 544.609L704.924 549.608C728.392 549.608 747.417 530.584 747.417 507.116L742.418 507.116ZM742.418 459.648L742.418 507.116L747.417 507.116L747.417 459.648L742.418 459.648ZM657.433 374.686C704.369 374.686 742.418 412.725 742.418 459.648L747.417 459.648C747.417 409.963 707.129 369.687 657.433 369.687L657.433 374.686ZM572.448 459.648C572.448 412.725 610.497 374.686 657.433 374.686L657.433 369.687C607.737 369.687 567.449 409.963 567.449 459.648L572.448 459.648ZM657.433 544.609C610.497 544.609 572.448 506.57 572.448 459.648L567.449 459.648C567.449 509.332 607.737 549.608 657.433 549.608L657.433 544.609ZM704.924 544.609L657.433 544.609L657.433 549.608L704.924 549.608L704.924 544.609Z" fill="#F65719" mask="url(#path-10-inside-3_39_775)"/>
<mask id="path-12-inside-4_39_775" fill="white">
<path fill-rule="evenodd" clip-rule="evenodd" d="M757.417 507.116C757.417 529.204 775.322 547.109 797.41 547.109L844.901 547.109C893.217 547.109 932.385 507.951 932.385 459.648C932.385 411.344 893.217 372.187 844.901 372.187C796.585 372.187 757.417 411.344 757.417 459.648L757.417 507.116Z"/>
</mask>
<path fill-rule="evenodd" clip-rule="evenodd" d="M757.417 507.116C757.417 529.204 775.322 547.109 797.41 547.109L844.901 547.109C893.217 547.109 932.385 507.951 932.385 459.648C932.385 411.344 893.217 372.187 844.901 372.187C796.585 372.187 757.417 411.344 757.417 459.648L757.417 507.116Z" fill="url(#paint43_linear_39_775)"/>
<path d="M797.41 544.609C776.703 544.609 759.917 527.823 759.917 507.116L754.917 507.116C754.917 530.584 773.942 549.608 797.41 549.608L797.41 544.609ZM844.901 544.609L797.41 544.609L797.41 549.608L844.901 549.608L844.901 544.609ZM929.886 459.648C929.886 506.57 891.837 544.609 844.901 544.609L844.901 549.608C894.597 549.608 934.885 509.332 934.885 459.648L929.886 459.648ZM844.901 374.686C891.837 374.686 929.886 412.725 929.886 459.648L934.885 459.648C934.885 409.963 894.597 369.687 844.901 369.687L844.901 374.686ZM759.917 459.648C759.917 412.725 797.965 374.686 844.901 374.686L844.901 369.687C795.205 369.687 754.917 409.963 754.917 459.648L759.917 459.648ZM759.917 507.116L759.917 459.648L754.917 459.648L754.917 507.116L759.917 507.116Z" fill="#418F60" mask="url(#path-12-inside-4_39_775)"/>
<defs>
<radialGradient id="paint0_radial_39_775" cx="0" cy="0" r="1" gradientUnits="userSpaceOnUse" gradientTransform="translate(1766.1 624.054) rotate(90) scale(558.483 1413.54)">
<stop/>
<stop offset="1" stop-color="#0F0F0F"/>
</radialGradient>
<radialGradient id="paint1_radial_39_775" cx="0" cy="0" r="1" gradientUnits="userSpaceOnUse" gradientTransform="translate(1766.1 624.054) rotate(90) scale(558.483 1413.54)">
<stop/>
<stop offset="1" stop-color="#0F0F0F"/>
</radialGradient>
<radialGradient id="paint2_radial_39_775" cx="0" cy="0" r="1" gradientUnits="userSpaceOnUse" gradientTransform="translate(1766.1 624.054) rotate(90) scale(558.483 1413.54)">
<stop/>
<stop offset="1" stop-color="#0F0F0F"/>
</radialGradient>
<radialGradient id="paint3_radial_39_775" cx="0" cy="0" r="1" gradientUnits="userSpaceOnUse" gradientTransform="translate(1766.1 624.054) rotate(90) scale(558.483 1413.54)">
<stop/>
<stop offset="1" stop-color="#0F0F0F"/>
</radialGradient>
<radialGradient id="paint4_radial_39_775" cx="0" cy="0" r="1" gradientUnits="userSpaceOnUse" gradientTransform="translate(1766.1 624.054) rotate(90) scale(558.483 1413.54)">
<stop/>
<stop offset="1" stop-color="#0F0F0F"/>
</radialGradient>
<radialGradient id="paint5_radial_39_775" cx="0" cy="0" r="1" gradientUnits="userSpaceOnUse" gradientTransform="translate(1766.1 624.054) rotate(90) scale(558.483 1413.54)">
<stop/>
<stop offset="1" stop-color="#0F0F0F"/>
</radialGradient>
<radialGradient id="paint6_radial_39_775" cx="0" cy="0" r="1" gradientUnits="userSpaceOnUse" gradientTransform="translate(1766.1 624.054) rotate(90) scale(558.483 1413.54)">
<stop/>
<stop offset="1" stop-color="#0F0F0F"/>
</radialGradient>
<radialGradient id="paint7_radial_39_775" cx="0" cy="0" r="1" gradientUnits="userSpaceOnUse" gradientTransform="translate(1766.1 624.054) rotate(90) scale(558.483 1413.54)">
<stop/>
<stop offset="1" stop-color="#0F0F0F"/>
</radialGradient>
<radialGradient id="paint8_radial_39_775" cx="0" cy="0" r="1" gradientUnits="userSpaceOnUse" gradientTransform="translate(1766.1 624.054) rotate(90) scale(558.483 1413.54)">
<stop/>
<stop offset="1" stop-color="#0F0F0F"/>
</radialGradient>
<radialGradient id="paint9_radial_39_775" cx="0" cy="0" r="1" gradientUnits="userSpaceOnUse" gradientTransform="translate(1766.1 624.054) rotate(90) scale(558.483 1413.54)">
<stop/>
<stop offset="1" stop-color="#0F0F0F"/>
</radialGradient>
<radialGradient id="paint10_radial_39_775" cx="0" cy="0" r="1" gradientUnits="userSpaceOnUse" gradientTransform="translate(1766.1 624.054) rotate(90) scale(558.483 1413.54)">
<stop/>
<stop offset="1" stop-color="#0F0F0F"/>
</radialGradient>
<radialGradient id="paint11_radial_39_775" cx="0" cy="0" r="1" gradientUnits="userSpaceOnUse" gradientTransform="translate(1766.1 624.054) rotate(90) scale(558.483 1413.54)">
<stop/>
<stop offset="1" stop-color="#0F0F0F"/>
</radialGradient>
<radialGradient id="paint12_radial_39_775" cx="0" cy="0" r="1" gradientUnits="userSpaceOnUse" gradientTransform="translate(1766.1 624.054) rotate(90) scale(558.483 1413.54)">
<stop/>
<stop offset="1" stop-color="#0F0F0F"/>
</radialGradient>
<radialGradient id="paint13_radial_39_775" cx="0" cy="0" r="1" gradientUnits="userSpaceOnUse" gradientTransform="translate(1766.1 624.054) rotate(90) scale(558.483 1413.54)">
<stop/>
<stop offset="1" stop-color="#0F0F0F"/>
</radialGradient>
<radialGradient id="paint14_radial_39_775" cx="0" cy="0" r="1" gradientUnits="userSpaceOnUse" gradientTransform="translate(1766.1 624.054) rotate(90) scale(558.483 1413.54)">
<stop/>
<stop offset="1" stop-color="#0F0F0F"/>
</radialGradient>
<radialGradient id="paint15_radial_39_775" cx="0" cy="0" r="1" gradientUnits="userSpaceOnUse" gradientTransform="translate(1766.1 624.054) rotate(90) scale(558.483 1413.54)">
<stop/>
<stop offset="1" stop-color="#0F0F0F"/>
</radialGradient>
<radialGradient id="paint16_radial_39_775" cx="0" cy="0" r="1" gradientUnits="userSpaceOnUse" gradientTransform="translate(1766.1 624.054) rotate(90) scale(558.483 1413.54)">
<stop/>
<stop offset="1" stop-color="#0F0F0F"/>
</radialGradient>
<radialGradient id="paint17_radial_39_775" cx="0" cy="0" r="1" gradientUnits="userSpaceOnUse" gradientTransform="translate(1766.1 624.054) rotate(90) scale(558.483 1413.54)">
<stop/>
<stop offset="1" stop-color="#0F0F0F"/>
</radialGradient>
<radialGradient id="paint18_radial_39_775" cx="0" cy="0" r="1" gradientUnits="userSpaceOnUse" gradientTransform="translate(1766.1 624.054) rotate(90) scale(558.483 1413.54)">
<stop/>
<stop offset="1" stop-color="#0F0F0F"/>
</radialGradient>
<radialGradient id="paint19_radial_39_775" cx="0" cy="0" r="1" gradientUnits="userSpaceOnUse" gradientTransform="translate(1766.1 624.054) rotate(90) scale(558.483 1413.54)">
<stop/>
<stop offset="1" stop-color="#0F0F0F"/>
</radialGradient>
<radialGradient id="paint20_radial_39_775" cx="0" cy="0" r="1" gradientUnits="userSpaceOnUse" gradientTransform="translate(1766.1 624.054) rotate(90) scale(558.483 1413.54)">
<stop/>
<stop offset="1" stop-color="#0F0F0F"/>
</radialGradient>
<radialGradient id="paint21_radial_39_775" cx="0" cy="0" r="1" gradientUnits="userSpaceOnUse" gradientTransform="translate(1766.1 624.054) rotate(90) scale(558.483 1413.54)">
<stop/>
<stop offset="1" stop-color="#0F0F0F"/>
</radialGradient>
<radialGradient id="paint22_radial_39_775" cx="0" cy="0" r="1" gradientUnits="userSpaceOnUse" gradientTransform="translate(1766.1 624.054) rotate(90) scale(558.483 1413.54)">
<stop/>
<stop offset="1" stop-color="#0F0F0F"/>
</radialGradient>
<radialGradient id="paint23_radial_39_775" cx="0" cy="0" r="1" gradientUnits="userSpaceOnUse" gradientTransform="translate(1766.1 624.054) rotate(90) scale(558.483 1413.54)">
<stop/>
<stop offset="1" stop-color="#0F0F0F"/>
</radialGradient>
<radialGradient id="paint24_radial_39_775" cx="0" cy="0" r="1" gradientUnits="userSpaceOnUse" gradientTransform="translate(1766.1 624.054) rotate(90) scale(558.483 1413.54)">
<stop/>
<stop offset="1" stop-color="#0F0F0F"/>
</radialGradient>
<radialGradient id="paint25_radial_39_775" cx="0" cy="0" r="1" gradientUnits="userSpaceOnUse" gradientTransform="translate(1766.1 624.054) rotate(90) scale(558.483 1413.54)">
<stop/>
<stop offset="1" stop-color="#0F0F0F"/>
</radialGradient>
<radialGradient id="paint26_radial_39_775" cx="0" cy="0" r="1" gradientUnits="userSpaceOnUse" gradientTransform="translate(1766.1 624.054) rotate(90) scale(558.483 1413.54)">
<stop/>
<stop offset="1" stop-color="#0F0F0F"/>
</radialGradient>
<radialGradient id="paint27_radial_39_775" cx="0" cy="0" r="1" gradientUnits="userSpaceOnUse" gradientTransform="translate(1766.1 624.054) rotate(90) scale(558.483 1413.54)">
<stop/>
<stop offset="1" stop-color="#0F0F0F"/>
</radialGradient>
<radialGradient id="paint28_radial_39_775" cx="0" cy="0" r="1" gradientUnits="userSpaceOnUse" gradientTransform="translate(1766.1 624.054) rotate(90) scale(558.483 1413.54)">
<stop/>
<stop offset="1" stop-color="#0F0F0F"/>
</radialGradient>
<radialGradient id="paint29_radial_39_775" cx="0" cy="0" r="1" gradientUnits="userSpaceOnUse" gradientTransform="translate(1766.1 624.054) rotate(90) scale(558.483 1413.54)">
<stop/>
<stop offset="1" stop-color="#0F0F0F"/>
</radialGradient>
<radialGradient id="paint30_radial_39_775" cx="0" cy="0" r="1" gradientUnits="userSpaceOnUse" gradientTransform="translate(1766.1 624.054) rotate(90) scale(558.483 1413.54)">
<stop/>
<stop offset="1" stop-color="#0F0F0F"/>
</radialGradient>
<radialGradient id="paint31_radial_39_775" cx="0" cy="0" r="1" gradientUnits="userSpaceOnUse" gradientTransform="translate(1766.1 624.054) rotate(90) scale(558.483 1413.54)">
<stop/>
<stop offset="1" stop-color="#0F0F0F"/>
</radialGradient>
<radialGradient id="paint32_radial_39_775" cx="0" cy="0" r="1" gradientUnits="userSpaceOnUse" gradientTransform="translate(1766.1 624.054) rotate(90) scale(558.483 1413.54)">
<stop/>
<stop offset="1" stop-color="#0F0F0F"/>
</radialGradient>
<radialGradient id="paint33_radial_39_775" cx="0" cy="0" r="1" gradientUnits="userSpaceOnUse" gradientTransform="translate(1766.1 624.054) rotate(90) scale(558.483 1413.54)">
<stop/>
<stop offset="1" stop-color="#0F0F0F"/>
</radialGradient>
<radialGradient id="paint34_radial_39_775" cx="0" cy="0" r="1" gradientUnits="userSpaceOnUse" gradientTransform="translate(1766.1 624.054) rotate(90) scale(558.483 1413.54)">
<stop/>
<stop offset="1" stop-color="#0F0F0F"/>
</radialGradient>
<radialGradient id="paint35_radial_39_775" cx="0" cy="0" r="1" gradientUnits="userSpaceOnUse" gradientTransform="translate(1766.1 624.054) rotate(90) scale(558.483 1413.54)">
<stop/>
<stop offset="1" stop-color="#0F0F0F"/>
</radialGradient>
<radialGradient id="paint36_radial_39_775" cx="0" cy="0" r="1" gradientUnits="userSpaceOnUse" gradientTransform="translate(1766.1 624.054) rotate(90) scale(558.483 1413.54)">
<stop/>
<stop offset="1" stop-color="#0F0F0F"/>
</radialGradient>
<radialGradient id="paint37_radial_39_775" cx="0" cy="0" r="1" gradientUnits="userSpaceOnUse" gradientTransform="translate(1766.1 624.054) rotate(90) scale(558.483 1413.54)">
<stop/>
<stop offset="1" stop-color="#0F0F0F"/>
</radialGradient>
<radialGradient id="paint38_radial_39_775" cx="0" cy="0" r="1" gradientUnits="userSpaceOnUse" gradientTransform="translate(1766.1 624.054) rotate(90) scale(558.483 1413.54)">
<stop/>
<stop offset="1" stop-color="#0F0F0F"/>
</radialGradient>
<linearGradient id="paint39_linear_39_775" x1="751.167" y1="289.723" x2="751.167" y2="816.989" gradientUnits="userSpaceOnUse">
<stop stop-color="#E9E9E9"/>
<stop offset="1" stop-color="#DFDFDF"/>
</linearGradient>
<linearGradient id="paint40_linear_39_775" x1="844.901" y1="559.603" x2="844.901" y2="734.525" gradientUnits="userSpaceOnUse">
<stop stop-color="#343EFC"/>
<stop offset="1" stop-color="#4952F9"/>
</linearGradient>
<linearGradient id="paint41_linear_39_775" x1="744.917" y1="647.064" x2="569.949" y2="647.064" gradientUnits="userSpaceOnUse">
<stop stop-color="#F93949"/>
<stop offset="1" stop-color="#F1293A"/>
</linearGradient>
<linearGradient id="paint42_linear_39_775" x1="657.433" y1="547.109" x2="657.433" y2="372.187" gradientUnits="userSpaceOnUse">
<stop stop-color="#FE743A"/>
<stop offset="1" stop-color="#F55E24"/>
</linearGradient>
<linearGradient id="paint43_linear_39_775" x1="757.417" y1="459.648" x2="932.385" y2="459.648" gradientUnits="userSpaceOnUse">
<stop stop-color="#27B560"/>
<stop offset="1" stop-color="#27A057"/>
</linearGradient>
</defs>
</svg>
