<svg width="222" height="73" viewBox="0 0 222 73" fill="none" xmlns="http://www.w3.org/2000/svg">
<mask id="mask0_39_775" style="mask-type:alpha" maskUnits="userSpaceOnUse" x="0" y="0" width="222" height="73">
<rect width="221.883" height="72.5576" fill="black"/>
</mask>
<g mask="url(#mask0_39_775)">
<rect width="221.883" height="72.5576" fill="black"/>
<path d="M192.743 18.141C192.559 17.9896 192.464 17.8434 192.414 17.6329C192.35 17.3687 192.401 17.0646 192.561 16.7516C192.621 16.633 194.368 13.7767 194.797 13.0964L194.871 12.9773L194.367 9.51452L194.385 9.25156C194.403 8.9456 194.435 8.78724 194.515 8.581C194.678 8.16365 195.012 7.89765 195.454 7.83298C195.62 7.81039 195.884 7.81907 196.081 7.85621C196.163 7.87237 197.043 8.07523 198.039 8.30611L199.849 8.72884L201.382 7.89976C202.224 7.44527 202.974 7.04453 203.048 7.01083C203.294 6.89984 203.636 6.8334 203.854 6.85773C204.088 6.88368 204.353 7.00532 204.508 7.16072C204.728 7.37852 204.882 7.71878 204.937 8.10535C204.947 8.17301 205.005 9.09973 205.065 10.1642L205.174 12.1013L206.369 13.3048C207.027 13.9666 207.6 14.5521 207.642 14.6054C208.063 15.138 208.164 15.6276 207.953 16.1028C207.837 16.3648 207.515 16.6611 207.14 16.8527C207.066 16.8899 206.214 17.264 205.245 17.6821L203.484 18.4432L202.687 20.0263C201.842 21.7039 201.834 21.7211 201.632 21.9504C201.38 22.2361 201.115 22.4088 200.839 22.4679C200.688 22.4991 200.443 22.4831 200.288 22.4301C200.068 22.3577 199.809 22.1827 199.616 21.9785C199.549 21.9067 198.627 20.7979 197.467 19.3889C197.294 19.1782 197.137 18.9966 197.118 18.9856C197.099 18.9745 196.338 18.8628 195.426 18.7386C194.514 18.6144 193.68 18.4947 193.572 18.4707C193.225 18.3977 192.897 18.2667 192.743 18.141Z" fill="url(#paint0_radial_39_775)"/>
<path d="M192.577 43.8063C192.466 43.6688 192.419 43.5482 192.414 43.3877C192.407 43.186 192.489 42.9723 192.653 42.7686C192.714 42.6912 194.41 40.8741 194.824 40.4432L194.896 40.3676L195.046 37.7737L195.097 37.585C195.156 37.3652 195.203 37.2547 195.293 37.1167C195.473 36.8374 195.755 36.6936 196.087 36.7126C196.211 36.7209 196.402 36.7666 196.539 36.8229C196.596 36.8469 197.207 37.1258 197.897 37.4422L199.15 38.0196L200.389 37.6452C201.069 37.4402 201.674 37.2605 201.733 37.247C201.929 37.2029 202.187 37.2056 202.343 37.2559C202.509 37.3097 202.683 37.4375 202.773 37.5738C202.9 37.765 202.962 38.0355 202.944 38.3249C202.942 38.3756 202.845 39.0583 202.73 39.8415L202.52 41.2668L203.211 42.3205C203.59 42.9 203.92 43.4113 203.942 43.4563C204.169 43.9066 204.17 44.2778 203.946 44.592C203.822 44.7652 203.543 44.9327 203.242 45.0163C203.183 45.0323 202.507 45.1773 201.74 45.337L200.346 45.628L199.53 46.6606C198.665 47.7549 198.656 47.7661 198.476 47.903C198.249 48.0731 198.031 48.1592 197.821 48.161C197.707 48.1613 197.531 48.1131 197.426 48.0514C197.277 47.9659 197.115 47.8001 197.005 47.6227C196.967 47.5604 196.462 46.6165 195.827 45.4185C195.733 45.2394 195.646 45.0839 195.634 45.0731C195.622 45.0622 195.085 44.8675 194.44 44.6412C193.796 44.4148 193.206 44.2034 193.132 44.1698C192.89 44.065 192.671 43.9208 192.577 43.8063Z" fill="url(#paint1_radial_39_775)"/>
<path d="M173.842 67.7179C173.811 67.6015 173.814 67.513 173.856 67.4116C173.907 67.2837 174.017 67.1729 174.176 67.091C174.235 67.0595 175.796 66.3941 176.174 66.2394L176.239 66.2121L177.05 64.6342L177.134 64.5307C177.232 64.4098 177.291 64.3537 177.385 64.2923C177.575 64.1679 177.791 64.1562 177.993 64.2597C178.068 64.2991 178.175 64.3803 178.245 64.4535C178.274 64.4842 178.578 64.827 178.921 65.2151L179.544 65.922L180.421 66.0306C180.902 66.0906 181.33 66.1456 181.37 66.1535C181.504 66.1799 181.665 66.2531 181.748 66.3274C181.837 66.407 181.91 66.5349 181.929 66.6449C181.956 66.7994 181.919 66.9853 181.828 67.161C181.812 67.1919 181.564 67.5915 181.275 68.0486L180.75 68.8803L180.89 69.7288C180.967 70.1955 181.031 70.6057 181.033 70.64C181.05 70.9839 180.948 71.2157 180.721 71.3499C180.596 71.4237 180.376 71.4514 180.165 71.4204C180.124 71.414 179.662 71.3178 179.139 71.2056L178.188 71.0019L177.393 71.4209C176.551 71.865 176.542 71.8697 176.392 71.9052C176.204 71.9489 176.043 71.9423 175.912 71.8855C175.841 71.8541 175.744 71.7753 175.696 71.7079C175.626 71.6133 175.571 71.465 175.551 71.3239C175.544 71.2744 175.49 70.5456 175.425 69.6225C175.416 69.4847 175.405 69.3635 175.4 69.3534C175.395 69.3432 175.114 69.0733 174.774 68.7539C174.434 68.4345 174.125 68.1397 174.087 68.098C173.966 67.9659 173.869 67.8153 173.842 67.7179Z" fill="url(#paint2_radial_39_775)"/>
<path fill-rule="evenodd" clip-rule="evenodd" d="M197.869 73.6008C199.048 72.9586 199.302 72.4515 199.691 71.6542C200.29 70.4261 199.931 68.335 198.364 67.5708C197.357 67.0795 196.464 67.1182 195.954 67.2085C195.866 67.2241 195.79 67.2411 195.726 67.2573C195.446 67.3038 195.558 67.3578 195.426 67.1145C195.399 67.0539 195.365 66.9821 195.323 66.9021C195.081 66.4448 194.561 65.7153 193.553 65.2233C191.986 64.4591 190.117 65.4634 189.518 66.6916C188.919 67.9197 188.91 69.4151 189.518 70.8265C190.127 72.2379 190.564 73.1179 191.093 73.9509C191.175 74.0808 191.247 74.1964 191.311 74.2989C191.653 74.8541 192.164 74.9949 192.577 74.9411C192.723 74.9221 192.869 74.9018 193 74.8814C193.503 74.8033 194.083 74.7096 194.083 74.7096C194.083 74.7096 196.691 74.243 197.869 73.6008Z" fill="url(#paint3_radial_39_775)"/>
<path fill-rule="evenodd" clip-rule="evenodd" d="M221.851 67.8036C223.231 67.0512 223.529 66.457 223.985 65.5229C224.687 64.0839 224.266 61.6338 222.431 60.7384C221.251 60.1628 220.204 60.2081 219.606 60.314C219.504 60.3322 219.414 60.3522 219.34 60.3711C219.011 60.4256 219.143 60.4889 218.987 60.2038C218.956 60.1328 218.916 60.0487 218.867 59.9549C218.583 59.4191 217.974 58.5644 216.793 57.988C214.957 57.0926 212.767 58.2693 212.065 59.7083C211.363 61.1472 211.353 62.8994 212.066 64.5531C212.779 66.2068 213.291 67.2378 213.911 68.2138C214.007 68.366 214.092 68.5014 214.166 68.6216C214.567 69.272 215.165 69.4371 215.65 69.374C215.82 69.3518 215.992 69.3279 216.145 69.3041C216.735 69.2126 217.415 69.1028 217.415 69.1028C217.415 69.1028 220.47 68.556 221.851 67.8036Z" fill="url(#paint4_radial_39_775)"/>
<path fill-rule="evenodd" clip-rule="evenodd" d="M191.316 -0.963431C191.613 -2.27228 191.4 -2.79805 191.059 -3.61689C190.534 -4.87824 188.727 -5.99118 187.118 -5.32082C186.084 -4.88989 185.522 -4.19375 185.253 -3.75147C185.207 -3.67537 185.169 -3.60678 185.139 -3.54836C184.989 -3.30705 185.103 -3.35579 184.833 -3.41715C184.77 -3.43732 184.694 -3.45929 184.606 -3.48039C184.103 -3.60091 183.212 -3.69321 182.176 -3.26165C180.567 -2.5913 180.085 -0.52497 180.611 0.736378C181.136 1.99772 182.253 2.99267 183.714 3.46914C185.175 3.94561 186.125 4.19903 187.099 4.35305C187.251 4.37707 187.386 4.39929 187.504 4.41967C188.147 4.52998 188.59 4.23968 188.823 3.89357C188.905 3.77187 188.987 3.64843 189.058 3.53681C189.332 3.10774 189.645 2.61042 189.645 2.61042C189.645 2.61042 191.019 0.345418 191.316 -0.963431Z" fill="url(#paint5_radial_39_775)"/>
<path d="M212.644 29.5352C212.461 29.3838 212.365 29.2376 212.316 29.0271C212.252 28.7629 212.302 28.4588 212.463 28.1458C212.522 28.0272 214.27 25.1709 214.699 24.4906L214.773 24.3715L214.269 20.9087L214.286 20.6458C214.305 20.3398 214.336 20.1814 214.417 19.9752C214.58 19.5579 214.914 19.2919 215.356 19.2272C215.522 19.2046 215.786 19.2133 215.983 19.2504C216.064 19.2666 216.945 19.4694 217.941 19.7003L219.751 20.123L221.284 19.294C222.126 18.8395 222.876 18.4387 222.95 18.405C223.196 18.294 223.538 18.2276 223.756 18.2519C223.99 18.2779 224.255 18.3995 224.41 18.5549C224.63 18.7727 224.784 19.113 224.839 19.4996C224.849 19.5672 224.907 20.4939 224.967 21.5584L225.075 23.4955L226.271 24.699C226.929 25.3608 227.502 25.9463 227.543 25.9996C227.965 26.5322 228.066 27.0218 227.855 27.497C227.738 27.759 227.416 28.0553 227.042 28.2469C226.968 28.2841 226.116 28.6583 225.147 29.0763L223.386 29.8374L222.589 31.4205C221.744 33.0981 221.736 33.1153 221.534 33.3447C221.282 33.6303 221.017 33.803 220.741 33.8621C220.59 33.8933 220.345 33.8773 220.19 33.8243C219.97 33.7519 219.711 33.5769 219.518 33.3727C219.451 33.3009 218.529 32.1921 217.368 30.7831C217.196 30.5724 217.039 30.3908 217.02 30.3798C217 30.3687 216.24 30.257 215.328 30.1328C214.416 30.0086 213.582 29.8889 213.474 29.8649C213.127 29.7919 212.799 29.6609 212.644 29.5352Z" fill="url(#paint6_radial_39_775)"/>
<path d="M19.0182 72.0743C18.8347 71.9229 18.7392 71.7767 18.6898 71.5662C18.626 71.3019 18.6762 70.9979 18.8369 70.6849C18.8963 70.5663 20.6435 67.71 21.0726 67.0297L21.1469 66.9106L20.6429 63.4478L20.6602 63.1849C20.6787 62.8789 20.7101 62.7205 20.791 62.5143C20.9538 62.0969 21.2873 61.8309 21.7301 61.7663C21.8958 61.7437 22.1598 61.7524 22.3565 61.7895C22.4381 61.8057 23.319 62.0085 24.3146 62.2394L26.1247 62.6621L27.6578 61.8331C28.5001 61.3786 29.2495 60.9778 29.3235 60.9441C29.5694 60.8331 29.9113 60.7667 30.13 60.791C30.364 60.817 30.6283 60.9386 30.784 61.094C31.0036 61.3118 31.158 61.6521 31.213 62.0386C31.223 62.1063 31.2806 63.033 31.3404 64.0975L31.4491 66.0346L32.6448 67.2381C33.3026 67.8999 33.8753 68.4854 33.9172 68.5387C34.3387 69.0713 34.4396 69.5609 34.2289 70.0361C34.1122 70.2981 33.7902 70.5944 33.416 70.786C33.3418 70.8232 32.4895 71.1973 31.521 71.6154L29.76 72.3765L28.9624 73.9596C28.1174 75.6372 28.1093 75.6543 27.9078 75.8837C27.6556 76.1694 27.3905 76.3421 27.1146 76.4012C26.9638 76.4324 26.7186 76.4164 26.5638 76.3634C26.3438 76.291 26.0849 76.116 25.8919 75.9118C25.8243 75.84 24.9029 74.7312 23.7422 73.3222C23.5694 73.1115 23.4124 72.9299 23.3934 72.9189C23.3743 72.9078 22.6135 72.7961 21.7017 72.6719C20.79 72.5477 19.9556 72.428 19.8477 72.404C19.5007 72.331 19.1728 72.2 19.0182 72.0743Z" fill="url(#paint7_radial_39_775)"/>
<path d="M-2.63112 51.5063C-2.74235 51.4145 -2.8003 51.3258 -2.83024 51.1982C-2.86889 51.038 -2.8385 50.8536 -2.74105 50.6638C-2.70505 50.5919 -1.64563 48.8601 -1.38544 48.4476L-1.34044 48.3754L-1.64602 46.2758L-1.63553 46.1163C-1.62432 45.9308 -1.60525 45.8348 -1.5562 45.7097C-1.4575 45.4567 -1.25526 45.2954 -0.986824 45.2562C-0.886329 45.2425 -0.726237 45.2478 -0.60697 45.2703C-0.557515 45.2801 -0.0234065 45.4031 0.580256 45.5431L1.67779 45.7994L2.60732 45.2967C3.11803 45.0211 3.57245 44.7781 3.61732 44.7577C3.7664 44.6904 3.97373 44.6501 4.1063 44.6649C4.24822 44.6806 4.40845 44.7544 4.50285 44.8486C4.63603 44.9806 4.72964 45.187 4.76296 45.4213C4.76903 45.4624 4.80395 46.0243 4.84023 46.6697L4.90613 47.8442L5.63114 48.574C6.02994 48.9752 6.37722 49.3302 6.40264 49.3625C6.65817 49.6855 6.71937 49.9823 6.5916 50.2704C6.52083 50.4293 6.3256 50.609 6.09872 50.7251C6.05372 50.7477 5.53697 50.9746 4.94974 51.228L3.88197 51.6895L3.39834 52.6494C2.88601 53.6666 2.88111 53.677 2.75892 53.8161C2.60601 53.9893 2.44526 54.094 2.27798 54.1298C2.18658 54.1487 2.03788 54.139 1.944 54.1069C1.81063 54.063 1.65364 53.9569 1.53664 53.8331C1.49564 53.7895 0.936981 53.1172 0.233188 52.2629C0.12841 52.1351 0.033258 52.025 0.0216846 52.0184C0.0101113 52.0117 -0.451196 51.9439 -1.00401 51.8686C-1.55683 51.7933 -2.06276 51.7208 -2.12818 51.7062C-2.33853 51.6619 -2.53734 51.5825 -2.63112 51.5063Z" fill="url(#paint8_radial_39_775)"/>
<path d="M-5.86429 24.7657C-5.94052 24.5988 -5.95756 24.4652 -5.92087 24.3025C-5.87602 24.0977 -5.73875 23.9036 -5.52174 23.7407C-5.44058 23.6784 -3.2656 22.2857 -2.73857 21.9584L-2.64693 21.9008L-1.82939 19.3285L-1.72875 19.1519C-1.61279 18.9459 -1.5376 18.8466 -1.41196 18.7308C-1.15834 18.4961 -0.837274 18.424 -0.508328 18.5283C-0.385725 18.5685 -0.205471 18.6636 -0.0815215 18.7556C-0.0303788 18.7943 0.512378 19.232 1.12528 19.7278L2.23861 20.6312L3.58165 20.5727C4.31922 20.5413 4.97425 20.5159 5.03695 20.5175C5.24494 20.5233 5.50457 20.5925 5.64805 20.6831C5.80169 20.78 5.94403 20.9535 5.99967 21.1137C6.07864 21.3389 6.07106 21.627 5.97888 21.9137C5.96303 21.964 5.69061 22.6264 5.3733 23.3851L4.79578 24.7656L5.21968 26.0036C5.45293 26.6845 5.65296 27.2837 5.66407 27.3348C5.77691 27.8464 5.68193 28.2201 5.37555 28.4787C5.20626 28.6211 4.883 28.7182 4.55882 28.725C4.49479 28.7258 3.7774 28.6981 2.96457 28.6617L1.48625 28.5961L0.399282 29.4255C-0.752416 30.3046 -0.763815 30.3138 -0.98095 30.405C-1.25221 30.5182 -1.49434 30.5487 -1.70566 30.4967C-1.82077 30.4675 -1.98552 30.3737 -2.07507 30.2848C-2.20327 30.1604 -2.32393 29.9517 -2.38897 29.745C-2.41168 29.6724 -2.67716 28.5926 -3.00754 27.2238C-3.05638 27.0194 -3.10405 26.8405 -3.11357 26.8264C-3.1231 26.8123 -3.61329 26.4784 -4.20395 26.0849C-4.79462 25.6913 -5.3332 25.3271 -5.39994 25.274C-5.61605 25.1065 -5.79935 24.905 -5.86429 24.7657Z" fill="url(#paint9_radial_39_775)"/>
<path d="M13.205 1.29585C13.1287 1.12897 13.1117 0.995347 13.1484 0.832687C13.1932 0.627854 13.3305 0.433792 13.5475 0.270807C13.6287 0.208553 15.8036 -1.18414 16.3307 -1.51147L16.4223 -1.56909L17.2399 -4.14134L17.3405 -4.31795C17.4565 -4.52399 17.5316 -4.62326 17.6573 -4.73907C17.9109 -4.97375 18.232 -5.04587 18.5609 -4.9415C18.6835 -4.90131 18.8638 -4.80629 18.9877 -4.71422C19.0389 -4.67552 19.5816 -4.23785 20.1945 -3.74209L21.3079 -2.83867L22.6509 -2.89712C23.3885 -2.92853 24.0435 -2.95393 24.1062 -2.95237C24.3142 -2.9465 24.5738 -2.87733 24.7173 -2.78676C24.8709 -2.68985 25.0133 -2.51639 25.0689 -2.3561C25.1479 -2.13096 25.1403 -1.84285 25.0481 -1.55613C25.0323 -1.50582 24.7599 -0.843467 24.4425 -0.0847669L23.865 1.29576L24.2889 2.53378C24.5222 3.21463 24.7222 3.81385 24.7333 3.86497C24.8462 4.37657 24.7512 4.75023 24.4448 5.00888C24.2755 5.1513 23.9522 5.24836 23.6281 5.25514C23.564 5.25595 22.8466 5.22824 22.0338 5.19181L20.5555 5.12628L19.4685 5.9557C18.3168 6.83479 18.3054 6.84397 18.0883 6.93519C17.817 7.04838 17.5749 7.07881 17.3636 7.02681C17.2485 6.99767 17.0837 6.90389 16.9942 6.81493C16.866 6.69055 16.7453 6.48189 16.6803 6.27518C16.6576 6.20257 16.3921 5.12274 16.0617 3.75398C16.0129 3.54951 15.9652 3.37062 15.9557 3.35654C15.9461 3.34247 15.456 3.00852 14.8653 2.615C14.2746 2.22149 13.736 1.85724 13.6693 1.80417C13.4532 1.63664 13.2699 1.43518 13.205 1.29585Z" fill="url(#paint10_radial_39_775)"/>
<path d="M11.215 36.2991C11.1727 36.1859 11.1678 36.0972 11.1996 35.9921C11.2386 35.8596 11.338 35.7385 11.4882 35.6416C11.5445 35.6045 13.039 34.7915 13.4007 34.6012L13.4636 34.5676L14.1216 32.9158L14.196 32.8045C14.2819 32.6746 14.3359 32.6129 14.4239 32.5427C14.6016 32.4004 14.816 32.368 15.0272 32.4521C15.1059 32.4842 15.2199 32.5551 15.297 32.6215C15.3288 32.6493 15.6649 32.9624 16.0443 33.3169L16.7334 33.9628L17.6187 33.9874C18.1048 34.0014 18.5364 34.0155 18.5775 34.0195C18.7139 34.0331 18.8813 34.0907 18.9713 34.157C19.0677 34.2279 19.1531 34.3485 19.1821 34.4565C19.2235 34.6081 19.205 34.7971 19.1309 34.9812C19.1181 35.0135 18.908 35.4359 18.6639 35.9195L18.2196 36.7996L18.44 37.633C18.5613 38.0913 18.6646 38.4944 18.6695 38.5285C18.7196 38.87 18.6397 39.1111 18.4262 39.2666C18.3083 39.3523 18.0913 39.4009 17.878 39.3901C17.8359 39.3876 17.3658 39.3357 16.8334 39.2736L15.8651 39.1612L15.1119 39.6551C14.3139 40.1787 14.3059 40.1842 14.159 40.2339C13.9754 40.2956 13.8149 40.3042 13.6785 40.2601C13.6042 40.2355 13.5004 40.1662 13.4457 40.1035C13.3673 40.0158 13.2978 39.873 13.2648 39.7341C13.2533 39.6854 13.1295 38.9633 12.9767 38.0484C12.9542 37.9118 12.9313 37.792 12.9257 37.7823C12.9201 37.7726 12.6137 37.5302 12.244 37.2438C11.8744 36.9575 11.5376 36.6929 11.4962 36.6549C11.3621 36.5347 11.2511 36.3937 11.215 36.2991Z" fill="url(#paint11_radial_39_775)"/>
<path d="M166.643 3.76671C166.601 3.65348 166.596 3.56488 166.627 3.45972C166.667 3.32723 166.766 3.20616 166.916 3.10925C166.972 3.07216 168.467 2.25916 168.829 2.06882L168.892 2.03526L169.549 0.383447L169.624 0.272124C169.71 0.142187 169.764 0.0804877 169.852 0.0102863C170.029 -0.13201 170.244 -0.164322 170.455 -0.0803003C170.534 -0.0481319 170.648 0.022769 170.725 0.0890856C170.757 0.116918 171.093 0.429987 171.472 0.784528L172.161 1.43043L173.047 1.45508C173.533 1.46908 173.964 1.48314 174.005 1.48711C174.142 1.50074 174.309 1.55837 174.399 1.62463C174.496 1.69552 174.581 1.81618 174.61 1.92412C174.651 2.07576 174.633 2.26472 174.559 2.44879C174.546 2.48111 174.336 2.90354 174.092 3.38717L173.648 4.26719L173.868 5.10058C173.989 5.55891 174.093 5.96204 174.097 5.99616C174.148 6.33762 174.068 6.57869 173.854 6.73426C173.736 6.81989 173.519 6.86849 173.306 6.85773C173.264 6.85525 172.794 6.80336 172.261 6.74126L171.293 6.62879L170.54 7.12275C169.742 7.64631 169.734 7.65181 169.587 7.70156C169.403 7.7632 169.243 7.77182 169.106 7.72773C169.032 7.70318 168.928 7.63382 168.874 7.57116C168.795 7.48341 168.726 7.34064 168.693 7.20176C168.681 7.15298 168.557 6.43097 168.405 5.51606C168.382 5.37941 168.359 5.25963 168.354 5.24993C168.348 5.24023 168.042 4.99778 167.672 4.71148C167.302 4.42517 166.965 4.16054 166.924 4.12253C166.79 4.0023 166.679 3.86132 166.643 3.76671Z" fill="url(#paint12_radial_39_775)"/>
<path fill-rule="evenodd" clip-rule="evenodd" d="M15.7559 61.7704C15.8116 60.4022 15.5001 59.916 15.005 59.1607C14.2424 57.9972 12.2194 57.2269 10.7262 58.2057C9.76628 58.8349 9.33086 59.6396 9.14228 60.1341C9.10983 60.2192 9.08469 60.2951 9.06545 60.3594C8.95889 60.6299 9.06535 60.5591 8.7823 60.5492C8.71517 60.541 8.63445 60.5336 8.54194 60.5293C8.01357 60.5046 7.10071 60.5821 6.1394 61.2122C4.64619 62.191 4.54551 64.3533 5.30817 65.5168C6.07083 66.6804 7.37822 67.4641 8.93586 67.6626C10.4935 67.8611 11.4953 67.9338 12.5036 67.9021C12.6608 67.8972 12.8001 67.8938 12.9233 67.8916C13.5899 67.8794 13.9819 67.5039 14.152 67.1126C14.2118 66.975 14.2709 66.8358 14.3218 66.7104C14.5174 66.2282 14.74 65.6701 14.74 65.6701C14.74 65.6701 15.7002 63.1385 15.7559 61.7704Z" fill="url(#paint13_radial_39_775)"/>
<path fill-rule="evenodd" clip-rule="evenodd" d="M33.9305 17.2686C35.1148 16.1285 35.2506 15.4472 35.4519 14.3795C35.7621 12.7349 34.6612 10.3808 32.5633 9.98519C31.2147 9.73087 30.1716 10.0659 29.5986 10.3376C29.5 10.3844 29.4153 10.4292 29.3454 10.4689C29.029 10.6147 29.1794 10.6421 28.944 10.3976C28.8931 10.3345 28.8298 10.2608 28.7538 10.1799C28.3197 9.71817 27.4697 9.02464 26.1192 8.76994C24.0213 8.37432 22.1386 10.1657 21.8284 11.8104C21.5183 13.4551 21.9923 15.2244 23.1677 16.6947C24.3432 18.1651 25.1448 19.063 26.0388 19.8759C26.1782 20.0027 26.3009 20.1158 26.4087 20.2165C26.9924 20.7616 27.6416 20.7626 28.113 20.565C28.2787 20.4955 28.4452 20.424 28.5932 20.3576C29.1621 20.1025 29.8172 19.804 29.8172 19.804C29.8172 19.804 32.7462 18.4087 33.9305 17.2686Z" fill="url(#paint14_radial_39_775)"/>
<path fill-rule="evenodd" clip-rule="evenodd" d="M4.44946 8.21071C5.30524 7.17677 5.35269 6.6116 5.41772 5.72692C5.5179 4.36414 4.40804 2.55581 2.66976 2.42803C1.5523 2.34589 0.736976 2.71369 0.297124 2.98689C0.221441 3.03389 0.156876 3.0781 0.103799 3.11673C-0.139435 3.26414 -0.0149183 3.27248 -0.228339 3.09581C-0.275497 3.04937 -0.333611 2.99537 -0.402719 2.93678C-0.797424 2.60214 -1.55077 2.11778 -2.66985 2.03551C-4.40814 1.90773 -5.7705 3.53432 -5.87067 4.8971C-5.97085 6.25987 -5.42342 7.65158 -4.33448 8.73613C-3.24553 9.82068 -2.51253 10.4753 -1.71247 11.0524C-1.58771 11.1424 -1.47778 11.2229 -1.38102 11.2947C-0.857304 11.6831 -0.330575 11.6241 0.0336175 11.4205C0.161677 11.3488 0.290162 11.2755 0.404108 11.208C0.84211 10.9487 1.34606 10.6462 1.34606 10.6462C1.34606 10.6462 3.59369 9.24464 4.44946 8.21071Z" fill="url(#paint15_radial_39_775)"/>
<path fill-rule="evenodd" clip-rule="evenodd" d="M62.8627 4.61973C64.0413 3.97755 64.2952 3.47042 64.6842 2.67316C65.2833 1.44505 64.9244 -0.646119 63.3578 -1.41032C62.3508 -1.90158 61.4572 -1.86288 60.9474 -1.77257C60.8596 -1.75703 60.7833 -1.73996 60.7196 -1.7238C60.4391 -1.67727 60.5516 -1.62328 60.419 -1.86657C60.3925 -1.92721 60.3586 -1.99893 60.3162 -2.079C60.074 -2.53628 59.5544 -3.26578 58.5459 -3.75776C56.9794 -4.52196 55.1104 -3.51764 54.5113 -2.28953C53.9121 -1.06142 53.9036 0.434064 54.5119 1.84546C55.1202 3.25685 55.5576 4.13686 56.0862 4.96985C56.1686 5.09974 56.2407 5.21531 56.3039 5.31787C56.6459 5.87301 57.1569 6.01388 57.5707 5.96C57.7162 5.94106 57.8627 5.92068 57.9936 5.90035C58.4966 5.82223 59.0768 5.72856 59.0768 5.72856C59.0768 5.72856 61.6842 5.26192 62.8627 4.61973Z" fill="url(#paint16_radial_39_775)"/>
<path d="M200.714 51.5263C200.26 53.3106 201.546 54.2984 202.245 54.5693C203.114 54.7205 203.511 53.9833 203.53 53.3596C203.549 52.7359 203.209 51.6018 202.982 50.8458C202.755 50.0898 201.281 49.296 200.714 51.5263Z" fill="url(#paint17_radial_39_775)"/>
<path d="M200.922 61.1469C200.136 60.7235 200.569 59.0552 200.884 58.2739C200.922 57.0265 201.678 56.7996 202.302 56.8185C202.925 56.8374 203.02 57.8391 203.133 58.2172C203.247 58.5952 202.831 59.9561 202.566 60.4475C202.302 60.9389 201.905 61.6761 200.922 61.1469Z" fill="url(#paint18_radial_39_775)"/>
<path d="M198.692 64.7003C199.13 63.415 199.983 63.2827 200.355 63.3772C201.224 63.5284 201.073 64.3978 201.035 65.6453C200.998 66.8927 199.618 67.1007 199.372 66.9684C199.127 66.8361 198.144 66.3069 198.692 64.7003Z" fill="url(#paint19_radial_39_775)"/>
<path d="M183.401 16.9971C184.371 18.5619 185.974 18.322 186.655 18.0064C187.367 17.4853 187.111 16.688 186.675 16.2415C186.239 15.7951 185.187 15.2531 184.485 14.8918C183.783 14.5305 182.189 15.0412 183.401 16.9971Z" fill="url(#paint20_radial_39_775)"/>
<path d="M190.473 23.5234C189.622 23.7957 188.722 22.3259 188.378 21.557C187.506 20.6641 187.867 19.9624 188.313 19.5263C188.76 19.0903 189.547 19.7174 189.898 19.8981C190.248 20.0787 190.94 21.3225 191.11 21.854C191.28 22.3856 191.536 23.1829 190.473 23.5234Z" fill="url(#paint21_radial_39_775)"/>
<path d="M191.484 27.5951C190.862 26.3875 191.359 25.6814 191.685 25.4793C192.397 24.9582 192.918 25.6704 193.79 26.5633C194.662 27.4561 193.855 28.5939 193.589 28.679C193.323 28.7641 192.26 29.1046 191.484 27.5951Z" fill="url(#paint22_radial_39_775)"/>
<path d="M16.6176 35.3103C17.6271 33.7707 16.7333 32.4184 16.1602 31.9346C15.3873 31.5087 14.7722 32.0766 14.5513 32.6602C14.3304 33.2438 14.2831 34.4268 14.2515 35.2155C14.2199 36.0042 15.3556 37.2346 16.6176 35.3103Z" fill="url(#paint23_radial_39_775)"/>
<path d="M19.5518 26.1457C20.1575 26.8019 19.2047 28.2384 18.6526 28.8746C18.2109 30.0418 17.4222 30.0103 16.8386 29.7894C16.255 29.5686 16.4916 28.5906 16.5074 28.1963C16.5232 27.8019 17.3592 26.6504 17.7694 26.2719C18.1795 25.8933 18.7947 25.3255 19.5518 26.1457Z" fill="url(#paint24_radial_39_775)"/>
<path d="M22.8171 23.5116C21.9842 24.5842 21.1345 24.4317 20.8138 24.2214C20.0409 23.7954 20.4668 23.0225 20.9085 21.8553C21.3502 20.688 22.7225 20.9404 22.9118 21.1455C23.1011 21.3506 23.8582 22.1708 22.8171 23.5116Z" fill="url(#paint25_radial_39_775)"/>
<path d="M25.7739 66.7069C25.0122 65.0309 23.3915 65.0636 22.6763 65.2895C21.9032 65.7151 22.0545 66.5386 22.4298 67.0371C22.805 67.5357 23.7796 68.208 24.4294 68.6562C25.0791 69.1043 26.726 68.802 25.7739 66.7069Z" fill="url(#paint26_radial_39_775)"/>
<path d="M18.218 57.9989C19.0963 57.8376 19.8012 59.4106 20.0439 60.2173C20.7944 61.2144 20.3462 61.8641 19.8477 62.2394C19.3491 62.6147 18.649 61.892 18.3241 61.6679C17.9992 61.4438 17.4728 60.1218 17.372 59.5729C17.2712 59.0239 17.12 58.2004 18.218 57.9989Z" fill="url(#paint27_radial_39_775)"/>
<path d="M17.8433 53.817C18.3048 55.0942 17.7218 55.7308 17.3726 55.8895C16.5996 56.3152 16.1739 55.5421 15.4234 54.545C14.6728 53.5478 15.6196 52.5228 15.8941 52.4724C16.1686 52.422 17.2665 52.2205 17.8433 53.817Z" fill="url(#paint28_radial_39_775)"/>
<path d="M211.996 3.94573C212.966 5.51049 214.569 5.27055 215.249 4.95499C215.961 4.43385 215.706 3.63657 215.27 3.19014C214.834 2.74371 213.781 2.20172 213.08 1.84041C212.378 1.47909 210.783 1.98978 211.996 3.94573Z" fill="url(#paint29_radial_39_775)"/>
<path d="M219.067 10.472C218.217 10.7443 217.316 9.27453 216.972 8.50559C216.1 7.61273 216.462 6.91095 216.908 6.47495C217.354 6.03895 218.141 6.66603 218.492 6.84669C218.843 7.02735 219.534 8.27109 219.705 8.80264C219.875 9.33418 220.13 10.1315 219.067 10.472Z" fill="url(#paint30_radial_39_775)"/>
<path d="M220.078 14.5437C219.457 13.3361 219.954 12.63 220.28 12.4279C220.992 11.9068 221.513 12.619 222.385 13.5119C223.257 14.4047 222.449 15.5425 222.183 15.6276C221.918 15.7127 220.855 16.0532 220.078 14.5437Z" fill="url(#paint31_radial_39_775)"/>
<path d="M5.61975 71.5984C6.35898 72.5629 6.43699 73.7443 5.794 74.2371C5.15101 74.7299 4.0305 74.3476 3.29128 73.3831C2.55205 72.4186 2.47404 71.2372 3.11703 70.7444C3.76002 70.2516 4.88052 70.6339 5.61975 71.5984Z" fill="url(#paint32_radial_39_775)"/>
<path d="M14.2864 12.9218C14.1752 14.1319 13.4311 15.0528 12.6244 14.9787C11.8177 14.9046 11.2538 13.8636 11.3649 12.6535C11.4761 11.4434 12.2202 10.5225 13.0269 10.5966C13.8336 10.6707 14.3975 11.7117 14.2864 12.9218Z" fill="url(#paint33_radial_39_775)"/>
<path d="M43.4516 6.64109C42.5711 7.47863 41.3654 7.64049 40.7587 7.00262C40.1519 6.36475 40.3738 5.16869 41.2542 4.33116C42.1347 3.49362 43.3403 3.33176 43.9471 3.96963C44.5539 4.6075 44.332 5.80356 43.4516 6.64109Z" fill="url(#paint34_radial_39_775)"/>
<path d="M39.9186 65.4276C38.9529 64.69 38.6031 63.5249 39.1375 62.8253C39.6718 62.1256 40.8879 62.1563 41.8536 62.8939C42.8194 63.6314 43.1691 64.7965 42.6348 65.4962C42.1004 66.1959 40.8844 66.1652 39.9186 65.4276Z" fill="url(#paint35_radial_39_775)"/>
<path fill-rule="evenodd" clip-rule="evenodd" d="M217.524 43.6174C218.38 42.5835 218.427 42.0183 218.492 41.1336C218.592 39.7708 217.482 37.9625 215.744 37.8347C214.627 37.7526 213.811 38.1204 213.372 38.3936C213.296 38.4406 213.231 38.4848 213.178 38.5234C212.935 38.6708 213.06 38.6792 212.846 38.5025C212.799 38.4561 212.741 38.4021 212.672 38.3435C212.277 38.0088 211.524 37.5245 210.405 37.4422C208.666 37.3144 207.304 38.941 207.204 40.3038C207.104 41.6666 207.651 43.0583 208.74 44.1428C209.829 45.2274 210.562 45.882 211.362 46.4591C211.487 46.5491 211.597 46.6296 211.693 46.7014C212.217 47.0898 212.744 47.0308 213.108 46.8272C213.236 46.7555 213.365 46.6822 213.479 46.6147C213.917 46.3554 214.421 46.0529 214.421 46.0529C214.421 46.0529 216.668 44.6513 217.524 43.6174Z" fill="url(#paint36_radial_39_775)"/>
<path d="M204.727 28.6019C203.761 27.8644 203.411 26.6993 203.946 25.9996C204.48 25.2999 205.696 25.3307 206.662 26.0682C207.627 26.8058 207.977 27.9709 207.443 28.6705C206.909 29.3702 205.692 29.3395 204.727 28.6019Z" fill="url(#paint37_radial_39_775)"/>
<path fill-rule="evenodd" clip-rule="evenodd" d="M28.6442 48.0183C29.5 46.9843 29.5474 46.4192 29.6125 45.5345C29.7127 44.1717 28.6028 42.3634 26.8645 42.2356C25.7471 42.1534 24.9317 42.5212 24.4919 42.7944C24.4162 42.8415 24.3516 42.8857 24.2986 42.9243C24.0553 43.0717 24.1798 43.08 23.9664 42.9034C23.9193 42.8569 23.8611 42.8029 23.792 42.7443C23.3973 42.4097 22.644 41.9253 21.5249 41.8431C19.7866 41.7153 18.4243 43.3419 18.3241 44.7047C18.2239 46.0674 18.7713 47.4591 19.8603 48.5437C20.9492 49.6282 21.6822 50.2828 22.4823 50.86C22.607 50.95 22.717 51.0305 22.8137 51.1022C23.3375 51.4907 23.8642 51.4317 24.2284 51.228C24.3564 51.1564 24.4849 51.083 24.5989 51.0156C25.0369 50.7563 25.5408 50.4538 25.5408 50.4538C25.5408 50.4538 27.7884 49.0522 28.6442 48.0183Z" fill="url(#paint38_radial_39_775)"/>
</g>
<path d="M77.3411 44.7106C77.1768 44.7106 77.0371 44.6531 76.9221 44.5381C76.8072 44.4231 76.7497 44.2835 76.7497 44.1192V32.4882C76.7497 32.324 76.8072 32.1843 76.9221 32.0693C77.0371 31.9543 77.1768 31.8968 77.3411 31.8968H79.3863C79.567 31.8968 79.7067 31.9543 79.8052 32.0693C79.9202 32.1843 79.9777 32.324 79.9777 32.4882V44.1192C79.9777 44.2835 79.9202 44.4231 79.8052 44.5381C79.7067 44.6531 79.567 44.7106 79.3863 44.7106H77.3411ZM77.2425 29.7776C77.0618 29.7776 76.9139 29.7283 76.7989 29.6298C76.7004 29.5148 76.6511 29.3669 76.6511 29.1862V27.412C76.6511 27.2477 76.7004 27.1081 76.7989 26.9931C76.9139 26.8781 77.0618 26.8206 77.2425 26.8206H79.4849C79.6656 26.8206 79.8135 26.8781 79.9285 26.9931C80.0435 27.1081 80.101 27.2477 80.101 27.412V29.1862C80.101 29.3669 80.0435 29.5148 79.9285 29.6298C79.8135 29.7283 79.6656 29.7776 79.4849 29.7776H77.2425ZM83.8384 44.7106C83.6742 44.7106 83.5345 44.6531 83.4195 44.5381C83.3045 44.4231 83.247 44.2835 83.247 44.1192V32.4882C83.247 32.324 83.3045 32.1843 83.4195 32.0693C83.5345 31.9543 83.6742 31.8968 83.8384 31.8968H85.7605C85.9248 31.8968 86.0644 31.9543 86.1794 32.0693C86.2944 32.1843 86.3519 32.324 86.3519 32.4882V33.3261C86.6969 32.8661 87.1569 32.48 87.7318 32.1679C88.3233 31.8393 89.0214 31.6668 89.8264 31.6504C91.6992 31.6176 93.0052 32.3486 93.7445 33.8435C94.1223 33.1864 94.6644 32.6607 95.3708 32.2665C96.0937 31.8558 96.8904 31.6504 97.7611 31.6504C98.6153 31.6504 99.3875 31.8475 100.077 32.2418C100.784 32.6361 101.334 33.2357 101.728 34.0407C102.139 34.8292 102.344 35.8313 102.344 37.047V44.1192C102.344 44.2835 102.287 44.4231 102.172 44.5381C102.057 44.6531 101.917 44.7106 101.753 44.7106H99.7324C99.5682 44.7106 99.4285 44.6531 99.3135 44.5381C99.1985 44.4231 99.141 44.2835 99.141 44.1192V37.2441C99.141 36.5049 99.0343 35.9217 98.8207 35.4945C98.6071 35.051 98.3196 34.7389 97.9582 34.5581C97.5968 34.3774 97.1943 34.2871 96.7508 34.2871C96.3894 34.2871 96.0279 34.3774 95.6665 34.5581C95.3051 34.7389 95.0094 35.051 94.7794 35.4945C94.5494 35.9217 94.4344 36.5049 94.4344 37.2441V44.1192C94.4344 44.2835 94.3769 44.4231 94.2619 44.5381C94.147 44.6531 94.0073 44.7106 93.843 44.7106H91.8224C91.6417 44.7106 91.4938 44.6531 91.3788 44.5381C91.2803 44.4231 91.231 44.2835 91.231 44.1192V37.2441C91.231 36.5049 91.116 35.9217 90.886 35.4945C90.656 35.051 90.3603 34.7389 89.9989 34.5581C89.6375 34.3774 89.2514 34.2871 88.8407 34.2871C88.4629 34.2871 88.0933 34.3857 87.7318 34.5828C87.3704 34.7635 87.0747 35.0674 86.8447 35.4945C86.6148 35.9217 86.4998 36.5049 86.4998 37.2441V44.1192C86.4998 44.2835 86.4423 44.4231 86.3273 44.5381C86.2123 44.6531 86.0726 44.7106 85.9083 44.7106H83.8384ZM106.099 49.3926C105.934 49.3926 105.795 49.3351 105.68 49.2201C105.565 49.1051 105.507 48.9654 105.507 48.8012V32.4882C105.507 32.324 105.565 32.1843 105.68 32.0693C105.795 31.9543 105.934 31.8968 106.099 31.8968H108.045C108.226 31.8968 108.366 31.9543 108.464 32.0693C108.579 32.1843 108.637 32.324 108.637 32.4882V33.4739C109.031 32.9482 109.548 32.5129 110.189 32.1679C110.83 31.8229 111.627 31.6504 112.579 31.6504C113.45 31.6504 114.206 31.79 114.846 32.0693C115.487 32.3486 116.021 32.7511 116.448 33.2768C116.875 33.786 117.204 34.3939 117.434 35.1003C117.664 35.8067 117.795 36.587 117.828 37.4413C117.844 37.7205 117.853 38.008 117.853 38.3037C117.853 38.5994 117.844 38.8951 117.828 39.1908C117.812 40.0122 117.688 40.7761 117.458 41.4825C117.228 42.1725 116.892 42.7803 116.448 43.306C116.021 43.8153 115.487 44.2178 114.846 44.5135C114.206 44.8092 113.45 44.957 112.579 44.957C111.692 44.957 110.937 44.801 110.312 44.4888C109.688 44.1603 109.179 43.7331 108.784 43.2075V48.8012C108.784 48.9654 108.727 49.1051 108.612 49.2201C108.513 49.3351 108.374 49.3926 108.193 49.3926H106.099ZM111.668 42.3203C112.374 42.3203 112.924 42.1725 113.319 41.8768C113.713 41.5647 113.992 41.1622 114.156 40.6693C114.337 40.1765 114.444 39.6344 114.477 39.043C114.51 38.5501 114.51 38.0573 114.477 37.5645C114.444 36.9731 114.337 36.4309 114.156 35.9381C113.992 35.4453 113.713 35.051 113.319 34.7553C112.924 34.4432 112.374 34.2871 111.668 34.2871C110.994 34.2871 110.444 34.4432 110.017 34.7553C109.606 35.0674 109.302 35.4699 109.105 35.9627C108.924 36.4391 108.817 36.932 108.784 37.4413C108.768 37.737 108.76 38.0491 108.76 38.3776C108.76 38.7062 108.768 39.0265 108.784 39.3387C108.801 39.8315 108.916 40.3079 109.129 40.7679C109.343 41.2115 109.655 41.5811 110.066 41.8768C110.477 42.1725 111.01 42.3203 111.668 42.3203ZM121.235 44.7106C121.071 44.7106 120.931 44.6531 120.816 44.5381C120.701 44.4231 120.644 44.2835 120.644 44.1192V27.8063C120.644 27.642 120.701 27.5024 120.816 27.3874C120.931 27.2724 121.071 27.2149 121.235 27.2149H123.28C123.445 27.2149 123.584 27.2724 123.699 27.3874C123.814 27.5024 123.872 27.642 123.872 27.8063V44.1192C123.872 44.2835 123.814 44.4231 123.699 44.5381C123.584 44.6531 123.445 44.7106 123.28 44.7106H121.235ZM129.457 49.3926C129.325 49.3926 129.21 49.3433 129.112 49.2447C129.013 49.1461 128.964 49.0311 128.964 48.8997C128.964 48.834 128.964 48.7683 128.964 48.7026C128.98 48.6533 129.013 48.5876 129.062 48.5055L130.985 43.9467L126.253 32.7839C126.188 32.6197 126.155 32.5047 126.155 32.4389C126.171 32.2911 126.229 32.1679 126.327 32.0693C126.426 31.9543 126.549 31.8968 126.697 31.8968H128.693C128.89 31.8968 129.038 31.9461 129.136 32.0447C129.235 32.1432 129.309 32.25 129.358 32.365L132.636 40.4229L136.011 32.365C136.061 32.2336 136.135 32.1268 136.233 32.0447C136.332 31.9461 136.48 31.8968 136.677 31.8968H138.648C138.78 31.8968 138.895 31.9461 138.993 32.0447C139.108 32.1432 139.166 32.2582 139.166 32.3897C139.166 32.4882 139.133 32.6197 139.067 32.7839L132.093 48.9244C132.028 49.0558 131.946 49.1626 131.847 49.2447C131.748 49.3433 131.601 49.3926 131.403 49.3926H129.457ZM140.434 44.7106C140.27 44.7106 140.13 44.6531 140.015 44.5381C139.9 44.4231 139.843 44.2835 139.843 44.1192V41.6797C139.843 41.4989 139.9 41.3511 140.015 41.2361C140.13 41.1211 140.27 41.0636 140.434 41.0636H142.898C143.063 41.0636 143.202 41.1211 143.317 41.2361C143.432 41.3511 143.49 41.4989 143.49 41.6797V44.1192C143.49 44.2835 143.432 44.4231 143.317 44.5381C143.202 44.6531 143.063 44.7106 142.898 44.7106H140.434ZM150.305 44.957C149.451 44.957 148.679 44.7927 147.989 44.4642C147.299 44.1192 146.749 43.6674 146.338 43.1089C145.944 42.5339 145.747 41.8932 145.747 41.1868C145.747 40.0369 146.207 39.1251 147.126 38.4516C148.063 37.7616 149.295 37.3016 150.823 37.0716L154.199 36.5788V36.0613C154.199 35.3713 154.026 34.8374 153.681 34.4596C153.336 34.0817 152.745 33.8928 151.907 33.8928C151.316 33.8928 150.831 34.016 150.453 34.2624C150.092 34.4924 149.821 34.8046 149.64 35.1988C149.509 35.4124 149.32 35.5192 149.073 35.5192H147.126C146.946 35.5192 146.806 35.4699 146.708 35.3713C146.625 35.2728 146.584 35.1413 146.584 34.9771C146.601 34.7142 146.708 34.3939 146.905 34.016C147.102 33.6382 147.414 33.2768 147.841 32.9318C148.268 32.5704 148.819 32.2665 149.492 32.02C150.166 31.7736 150.979 31.6504 151.932 31.6504C152.967 31.6504 153.837 31.7818 154.544 32.0447C155.267 32.2911 155.841 32.6279 156.269 33.055C156.696 33.4821 157.008 33.9832 157.205 34.5581C157.402 35.1331 157.501 35.741 157.501 36.3816V44.1192C157.501 44.2835 157.443 44.4231 157.328 44.5381C157.213 44.6531 157.074 44.7106 156.909 44.7106H154.913C154.733 44.7106 154.585 44.6531 154.47 44.5381C154.371 44.4231 154.322 44.2835 154.322 44.1192V43.1582C154.108 43.4703 153.821 43.766 153.459 44.0453C153.098 44.3081 152.654 44.5299 152.129 44.7106C151.62 44.8749 151.012 44.957 150.305 44.957ZM151.143 42.616C151.718 42.616 152.236 42.4928 152.696 42.2464C153.172 42 153.542 41.6222 153.804 41.1129C154.084 40.5872 154.223 39.9301 154.223 39.1415V38.6241L151.759 39.0183C150.79 39.1662 150.067 39.4044 149.591 39.7329C149.114 40.0615 148.876 40.464 148.876 40.9404C148.876 41.3018 148.983 41.6139 149.196 41.8768C149.426 42.1232 149.714 42.3121 150.059 42.4436C150.404 42.5585 150.765 42.616 151.143 42.616ZM161.278 49.3926C161.114 49.3926 160.974 49.3351 160.859 49.2201C160.744 49.1051 160.687 48.9654 160.687 48.8012V32.4882C160.687 32.324 160.744 32.1843 160.859 32.0693C160.974 31.9543 161.114 31.8968 161.278 31.8968H163.225C163.405 31.8968 163.545 31.9543 163.644 32.0693C163.759 32.1843 163.816 32.324 163.816 32.4882V33.4739C164.21 32.9482 164.728 32.5129 165.369 32.1679C166.009 31.8229 166.806 31.6504 167.759 31.6504C168.63 31.6504 169.385 31.79 170.026 32.0693C170.667 32.3486 171.201 32.7511 171.628 33.2768C172.055 33.786 172.383 34.3939 172.613 35.1003C172.843 35.8067 172.975 36.587 173.008 37.4413C173.024 37.7205 173.032 38.008 173.032 38.3037C173.032 38.5994 173.024 38.8951 173.008 39.1908C172.991 40.0122 172.868 40.7761 172.638 41.4825C172.408 42.1725 172.071 42.7803 171.628 43.306C171.201 43.8153 170.667 44.2178 170.026 44.5135C169.385 44.8092 168.63 44.957 167.759 44.957C166.872 44.957 166.116 44.801 165.492 44.4888C164.868 44.1603 164.358 43.7331 163.964 43.2075V48.8012C163.964 48.9654 163.907 49.1051 163.792 49.2201C163.693 49.3351 163.553 49.3926 163.373 49.3926H161.278ZM166.847 42.3203C167.554 42.3203 168.104 42.1725 168.498 41.8768C168.892 41.5647 169.172 41.1622 169.336 40.6693C169.517 40.1765 169.623 39.6344 169.656 39.043C169.689 38.5501 169.689 38.0573 169.656 37.5645C169.623 36.9731 169.517 36.4309 169.336 35.9381C169.172 35.4453 168.892 35.051 168.498 34.7553C168.104 34.4432 167.554 34.2871 166.847 34.2871C166.174 34.2871 165.623 34.4432 165.196 34.7553C164.785 35.0674 164.481 35.4699 164.284 35.9627C164.104 36.4391 163.997 36.932 163.964 37.4413C163.948 37.737 163.939 38.0491 163.939 38.3776C163.939 38.7062 163.948 39.0265 163.964 39.3387C163.98 39.8315 164.095 40.3079 164.309 40.7679C164.523 41.2115 164.835 41.5811 165.245 41.8768C165.656 42.1725 166.19 42.3203 166.847 42.3203ZM176.415 49.3926C176.25 49.3926 176.111 49.3351 175.996 49.2201C175.881 49.1051 175.823 48.9654 175.823 48.8012V32.4882C175.823 32.324 175.881 32.1843 175.996 32.0693C176.111 31.9543 176.25 31.8968 176.415 31.8968H178.361C178.542 31.8968 178.682 31.9543 178.78 32.0693C178.895 32.1843 178.953 32.324 178.953 32.4882V33.4739C179.347 32.9482 179.864 32.5129 180.505 32.1679C181.146 31.8229 181.943 31.6504 182.895 31.6504C183.766 31.6504 184.522 31.79 185.162 32.0693C185.803 32.3486 186.337 32.7511 186.764 33.2768C187.191 33.786 187.52 34.3939 187.75 35.1003C187.98 35.8067 188.111 36.587 188.144 37.4413C188.16 37.7205 188.169 38.008 188.169 38.3037C188.169 38.5994 188.16 38.8951 188.144 39.1908C188.128 40.0122 188.004 40.7761 187.774 41.4825C187.544 42.1725 187.208 42.7803 186.764 43.306C186.337 43.8153 185.803 44.2178 185.162 44.5135C184.522 44.8092 183.766 44.957 182.895 44.957C182.008 44.957 181.253 44.801 180.628 44.4888C180.004 44.1603 179.495 43.7331 179.1 43.2075V48.8012C179.1 48.9654 179.043 49.1051 178.928 49.2201C178.829 49.3351 178.69 49.3926 178.509 49.3926H176.415ZM181.984 42.3203C182.69 42.3203 183.24 42.1725 183.635 41.8768C184.029 41.5647 184.308 41.1622 184.472 40.6693C184.653 40.1765 184.76 39.6344 184.793 39.043C184.826 38.5501 184.826 38.0573 184.793 37.5645C184.76 36.9731 184.653 36.4309 184.472 35.9381C184.308 35.4453 184.029 35.051 183.635 34.7553C183.24 34.4432 182.69 34.2871 181.984 34.2871C181.31 34.2871 180.76 34.4432 180.333 34.7553C179.922 35.0674 179.618 35.4699 179.421 35.9627C179.24 36.4391 179.133 36.932 179.1 37.4413C179.084 37.737 179.076 38.0491 179.076 38.3776C179.076 38.7062 179.084 39.0265 179.1 39.3387C179.117 39.8315 179.232 40.3079 179.445 40.7679C179.659 41.2115 179.971 41.5811 180.382 41.8768C180.793 42.1725 181.326 42.3203 181.984 42.3203Z" fill="white"/>
<rect x="32.082" y="19.082" width="34.4578" height="34.4578" rx="8.12219" fill="url(#paint39_linear_39_775)" stroke="#BABABA" stroke-width="0.164085"/>
<mask id="path-6-inside-1_39_775" fill="white">
<path fill-rule="evenodd" clip-rule="evenodd" d="M52.3465 36.7211C50.8966 36.7211 49.7212 37.8965 49.7212 39.3465V42.4641C49.7212 45.6358 52.2924 48.2071 55.4642 48.2071C58.6359 48.2071 61.2071 45.6358 61.2071 42.4641C61.2071 39.2923 58.6359 36.7211 55.4642 36.7211H52.3465Z"/>
</mask>
<path fill-rule="evenodd" clip-rule="evenodd" d="M52.3465 36.7211C50.8966 36.7211 49.7212 37.8965 49.7212 39.3465V42.4641C49.7212 45.6358 52.2924 48.2071 55.4642 48.2071C58.6359 48.2071 61.2071 45.6358 61.2071 42.4641C61.2071 39.2923 58.6359 36.7211 55.4642 36.7211H52.3465Z" fill="url(#paint40_linear_39_775)"/>
<path d="M49.8853 39.3465C49.8853 37.9872 50.9872 36.8852 52.3465 36.8852V36.5571C50.806 36.5571 49.5571 37.8059 49.5571 39.3465H49.8853ZM49.8853 42.4641V39.3465H49.5571V42.4641H49.8853ZM55.4642 48.043C52.383 48.043 49.8853 45.5452 49.8853 42.4641H49.5571C49.5571 45.7265 52.2018 48.3711 55.4642 48.3711V48.043ZM61.043 42.4641C61.043 45.5452 58.5453 48.043 55.4642 48.043V48.3711C58.7265 48.3711 61.3712 45.7265 61.3712 42.4641H61.043ZM55.4642 36.8852C58.5453 36.8852 61.043 39.383 61.043 42.4641H61.3712C61.3712 39.2017 58.7265 36.5571 55.4642 36.5571V36.8852ZM52.3465 36.8852H55.4642V36.5571H52.3465V36.8852Z" fill="#2D37FA" mask="url(#path-6-inside-1_39_775)"/>
<mask id="path-8-inside-2_39_775" fill="white">
<path fill-rule="evenodd" clip-rule="evenodd" d="M48.9006 39.3465C48.9006 37.8965 47.7252 36.7211 46.2753 36.7211L43.1577 36.7211C39.9859 36.7211 37.4147 39.2923 37.4147 42.4641C37.4147 45.6358 39.9859 48.2071 43.1577 48.2071C46.3294 48.2071 48.9006 45.6358 48.9006 42.4641L48.9006 39.3465Z"/>
</mask>
<path fill-rule="evenodd" clip-rule="evenodd" d="M48.9006 39.3465C48.9006 37.8965 47.7252 36.7211 46.2753 36.7211L43.1577 36.7211C39.9859 36.7211 37.4147 39.2923 37.4147 42.4641C37.4147 45.6358 39.9859 48.2071 43.1577 48.2071C46.3294 48.2071 48.9006 45.6358 48.9006 42.4641L48.9006 39.3465Z" fill="url(#paint41_linear_39_775)"/>
<path d="M46.2753 36.8852C47.6346 36.8852 48.7366 37.9872 48.7366 39.3465L49.0647 39.3465C49.0647 37.8059 47.8158 36.5571 46.2753 36.5571L46.2753 36.8852ZM43.1577 36.8852L46.2753 36.8852L46.2753 36.5571L43.1577 36.5571L43.1577 36.8852ZM37.5788 42.4641C37.5788 39.383 40.0765 36.8852 43.1577 36.8852L43.1577 36.5571C39.8953 36.5571 37.2506 39.2017 37.2506 42.4641L37.5788 42.4641ZM43.1577 48.043C40.0765 48.043 37.5788 45.5452 37.5788 42.4641L37.2506 42.4641C37.2506 45.7265 39.8953 48.3711 43.1577 48.3711L43.1577 48.043ZM48.7365 42.4641C48.7365 45.5452 46.2388 48.043 43.1577 48.043L43.1577 48.3711C46.42 48.3711 49.0647 45.7265 49.0647 42.4641L48.7365 42.4641ZM48.7366 39.3465L48.7365 42.4641L49.0647 42.4641L49.0647 39.3465L48.7366 39.3465Z" fill="#F82031" mask="url(#path-8-inside-2_39_775)"/>
<mask id="path-10-inside-3_39_775" fill="white">
<path fill-rule="evenodd" clip-rule="evenodd" d="M46.2753 35.9007C47.7252 35.9007 48.9006 34.7253 48.9006 33.2754L48.9006 30.1578C48.9006 26.986 46.3294 24.4148 43.1577 24.4148C39.9859 24.4148 37.4147 26.986 37.4147 30.1577C37.4147 33.3295 39.9859 35.9007 43.1577 35.9007L46.2753 35.9007Z"/>
</mask>
<path fill-rule="evenodd" clip-rule="evenodd" d="M46.2753 35.9007C47.7252 35.9007 48.9006 34.7253 48.9006 33.2754L48.9006 30.1578C48.9006 26.986 46.3294 24.4148 43.1577 24.4148C39.9859 24.4148 37.4147 26.986 37.4147 30.1577C37.4147 33.3295 39.9859 35.9007 43.1577 35.9007L46.2753 35.9007Z" fill="url(#paint42_linear_39_775)"/>
<path d="M48.7366 33.2754C48.7366 34.6347 47.6346 35.7366 46.2753 35.7366L46.2753 36.0648C47.8158 36.0648 49.0647 34.8159 49.0647 33.2754L48.7366 33.2754ZM48.7366 30.1578L48.7366 33.2754L49.0647 33.2754L49.0647 30.1578L48.7366 30.1578ZM43.1577 24.5789C46.2388 24.5789 48.7366 27.0766 48.7366 30.1578L49.0647 30.1578C49.0647 26.8954 46.42 24.2507 43.1577 24.2507L43.1577 24.5789ZM37.5788 30.1577C37.5788 27.0766 40.0765 24.5789 43.1577 24.5789L43.1577 24.2507C39.8953 24.2507 37.2506 26.8954 37.2506 30.1577L37.5788 30.1577ZM43.1577 35.7366C40.0765 35.7366 37.5788 33.2389 37.5788 30.1577L37.2506 30.1577C37.2506 33.4201 39.8953 36.0648 43.1577 36.0648L43.1577 35.7366ZM46.2753 35.7366L43.1577 35.7366L43.1577 36.0648L46.2753 36.0648L46.2753 35.7366Z" fill="#F65719" mask="url(#path-10-inside-3_39_775)"/>
<mask id="path-12-inside-4_39_775" fill="white">
<path fill-rule="evenodd" clip-rule="evenodd" d="M49.7212 33.2754C49.7212 34.7253 50.8966 35.9007 52.3465 35.9007L55.4642 35.9007C58.6359 35.9007 61.2071 33.3295 61.2071 30.1577C61.2071 26.986 58.6359 24.4148 55.4642 24.4148C52.2924 24.4148 49.7212 26.986 49.7212 30.1578L49.7212 33.2754Z"/>
</mask>
<path fill-rule="evenodd" clip-rule="evenodd" d="M49.7212 33.2754C49.7212 34.7253 50.8966 35.9007 52.3465 35.9007L55.4642 35.9007C58.6359 35.9007 61.2071 33.3295 61.2071 30.1577C61.2071 26.986 58.6359 24.4148 55.4642 24.4148C52.2924 24.4148 49.7212 26.986 49.7212 30.1578L49.7212 33.2754Z" fill="url(#paint43_linear_39_775)"/>
<path d="M52.3465 35.7366C50.9872 35.7366 49.8853 34.6347 49.8853 33.2754L49.5571 33.2754C49.5571 34.8159 50.806 36.0648 52.3465 36.0648L52.3465 35.7366ZM55.4642 35.7366L52.3465 35.7366L52.3465 36.0648L55.4642 36.0648L55.4642 35.7366ZM61.043 30.1577C61.043 33.2389 58.5453 35.7366 55.4642 35.7366L55.4642 36.0648C58.7265 36.0648 61.3712 33.4201 61.3712 30.1577L61.043 30.1577ZM55.4642 24.5789C58.5453 24.5789 61.043 27.0766 61.043 30.1577L61.3712 30.1577C61.3712 26.8954 58.7265 24.2507 55.4642 24.2507L55.4642 24.5789ZM49.8853 30.1578C49.8853 27.0766 52.383 24.5789 55.4642 24.5789L55.4642 24.2507C52.2018 24.2507 49.5571 26.8954 49.5571 30.1578L49.8853 30.1578ZM49.8853 33.2754L49.8853 30.1578L49.5571 30.1578L49.5571 33.2754L49.8853 33.2754Z" fill="#418F60" mask="url(#path-12-inside-4_39_775)"/>
<defs>
<radialGradient id="paint0_radial_39_775" cx="0" cy="0" r="1" gradientUnits="userSpaceOnUse" gradientTransform="translate(115.937 40.9532) rotate(90) scale(36.6716 92.7931)">
<stop/>
<stop offset="1" stop-color="#0F0F0F"/>
</radialGradient>
<radialGradient id="paint1_radial_39_775" cx="0" cy="0" r="1" gradientUnits="userSpaceOnUse" gradientTransform="translate(115.937 40.9532) rotate(90) scale(36.6716 92.7931)">
<stop/>
<stop offset="1" stop-color="#0F0F0F"/>
</radialGradient>
<radialGradient id="paint2_radial_39_775" cx="0" cy="0" r="1" gradientUnits="userSpaceOnUse" gradientTransform="translate(115.937 40.9532) rotate(90) scale(36.6716 92.7931)">
<stop/>
<stop offset="1" stop-color="#0F0F0F"/>
</radialGradient>
<radialGradient id="paint3_radial_39_775" cx="0" cy="0" r="1" gradientUnits="userSpaceOnUse" gradientTransform="translate(115.937 40.9532) rotate(90) scale(36.6716 92.7931)">
<stop/>
<stop offset="1" stop-color="#0F0F0F"/>
</radialGradient>
<radialGradient id="paint4_radial_39_775" cx="0" cy="0" r="1" gradientUnits="userSpaceOnUse" gradientTransform="translate(115.937 40.9532) rotate(90) scale(36.6716 92.7931)">
<stop/>
<stop offset="1" stop-color="#0F0F0F"/>
</radialGradient>
<radialGradient id="paint5_radial_39_775" cx="0" cy="0" r="1" gradientUnits="userSpaceOnUse" gradientTransform="translate(115.937 40.9532) rotate(90) scale(36.6716 92.7931)">
<stop/>
<stop offset="1" stop-color="#0F0F0F"/>
</radialGradient>
<radialGradient id="paint6_radial_39_775" cx="0" cy="0" r="1" gradientUnits="userSpaceOnUse" gradientTransform="translate(115.937 40.9532) rotate(90) scale(36.6716 92.7931)">
<stop/>
<stop offset="1" stop-color="#0F0F0F"/>
</radialGradient>
<radialGradient id="paint7_radial_39_775" cx="0" cy="0" r="1" gradientUnits="userSpaceOnUse" gradientTransform="translate(115.937 40.9532) rotate(90) scale(36.6716 92.7931)">
<stop/>
<stop offset="1" stop-color="#0F0F0F"/>
</radialGradient>
<radialGradient id="paint8_radial_39_775" cx="0" cy="0" r="1" gradientUnits="userSpaceOnUse" gradientTransform="translate(115.937 40.9532) rotate(90) scale(36.6716 92.7931)">
<stop/>
<stop offset="1" stop-color="#0F0F0F"/>
</radialGradient>
<radialGradient id="paint9_radial_39_775" cx="0" cy="0" r="1" gradientUnits="userSpaceOnUse" gradientTransform="translate(115.937 40.9532) rotate(90) scale(36.6716 92.7931)">
<stop/>
<stop offset="1" stop-color="#0F0F0F"/>
</radialGradient>
<radialGradient id="paint10_radial_39_775" cx="0" cy="0" r="1" gradientUnits="userSpaceOnUse" gradientTransform="translate(115.937 40.9532) rotate(90) scale(36.6716 92.7931)">
<stop/>
<stop offset="1" stop-color="#0F0F0F"/>
</radialGradient>
<radialGradient id="paint11_radial_39_775" cx="0" cy="0" r="1" gradientUnits="userSpaceOnUse" gradientTransform="translate(115.937 40.9532) rotate(90) scale(36.6716 92.7931)">
<stop/>
<stop offset="1" stop-color="#0F0F0F"/>
</radialGradient>
<radialGradient id="paint12_radial_39_775" cx="0" cy="0" r="1" gradientUnits="userSpaceOnUse" gradientTransform="translate(115.937 40.9532) rotate(90) scale(36.6716 92.7931)">
<stop/>
<stop offset="1" stop-color="#0F0F0F"/>
</radialGradient>
<radialGradient id="paint13_radial_39_775" cx="0" cy="0" r="1" gradientUnits="userSpaceOnUse" gradientTransform="translate(115.937 40.9532) rotate(90) scale(36.6716 92.7931)">
<stop/>
<stop offset="1" stop-color="#0F0F0F"/>
</radialGradient>
<radialGradient id="paint14_radial_39_775" cx="0" cy="0" r="1" gradientUnits="userSpaceOnUse" gradientTransform="translate(115.937 40.9532) rotate(90) scale(36.6716 92.7931)">
<stop/>
<stop offset="1" stop-color="#0F0F0F"/>
</radialGradient>
<radialGradient id="paint15_radial_39_775" cx="0" cy="0" r="1" gradientUnits="userSpaceOnUse" gradientTransform="translate(115.937 40.9532) rotate(90) scale(36.6716 92.7931)">
<stop/>
<stop offset="1" stop-color="#0F0F0F"/>
</radialGradient>
<radialGradient id="paint16_radial_39_775" cx="0" cy="0" r="1" gradientUnits="userSpaceOnUse" gradientTransform="translate(115.937 40.9532) rotate(90) scale(36.6716 92.7931)">
<stop/>
<stop offset="1" stop-color="#0F0F0F"/>
</radialGradient>
<radialGradient id="paint17_radial_39_775" cx="0" cy="0" r="1" gradientUnits="userSpaceOnUse" gradientTransform="translate(115.937 40.9532) rotate(90) scale(36.6716 92.7931)">
<stop/>
<stop offset="1" stop-color="#0F0F0F"/>
</radialGradient>
<radialGradient id="paint18_radial_39_775" cx="0" cy="0" r="1" gradientUnits="userSpaceOnUse" gradientTransform="translate(115.937 40.9532) rotate(90) scale(36.6716 92.7931)">
<stop/>
<stop offset="1" stop-color="#0F0F0F"/>
</radialGradient>
<radialGradient id="paint19_radial_39_775" cx="0" cy="0" r="1" gradientUnits="userSpaceOnUse" gradientTransform="translate(115.937 40.9532) rotate(90) scale(36.6716 92.7931)">
<stop/>
<stop offset="1" stop-color="#0F0F0F"/>
</radialGradient>
<radialGradient id="paint20_radial_39_775" cx="0" cy="0" r="1" gradientUnits="userSpaceOnUse" gradientTransform="translate(115.937 40.9532) rotate(90) scale(36.6716 92.7931)">
<stop/>
<stop offset="1" stop-color="#0F0F0F"/>
</radialGradient>
<radialGradient id="paint21_radial_39_775" cx="0" cy="0" r="1" gradientUnits="userSpaceOnUse" gradientTransform="translate(115.937 40.9532) rotate(90) scale(36.6716 92.7931)">
<stop/>
<stop offset="1" stop-color="#0F0F0F"/>
</radialGradient>
<radialGradient id="paint22_radial_39_775" cx="0" cy="0" r="1" gradientUnits="userSpaceOnUse" gradientTransform="translate(115.937 40.9532) rotate(90) scale(36.6716 92.7931)">
<stop/>
<stop offset="1" stop-color="#0F0F0F"/>
</radialGradient>
<radialGradient id="paint23_radial_39_775" cx="0" cy="0" r="1" gradientUnits="userSpaceOnUse" gradientTransform="translate(115.937 40.9532) rotate(90) scale(36.6716 92.7931)">
<stop/>
<stop offset="1" stop-color="#0F0F0F"/>
</radialGradient>
<radialGradient id="paint24_radial_39_775" cx="0" cy="0" r="1" gradientUnits="userSpaceOnUse" gradientTransform="translate(115.937 40.9532) rotate(90) scale(36.6716 92.7931)">
<stop/>
<stop offset="1" stop-color="#0F0F0F"/>
</radialGradient>
<radialGradient id="paint25_radial_39_775" cx="0" cy="0" r="1" gradientUnits="userSpaceOnUse" gradientTransform="translate(115.937 40.9532) rotate(90) scale(36.6716 92.7931)">
<stop/>
<stop offset="1" stop-color="#0F0F0F"/>
</radialGradient>
<radialGradient id="paint26_radial_39_775" cx="0" cy="0" r="1" gradientUnits="userSpaceOnUse" gradientTransform="translate(115.937 40.9532) rotate(90) scale(36.6716 92.7931)">
<stop/>
<stop offset="1" stop-color="#0F0F0F"/>
</radialGradient>
<radialGradient id="paint27_radial_39_775" cx="0" cy="0" r="1" gradientUnits="userSpaceOnUse" gradientTransform="translate(115.937 40.9532) rotate(90) scale(36.6716 92.7931)">
<stop/>
<stop offset="1" stop-color="#0F0F0F"/>
</radialGradient>
<radialGradient id="paint28_radial_39_775" cx="0" cy="0" r="1" gradientUnits="userSpaceOnUse" gradientTransform="translate(115.937 40.9532) rotate(90) scale(36.6716 92.7931)">
<stop/>
<stop offset="1" stop-color="#0F0F0F"/>
</radialGradient>
<radialGradient id="paint29_radial_39_775" cx="0" cy="0" r="1" gradientUnits="userSpaceOnUse" gradientTransform="translate(115.937 40.9532) rotate(90) scale(36.6716 92.7931)">
<stop/>
<stop offset="1" stop-color="#0F0F0F"/>
</radialGradient>
<radialGradient id="paint30_radial_39_775" cx="0" cy="0" r="1" gradientUnits="userSpaceOnUse" gradientTransform="translate(115.937 40.9532) rotate(90) scale(36.6716 92.7931)">
<stop/>
<stop offset="1" stop-color="#0F0F0F"/>
</radialGradient>
<radialGradient id="paint31_radial_39_775" cx="0" cy="0" r="1" gradientUnits="userSpaceOnUse" gradientTransform="translate(115.937 40.9532) rotate(90) scale(36.6716 92.7931)">
<stop/>
<stop offset="1" stop-color="#0F0F0F"/>
</radialGradient>
<radialGradient id="paint32_radial_39_775" cx="0" cy="0" r="1" gradientUnits="userSpaceOnUse" gradientTransform="translate(115.937 40.9532) rotate(90) scale(36.6716 92.7931)">
<stop/>
<stop offset="1" stop-color="#0F0F0F"/>
</radialGradient>
<radialGradient id="paint33_radial_39_775" cx="0" cy="0" r="1" gradientUnits="userSpaceOnUse" gradientTransform="translate(115.937 40.9532) rotate(90) scale(36.6716 92.7931)">
<stop/>
<stop offset="1" stop-color="#0F0F0F"/>
</radialGradient>
<radialGradient id="paint34_radial_39_775" cx="0" cy="0" r="1" gradientUnits="userSpaceOnUse" gradientTransform="translate(115.937 40.9532) rotate(90) scale(36.6716 92.7931)">
<stop/>
<stop offset="1" stop-color="#0F0F0F"/>
</radialGradient>
<radialGradient id="paint35_radial_39_775" cx="0" cy="0" r="1" gradientUnits="userSpaceOnUse" gradientTransform="translate(115.937 40.9532) rotate(90) scale(36.6716 92.7931)">
<stop/>
<stop offset="1" stop-color="#0F0F0F"/>
</radialGradient>
<radialGradient id="paint36_radial_39_775" cx="0" cy="0" r="1" gradientUnits="userSpaceOnUse" gradientTransform="translate(115.937 40.9532) rotate(90) scale(36.6716 92.7931)">
<stop/>
<stop offset="1" stop-color="#0F0F0F"/>
</radialGradient>
<radialGradient id="paint37_radial_39_775" cx="0" cy="0" r="1" gradientUnits="userSpaceOnUse" gradientTransform="translate(115.937 40.9532) rotate(90) scale(36.6716 92.7931)">
<stop/>
<stop offset="1" stop-color="#0F0F0F"/>
</radialGradient>
<radialGradient id="paint38_radial_39_775" cx="0" cy="0" r="1" gradientUnits="userSpaceOnUse" gradientTransform="translate(115.937 40.9532) rotate(90) scale(36.6716 92.7931)">
<stop/>
<stop offset="1" stop-color="#0F0F0F"/>
</radialGradient>
<linearGradient id="paint39_linear_39_775" x1="49.3109" y1="19" x2="49.3109" y2="53.6218" gradientUnits="userSpaceOnUse">
<stop stop-color="#E9E9E9"/>
<stop offset="1" stop-color="#DFDFDF"/>
</linearGradient>
<linearGradient id="paint40_linear_39_775" x1="55.4642" y1="36.7211" x2="55.4642" y2="48.2071" gradientUnits="userSpaceOnUse">
<stop stop-color="#343EFC"/>
<stop offset="1" stop-color="#4952F9"/>
</linearGradient>
<linearGradient id="paint41_linear_39_775" x1="48.9006" y1="42.4641" x2="37.4147" y2="42.4641" gradientUnits="userSpaceOnUse">
<stop stop-color="#F93949"/>
<stop offset="1" stop-color="#F1293A"/>
</linearGradient>
<linearGradient id="paint42_linear_39_775" x1="43.1577" y1="35.9007" x2="43.1577" y2="24.4148" gradientUnits="userSpaceOnUse">
<stop stop-color="#FE743A"/>
<stop offset="1" stop-color="#F55E24"/>
</linearGradient>
<linearGradient id="paint43_linear_39_775" x1="49.7212" y1="30.1578" x2="61.2071" y2="30.1577" gradientUnits="userSpaceOnUse">
<stop stop-color="#27B560"/>
<stop offset="1" stop-color="#27A057"/>
</linearGradient>
</defs>
</svg>
