<svg width="211" height="211" viewBox="0 0 211 211" fill="none" xmlns="http://www.w3.org/2000/svg">
<rect x="0.5" y="0.5" width="210" height="210" rx="49.5" fill="url(#paint0_linear_38_750)" stroke="#BABABA"/>
<mask id="path-2-inside-1_38_750" fill="white">
<path fill-rule="evenodd" clip-rule="evenodd" d="M124 108C115.163 108 108 115.163 108 124V143C108 162.33 123.67 178 143 178C162.33 178 178 162.33 178 143C178 123.67 162.33 108 143 108H124Z"/>
</mask>
<path fill-rule="evenodd" clip-rule="evenodd" d="M124 108C115.163 108 108 115.163 108 124V143C108 162.33 123.67 178 143 178C162.33 178 178 162.33 178 143C178 123.67 162.33 108 143 108H124Z" fill="url(#paint1_linear_38_750)"/>
<path d="M109 124C109 115.716 115.716 109 124 109V107C114.611 107 107 114.611 107 124H109ZM109 143V124H107V143H109ZM143 177C124.222 177 109 161.778 109 143H107C107 162.882 123.118 179 143 179V177ZM177 143C177 161.778 161.778 177 143 177V179C162.882 179 179 162.882 179 143H177ZM143 109C161.778 109 177 124.222 177 143H179C179 123.118 162.882 107 143 107V109ZM124 109H143V107H124V109Z" fill="#2D37FA" mask="url(#path-2-inside-1_38_750)"/>
<mask id="path-4-inside-2_38_750" fill="white">
<path fill-rule="evenodd" clip-rule="evenodd" d="M103 124C103 115.163 95.8366 108 87 108L68 108C48.67 108 33 123.67 33 143C33 162.33 48.67 178 68 178C87.33 178 103 162.33 103 143L103 124Z"/>
</mask>
<path fill-rule="evenodd" clip-rule="evenodd" d="M103 124C103 115.163 95.8366 108 87 108L68 108C48.67 108 33 123.67 33 143C33 162.33 48.67 178 68 178C87.33 178 103 162.33 103 143L103 124Z" fill="url(#paint2_linear_38_750)"/>
<path d="M87 109C95.2843 109 102 115.716 102 124L104 124C104 114.611 96.3888 107 87 107L87 109ZM68 109L87 109L87 107L68 107L68 109ZM34 143C34 124.222 49.2223 109 68 109L68 107C48.1177 107 32 123.118 32 143L34 143ZM68 177C49.2223 177 34 161.778 34 143L32 143C32 162.882 48.1177 179 68 179L68 177ZM102 143C102 161.778 86.7777 177 68 177L68 179C87.8822 179 104 162.882 104 143L102 143ZM102 124L102 143L104 143L104 124L102 124Z" fill="#F82031" mask="url(#path-4-inside-2_38_750)"/>
<mask id="path-6-inside-3_38_750" fill="white">
<path fill-rule="evenodd" clip-rule="evenodd" d="M87 103C95.8366 103 103 95.8366 103 87L103 68C103 48.67 87.33 33 68 33C48.67 33 33 48.67 33 68C33 87.33 48.67 103 68 103L87 103Z"/>
</mask>
<path fill-rule="evenodd" clip-rule="evenodd" d="M87 103C95.8366 103 103 95.8366 103 87L103 68C103 48.67 87.33 33 68 33C48.67 33 33 48.67 33 68C33 87.33 48.67 103 68 103L87 103Z" fill="url(#paint3_linear_38_750)"/>
<path d="M87 103L87 102L87 103ZM68 103L68 104L68 103ZM102 87C102 95.2843 95.2843 102 87 102L87 104C96.3888 104 104 96.3888 104 87L102 87ZM102 68L102 87L104 87L104 68L102 68ZM68 34C86.7777 34 102 49.2223 102 68L104 68C104 48.1177 87.8823 32 68 32L68 34ZM34 68C34 49.2223 49.2223 34 68 34L68 32C48.1178 32 32 48.1177 32 68L34 68ZM68 102C49.2223 102 34 86.7777 34 68L32 68C32 87.8822 48.1177 104 68 104L68 102ZM87 102L68 102L68 104L87 104L87 102Z" fill="#F65719" mask="url(#path-6-inside-3_38_750)"/>
<mask id="path-8-inside-4_38_750" fill="white">
<path fill-rule="evenodd" clip-rule="evenodd" d="M108 87C108 95.8366 115.163 103 124 103L143 103C162.33 103 178 87.33 178 68C178 48.67 162.33 33 143 33C123.67 33 108 48.67 108 68L108 87Z"/>
</mask>
<path fill-rule="evenodd" clip-rule="evenodd" d="M108 87C108 95.8366 115.163 103 124 103L143 103C162.33 103 178 87.33 178 68C178 48.67 162.33 33 143 33C123.67 33 108 48.67 108 68L108 87Z" fill="url(#paint4_linear_38_750)"/>
<path d="M124 103L124 104L124 103ZM108 87L107 87L108 87ZM143 103L143 102L143 103ZM108 68L109 68L108 68ZM124 102C115.716 102 109 95.2843 109 87L107 87C107 96.3888 114.611 104 124 104L124 102ZM143 102L124 102L124 104L143 104L143 102ZM177 68C177 86.7777 161.778 102 143 102L143 104C162.882 104 179 87.8822 179 68L177 68ZM143 34C161.778 34 177 49.2223 177 68L179 68C179 48.1177 162.882 32 143 32L143 34ZM109 68C109 49.2223 124.222 34 143 34L143 32C123.118 32 107 48.1177 107 68L109 68ZM109 87L109 68L107 68L107 87L109 87Z" fill="#418F60" mask="url(#path-8-inside-4_38_750)"/>
<defs>
<linearGradient id="paint0_linear_38_750" x1="105.5" y1="0" x2="105.5" y2="211" gradientUnits="userSpaceOnUse">
<stop stop-color="#E9E9E9"/>
<stop offset="1" stop-color="#DFDFDF"/>
</linearGradient>
<linearGradient id="paint1_linear_38_750" x1="143" y1="108" x2="143" y2="178" gradientUnits="userSpaceOnUse">
<stop stop-color="#343EFC"/>
<stop offset="1" stop-color="#4952F9"/>
</linearGradient>
<linearGradient id="paint2_linear_38_750" x1="103" y1="143" x2="33" y2="143" gradientUnits="userSpaceOnUse">
<stop stop-color="#F93949"/>
<stop offset="1" stop-color="#F1293A"/>
</linearGradient>
<linearGradient id="paint3_linear_38_750" x1="68" y1="103" x2="68" y2="33" gradientUnits="userSpaceOnUse">
<stop stop-color="#FE743A"/>
<stop offset="1" stop-color="#F55E24"/>
</linearGradient>
<linearGradient id="paint4_linear_38_750" x1="108" y1="68" x2="178" y2="68" gradientUnits="userSpaceOnUse">
<stop stop-color="#27B560"/>
<stop offset="1" stop-color="#27A057"/>
</linearGradient>
</defs>
</svg>
